<?xml version="1.0" encoding="UTF-8" standalone="no"?>
<!-- Created with Inkscape (http://www.inkscape.org/) -->

<svg
   xmlns:dc="http://purl.org/dc/elements/1.1/"
   xmlns:cc="http://creativecommons.org/ns#"
   xmlns:rdf="http://www.w3.org/1999/02/22-rdf-syntax-ns#"
   xmlns:svg="http://www.w3.org/2000/svg"
   xmlns="http://www.w3.org/2000/svg"
   xmlns:sodipodi="http://sodipodi.sourceforge.net/DTD/sodipodi-0.dtd"
   xmlns:inkscape="http://www.inkscape.org/namespaces/inkscape"
   version="1.1"
   width="742.01752"
   height="683.73773"
   viewBox="0 0 742.01752 683.73774"
   id="svg2"
   inkscape:version="0.91 r13725"
   sodipodi:docname="6DOF.svg">
  <sodipodi:namedview
     pagecolor="#ffffff"
     bordercolor="#666666"
     borderopacity="1"
     objecttolerance="10"
     gridtolerance="10"
     guidetolerance="10"
     inkscape:pageopacity="0"
     inkscape:pageshadow="2"
     inkscape:window-width="1680"
     inkscape:window-height="1027"
     id="namedview72"
     showgrid="false"
     fit-margin-top="0"
     fit-margin-left="0"
     fit-margin-right="0"
     fit-margin-bottom="0"
     inkscape:zoom="0.45254834"
     inkscape:cx="444.68987"
     inkscape:cy="267.67122"
     inkscape:window-x="-8"
     inkscape:window-y="-8"
     inkscape:window-maximized="1"
     inkscape:current-layer="layer3" />
  <defs
     id="defs4" />
  <metadata
     id="metadata7">
    <rdf:RDF>
      <cc:Work
         rdf:about="">
        <dc:format>image/svg+xml</dc:format>
        <dc:type
           rdf:resource="http://purl.org/dc/dcmitype/StillImage" />
        <dc:title></dc:title>
      </cc:Work>
    </rdf:RDF>
  </metadata>
  <g
     transform="translate(24.13863,-159.27753)"
     id="layer2"
     style="display:inline;stroke:none">
    <g
       transform="translate(1329.5232,846.52816)"
       id="g4608"
       style="stroke:none">
      <g
         transform="translate(-2143.1097,-170.49765)"
         id="g4380"
         style="stroke:none">
        <path
           d="m 1146.481,37.076347 c -13.2781,-4.0626 -43.6829,-21.9462 -59.9999,-35.2907995 -25.1603,-20.5768995 -49.1129,-49.0767005 -65.9379,-78.4552005 -4.9436,-8.6323 -7.2424,-11.75 -8.6638,-11.75 -3.075,-7.793533 -6.1499,-15.587067 -9.2249,-23.380597 -2.87506,-5.4664 -11.22946,-29.7237 -14.24786,-41.3694 l -2.9159,-11.25 -4.1478,0 c -2.6835,0 -4.3425,-0.50728 -4.6992,-1.43685 -0.3033,-0.79027 1.0376,-7.42777 2.9796,-14.75 3.9471,-14.8818 5.2674,-18.81315 6.318,-18.81315 1.1856,0 22.03976,25.77637 22.03976,27.2419 0,0.74598 -1.589,1.93091 -3.5311,2.63317 -3.3593,1.21473 -3.5016,1.45561 -2.9255,4.95089 0.8561,5.1946 3.0421,12.82714 7.6396,26.67404 34.4267,88.011536 98.5494,147.7288103 163.3169,165.412506 13.8151,3.7721 36.4214,6.090791 49.5,3.574991 15.1312,-2.9106 17.4184,-3.5449 25.8774,-7.1772 31.6873,-13.6064 51.9223,-35.630599 66.7185,-72.618 l 4.7234,-11.8078 -3.1165,-2.8465 c -6.0803,-5.5534 -5.6739,-6.7905 6.0899,-18.5401 5.7809,-5.7739 11.1927,-10.4979 12.0263,-10.4979 1.6629,0 2.9438,3.0163 8.0663,18.9944 1.8504,5.7719 3.1412,11.076 2.8684,11.7869 -0.7292,1.9002 -5.7188,4.2187 -9.079,4.2187 -2.4553,0 -3.0218,0.4857 -3.5299,3.0263 -1.1751,5.8754 -10.8308,27.844601 -16.2485,36.969501 -11.6299,19.5878995 -23.9062,32.967899 -40.3963,44.027999 -28.2324,18.936 -63.7573,26.3541 -96,20.0462 -11.1667,-3.191333 -22.3333,-6.382667 -33.5,-9.574 z"
           id="path3927-5"
           style="display:inline;fill:#52dedf;stroke:none"
           inkscape:connector-curvature="0" />
        <path
           d="m 1147.2929,38.466968 c -13.294,-5.046487 -43.683,-23.461429 -59.9999,-36.8060288 -18.0116,-14.7305002 -36.5713,-34.7537002 -50.7068,-54.7053002 -10.2732,-14.5 -22.1991,-35.0342 -21.2445,-36.5789 0.3807,-0.616 3.4486,-2.4235 6.8176,-4.0168 l 6.1254,-2.8969 0.6025,2.2528 c 0.3314,1.239 1.3457,3.69 2.2541,5.4466 2.2248,4.3023 2.0947,5.5301 -0.19,1.7932 -2.9792,-4.8727 -4.8122,-5.9787 -7.716,-4.6556 -1.3742,0.6261 -2.756,1.8093 -3.0707,2.6294 -1.3346,3.4779 16.2184,31.7883 30.6139,49.3756 26.717,32.6410002 57.5607,56.3374 90.7399,69.7135 12.0916,5.585339 24.1831,9.100609 36.2747,9.9259 13.7715,2.5352 36.5889,1.6435 50.7548,-1.9836 29.1281,-7.458 52.8778,-24.7488 69.9933,-50.9581 5.0264,-7.697 15.9287,-30.2097 18.6673,-38.5471 2.3947,-7.2904 2.5609,-7.5085 5.9479,-7.8058 1.9164,-0.1682 3.9027,-0.8432 4.4139,-1.5 0.9986,-1.2831 4.2017,-13.9657 6.2997,-24.9442 0.7095,-3.7125 1.6202,-6.75 2.0238,-6.75 1.465,0 10.9407,28.7283 10.1529,30.7814 -0.7398,1.9279 -5.7375,4.2186 -9.204,4.2186 -2.1492,0 -3.0496,0.4801 -3.0496,1.626 0,3.5166 -10.4044,27.4345 -15.8228,36.374 -1.1668,1.925 -2.8593,4.85 -3.7612,6.5 -3.1593,5.7800002 -15.5646,21.3255002 -21.7115,27.2071 -18.0032,17.2266 -53.3852,32.527908 -73.2045,33.8416 -14.9317,0.989723 -27.825,2.242908 -38.5,0.03653 -10.675,-2.206379 -20.2062,-4.527413 -33.5002,-9.5739 z m -142.5,-146.813528 c 0,-0.964 -0.5984,-2.6404 -1.3298,-3.7253 -2.7565,-4.0888 -16.62203,-46.1792 -16.66427,-50.5866 -0.003,-0.3377 2.02687,-0.8926 4.51134,-1.2332 2.48448,-0.3405 5.81561,-1.2906 7.40251,-2.1112 2.57952,-1.3339 2.94862,-1.327 3.48272,0.065 0.3287,0.8564 0.5975,2.3686 0.5975,3.3605 0,3.708 11.0098,37.0505 14.5789,44.1513 l 2.3213,4.6182 -4.7205,2.5692 c -2.5963,1.4131 -5.9489,3.0363 -7.4501,3.607 -2.3293,0.8856 -2.7296,0.7808 -2.7296,-0.7149 z m 6.8158,-7.7027 c -1.0682,-2.3446 -3.8158,-2.408 -3.8158,-0.088 0,1.7989 2.0712,3.503 3.5622,2.9308 1.0059,-0.386 1.066,-1.0597 0.2536,-2.8427 z m -8.176,-57.8148 c -0.7629,-1.8258 -2.5689,-5.1919 -4.0134,-7.4801 -1.4445,-2.2882 -2.62636,-4.4063 -2.62636,-4.7069 0,-1.4756 11.93516,12.2466 11.96516,13.7567 0.064,3.1962 -3.8113,2.054 -5.3254,-1.5697 z"
           id="path3919-2"
           style="display:inline;fill:#4faca5;stroke:none"
           inkscape:connector-curvature="0" />
      </g>
      <g
         transform="translate(-3017.3215,-1943.0357)"
         id="g4341"
         style="stroke:none">
        <path
           d="m 2263.2278,1689.4612 c -1.5536,-0.6254 -2.6924,-2.5547 -3.8418,-6.5084 -1.1414,-3.9262 -2.0436,-5.4621 -2.9944,-5.0972 -0.7484,0.2872 -3.9696,-0.321 -7.1582,-1.3516 -10.2095,-3.2996 -31.7056,-9.7964 -34.5474,-10.4412 -2.7347,-0.6206 -2.75,-0.671 -2.75,-9.105 0,-7.5685 0.198,-8.4809 1.8401,-8.4809 3.1299,0 18.2409,3.7788 24.2113,5.1489 l 22.9588,5.6844 c 2.3304,0.5002 1.4744,-5.0573 11.4203,-5.8333 1.2722,0 4.1808,2.1262 7.1818,5.25 6.3079,6.5659 25.7273,22.744 25.0342,23.4372 -0.5498,0.5498 -37.5926,8.3576 -38.5723,8.2494 -0.3156,-0.035 -1.5675,-0.4634 -2.7821,-0.9523 z m -226.0226,-77.7737 c 0.6312,-1.2134 0.7068,-2.7356 0.7155,-5.3924 0.013,-3.9829 -0.3952,-4.9695 -2.7347,-6.6079 -5.0065,-3.5062 -7.3028,-2.6321 -15.7122,1.6082 -8.0441,4.0562 -2.2836,1.1352 -7.5342,3.3147 l -14.0036,-4.5129 c -4.6386,-1.4949 -14.575,-4.3759 -22,-6.6648 -7.425,-2.2889 -17.775,-5.4337 -23,-6.9884 l -111,-33.6194 c -4.583,-1.642 -10.975,-3.3108 -14,-4.3394 -3.025,-1.0285 -7.9488,-2.5775 -10.9418,-3.4422 -5.3547,-1.547 -8.2858,-2.5365 -8.2858,-2.5365 -1.8854,5.5195 -12.6009,4.5224 -12.8925,1.9705 -3.26,-4.801 -17.9671,-16.7833 -16.4247,-20.3602 1.1952,-1.1952 14.7079,-4.3806 27.8686,-6.8772 2.2328,0.8946 4.1717,0.8537 5.6559,6.4953 l 1.5,3.9693 22.5203,6.2756 c 26.6833,7.4357 59.0606,17.9572 65.7519,19.8807 l 142.2353,42.3665 c 0.01,0.6875 0.8255,1.25 1.8187,1.25 1.8213,0 12.9895,3.3854 16.6941,5.0605 1.1,0.4974 5.6,2.0114 10,3.3645 10.8487,3.3362 30.6701,9.3759 38,11.5789 3.3,0.9918 16.575,5.0209 29.5,8.9536 l 71.0068,19.3316 c -1.2132,0.2662 4.1236,7.09 1.2159,7.1057 -1.65,0.01 -8.877,2.1107 -12.6361,2.5831 -6.374,0.8008 -19.0304,2.0959 -21.2595,0.5568 -1.0049,-0.6938 -7.2271,-2.9218 -13.8271,-4.9511 -33.9646,-10.443 -50.588,-15.4927 -66,-20.0487 -4.95,-1.4633 -10.125,-3.049 -11.5,-3.5239 -2.1393,-0.7389 -11.0567,-3.473 -34.3648,-10.5367 z"
           id="path3913-3"
           style="display:inline;fill:#ea1615;stroke:none"
           inkscape:connector-curvature="0" />
        <path
           d="m 2263.1892,1691.663 c -1.4977,-0.6032 -2.6874,-2.5401 -3.7426,-6.0931 -1.7909,-6.0309 -0.8653,-10.3527 2.7643,-8.934 2.6869,1.0502 26.6407,4.0649 32.424,4.2945 2.3375,0.093 8.8929,0.8676 8.8929,1.2853 0,0.4178 -7.0054,1.0744 -9.8929,1.8955 -2.8875,0.8212 -13.2378,4.6338 -18.1118,6.028 -9.8411,2.815 -9.2953,2.7475 -12.3339,1.5238 z m -14.3043,-14.9876 c -8.0584,-2.697 -31.0575,-9.691 -34.25,-10.4154 -2.6629,-0.6043 -3.8903,-3.7632 -1.9323,-4.9732 0.4497,-0.278 6.6372,1.3238 13.75,3.5595 7.1128,2.2356 16.4782,5.0984 20.8119,6.3616 8.7196,2.5416 12.175,4.8716 9.6204,6.487 -1.8244,1.1537 -1.3114,1.2191 -8,-1.0195 z m -67.5317,-20.2179 c -5.1688,-1.4493 -9.3683,-3.1705 -15.9683,-5.1998 -33.9646,-10.4431 -50.588,-15.4927 -66,-20.0487 -4.95,-1.4633 -10.125,-3.049 -11.5,-3.5239 -2.1393,-0.7389 -11.0567,-3.4731 -34.3648,-10.5367 -2.6756,-0.8109 -5.664,-1.4743 -6.6408,-1.4743 -0.9768,0 -3.56,-0.7988 -5.7405,-1.775 -3.5165,-1.5744 -3.8671,-2.0382 -3.1027,-4.1045 0.6363,-1.7203 1.3178,-2.1358 2.6053,-1.5888 1.6543,0.7029 5.263,1.8376 20.2435,6.365 3.575,1.0805 14.825,4.5269 25,7.6588 10.175,3.1318 19.85,6.0511 21.5,6.4872 1.65,0.4361 8.85,2.6091 16,4.829 7.15,2.2198 24.7,7.5152 39,11.7675 14.3,4.2523 34.5551,10.1796 34.8255,10.3939 0.6215,0.4925 -7.8526,0.1365 -10.7208,0.9849 -1.1981,0.3544 -2.7456,-0.048 -5.1364,-0.2346 z m -169.5186,-51.9302 -13.9497,-4.233 c -4.6635,-1.4151 -14.575,-4.3759 -22,-6.6648 -18.0542,-5.5392 -33.7295,-10.419 -49.7293,-15.2967 l 1.5113,-4.8802 90.4602,28.1883 z m 25.0503,-3.7319 c 0,-0.4833 1.3607,-1.4423 3.0237,-2.1312 1.6631,-0.6888 3.4494,-1.9809 3.9696,-2.8713 0.8199,-1.4032 0.9491,-1.3525 0.97,0.3812 0.014,1.2021 -1.2024,2.6981 -3.0506,3.75 -3.3988,1.9344 -4.9127,2.2029 -4.9127,0.8713 z m -9.6152,-3.8866 c -1.5024,-0.9898 -2.6693,-4.9409 -1.6459,-5.5733 0.4511,-0.2788 1.3022,1.0333 1.8914,2.9158 0.5892,1.8825 1.026,3.4159 0.9705,3.4075 -0.055,-0.01 -0.6026,-0.346 -1.216,-0.75 z m -116.6057,-23.268 c -4.6384,-1.5639 -56.2815,-16.9939 -68.7791,-20.6213 -4.675,-1.3569 -10.975,-3.3087 -14,-4.3372 -3.025,-1.0285 -7.9488,-2.5775 -10.9418,-3.4422 -5.3547,-1.547 -8.5536,-2.8937 -8.5536,-2.8937 -0.7774,4.6646 -9.7499,6.0065 -12.6247,2.3277 -5.2954,-4.4977 -17.8226,-16.5591 -15.9749,-20.3049 0.7934,-0.7935 1.095,-0.6368 1.095,0.5688 0,1.9166 6.6054,6.7361 9.2322,6.7361 0.9723,0 1.7678,0.675 1.7678,1.5 0,2.3149 1.7906,1.7733 2.4796,-0.75 0.3379,-1.2375 1.766,-4.7644 3.1736,-7.8376 1.9866,-4.3373 3.5311,-5.2163 6.0266,-6.1187 6.2908,-1.6229 8.586,1.067 9.8639,5.9665 0.9903,3.7968 0.6921,2.5044 -4.5813,-0.2213 -1.9497,-1.0077 -6.1353,-0.039 -8.5127,4.5584 -1.8225,3.5244 -1.5472,7.5439 0.4864,7.0986 0.7637,-0.1673 2.553,0.1264 3.9762,0.6526 1.4233,0.5262 5.7377,1.8848 9.5877,3.019 3.85,1.1343 13.4895,4.1864 21.5,6.5186 l 76.0274,22.1346 c 9.6812,-20.1517 2.8891,6.8115 -1.2483,5.446 z"
           id="path3905-9"
           style="display:inline;fill:#a20d0e;stroke:none"
           inkscape:connector-curvature="0" />
      </g>
      <path
         d="m -995.59609,-65.32169 c -2.4078,-3.18346 -2.08166,-4.71398 1.70034,-6.51752 l 3.5,-1.66903 0,-26.18907 c 0,-18.69328 0.3688,-27.29836 1.2883,-30.06478 0.9325,-2.80547 1.0337,-5.39453 0.3667,-9.37573 -1.0039,-5.99224 -2.0651,-102.08525 -1.1678,-105.75 0.5139,-2.09881 1.086,-2.25 8.5128,-2.25 7.4242,0 7.9998,0.15196 8.522,2.25 0.3081,1.2375 0.4291,24.44885 0.2691,51.58078 l -0.2911,49.33078 -3,2.14466 c -1.65,1.17957 -4.2843,3.4054 -5.854,4.9463 -2.6031,2.55538 -2.729,2.98973 -1.4329,4.94179 0.7815,1.1771 2.9254,2.94701 4.7642,3.93315 1.8387,0.98613 3.8167,2.26647 4.3954,2.84519 0.691,0.69096 0.9543,8.69934 0.767,23.32555 -0.1569,12.25034 0.11529,25.56637 0.49529,27.08126 0.4616,1.83914 1.89171,1.35875 4.48351,2.68098 4.7322,2.41419 3.65461,4.37939 0.62964,8.89766 l -13.33134,24.76642 z m 6.40034,-197.01613 c -1.3038,-1.30385 -1.7835,-59.09664 -0.5522,-65.25317 l 17.329,-7.61222 0.023,36.86539 c 0,22.62222 -0.3186,35.11861 -1.2,36 -0.6909,0.69091 -4,1.2 -7.8,1.2 -3.8,0 -7.109,-0.50909 -7.8,-1.2 z m -0.9946,-318.18103 c 0.1785,-14.36544 0.5428,-26.73773 0.8096,-27.49398 0.3035,-0.86048 -2.6375,-1.75125 -4.515,-2.38049 -4.3903,-1.47147 -6.69845,-7.81799 -6.0994,-10.20076 l 18.7715,-29.53743 c 1.0281,-0.01 18.8279,29.47128 18.8279,31.39921 0,1.02199 -1.6598,6.43539 -4.1907,7.56851 l -6.1908,1.87627 0.2489,24.82484 0.068,140.08081 0.017,97.81503 -3.4046,1.83349 c -3.3453,1.80159 -3.4563,1.79663 -6.3804,-0.28549 -1.6367,-1.16544 -3.8063,-2.12587 -4.8214,-2.13429 -1.0151,-0.008 -2.3475,-0.34592 -2.9609,-0.75 -1.6545,-1.08994 -2.623,-4.96941 -1.4255,-5.70955 0.7075,-0.43721 1.0484,-27.92385 1.0646,-85.83416 z"
         id="path3909-1"
         style="display:inline;fill:#1617b6;stroke:none"
         inkscape:connector-curvature="0" />
      <g
         transform="translate(-1049.5266,-1799.6911)"
         id="g4384"
         style="stroke:none">
        <path
           d="m -11.101955,1507.1538 c -2.475,1.286 -8.55,4.1273 -13.5,6.3139 -4.95,2.1867 -20.1738,9.4238 -33.83066,16.0824 -11.60261,5.9842 -25.61093,12.0831 -36.03825,17.044 -10.476605,4.9906 -11.578835,6.0787 -11.617455,11.4681 -0.0213,2.9734 -4.62711,8.2848 -7.71913,8.9017 -1.53699,0.3067 -6.61952,-0.3324 -11.29452,-1.4202 -4.675,-1.0878 -9.51251,-2.1909 -10.75,-2.4515 -1.50548,-0.317 -4.23751,-0.083 -5.76721,-0.9759 0.7749,-2.4985 2.82763,-9.2242 4.65525,-13.3786 5.54611,-12.607 10.21516,-19.9074 15.78316,-17.7904 3.73705,1.9144 6.91654,0.8629 8.11452,2.7843 1.2375,0.3004 1.98214,0.9472 6.89286,-1.484 17.441533,-9.0622 28.640205,-14.797 47.571425,-23.9833 l 115.500633,-52.9801 5.947138,-1.2127 5.888852,2.9079 c 4.0493,0.93 7.757421,0.2679 9.807318,-8.1326 l 142.356074,-68.789 c 9.26771,-4.4408 17.03424,-7.6202 19.06206,-9.6992 -1.98891,-2.3354 -2.49356,-2.6804 -2.1777,-4.364 1.38186,-7.3659 7.53391,-9.8418 16.99963,-7.4085 1.98881,0.5113 6.31602,1.4837 9.61602,2.161 3.3,0.6773 6.40661,1.5881 6.90358,2.024 -1.77097,5.6697 -10.0877,18.1882 -14.24927,23.1698 -1.38994,1.6638 -4.16021,3.6293 -9.31168,1.1343 -1.68193,-0.8698 -4.07253,-1.3268 -5.31245,-1.0156 -1.23993,0.3112 -16.82896,7.5779 -34.6423,16.1482 -46.37921,23.3049 -84.06049,42.6427 -115.988704,55.7478 -11.235669,-3.4557 -19.856866,0.4234 -20.046583,4.3398 -0.05269,1.0877 -1.972392,5.4682 -2.95765,5.9295 -26.949525,12.6188 -53.436425,25.2928 -79.894958,38.9289 z"
           id="path3921-1"
           style="display:inline;fill:#eeef0d;fill-opacity:1;stroke:none"
           inkscape:connector-curvature="0" />
        <path
           d="m -126.65509,1565.9428 c -4.675,-1.1032 -9.4,-2.3663 -10.5,-2.8067 -2,-0.8009 -2,-0.8009 0,-1.5396 1.1,-0.4062 5.825,-2.424 10.5,-4.4839 13.13428,-5.7872 18.78858,-7.6003 19.98165,-6.4073 1.78322,1.7833 0.0118,10.0161 -2.85947,13.29 -3.47343,3.9604 -6.92786,4.3533 -17.12218,1.9475 z m 20.30946,-17.4554 c -0.34527,-0.8997 -0.21865,-2.2603 0.28138,-3.0234 0.72879,-1.1123 53.407447,-26.928 113.9091667,-55.8224 26.6112683,-12.6772 46.4835343,-22.2157 63.7044743,-30.5249 26.110918,-12.5987 46.126559,-22.3715 74.295519,-35.9744 24.2,-11.687 49.4,-23.8478 56,-27.0239 6.6,-3.1761 20.95657,-10.0993 31.90349,-15.3849 10.94692,-5.2856 20.50942,-9.6101 21.25,-9.6101 2.05688,0 1.61188,-1.8256 -1.10804,-4.5455 -2.99808,-2.9981 -6.3437,-3.1083 -11.68219,-0.3848 -2.23139,1.1384 -4.26482,1.862 -4.51875,1.6081 -0.9266,-0.9266 2.54258,-7.547 4.50509,-8.5973 2.09657,-1.1221 4.84502,-1.6976 7.66696,-1.3247 6.21764,1.8645 14.57266,3.4867 21.07936,5.507 -0.62864,3.8631 -10.00347,19.3616 -12.73182,22.1863 -2.06094,2.0609 -1.93082,2.7835 -5.41781,2.407 -2.30936,-0.2494 -5.46832,-1.4202 -7.17425,-2.1387 -3.48236,-1.4668 0.72001,-1.97 -62.27204,28.2953 -16.225,7.7955 -32.425,15.5408 -36,17.2118 -3.575,1.671 -10.325,4.8357 -15,7.0326 -4.675,2.197 -13.9,6.3693 -20.5,9.2719 -11.42374,5.5054 7.39983,-1.047 -19.548499,10.2957 -10.805048,-3.6781 -18.535955,1.8215 -19.972665,2.4775 -2.258312,1.0312 -0.475062,5.8488 -2.747062,6.8861 -8.732558,3.9871 -17.681383,8.0891 -27.731767,12.8391 -21.94047,10.3694 -54.23128,25.8299 -98.9241,47.3638 -25.80825,12.4349 -46.863447,23.859 -47.334957,23.859 -0.47152,0 -1.58622,-1.9862 -1.93149,-2.8859 z m 361.69054,-167.3637 c 0.825,-0.5332 1.05,-0.9694 0.5,-0.9694 -0.55,0 -1.675,0.4362 -2.5,0.9694 -0.825,0.5331 -1.05,0.9693 -0.5,0.9693 0.55,0 1.675,-0.4362 2.5,-0.9693 z"
           id="path3915-2"
           style="display:inline;fill:#b3b40a;stroke:none"
           inkscape:connector-curvature="0" />
      </g>
      <g
         transform="translate(-2997.5254,-1895.5819)"
         id="g4567"
         style="stroke:none">
        <path
           d="m 2189.1335,1600.3541 c 7.7342,-4.9347 30.1011,-21.4136 35.0785,-31.6594 1.0818,-2.227 2.0087,-6.8056 2.2458,-11.0937 0.579,-10.4728 -2.8602,-17.1789 -14.4238,-28.1248 -10.9138,-10.3308 -13.338,-11.6723 -17.3467,-9.5993 -1.6227,0.8391 -4.5921,1.5257 -6.5988,1.5257 -4.6004,0 -8.2827,-3.6813 -10.5925,-10.5899 -0.903,-2.7006 -2.4581,-7.0023 -3.456,-9.5595 -2.0807,-5.3322 -1.0391,-7.8506 3.2468,-7.8506 1.3224,0 5.9503,-1.197 10.2843,-2.66 7.0768,-2.3888 8.2074,-2.5243 11.0916,-1.3296 3.8097,1.578 6.96,6.3078 6.9865,10.4896 0.025,3.89 0.2142,4.1159 8.6326,10.2915 8.7488,6.418 19.0549,17.1867 22.714,23.7336 5.0242,8.9893 6.7618,16.0392 6.0271,24.4539 -0.3612,4.1365 -1.4928,9.7896 -2.5148,12.5624 -3.2023,8.6887 -14.1961,22.1714 -24.6205,30.1946 -7.5302,4.9597 -15.4989,2.0051 -19.9374,4.4186 -4.304,2.3404 -4.2866,7.9409 -5.5841,11.6365 -3.9681,1.7336 -10.1795,3.0954 -15.1525,5.7343 -32.3737,12.6347 -76.3218,21.6964 -119.0305,24.543 -8.825,0.5882 -20.0955,1.3759 -25.0455,1.7505 l -9,0.6811 c -6.5653,0.015 -13.1306,0.03 -19.6959,0.045 -0.7172,-0.2389 -10.0791,-0.9273 -20.8041,-1.5299 -17.7174,-0.9954 -40.3862,-3.1117 -48.7887,-4.5548 -2.8504,-0.4896 -3.7081,-0.091 -6.434,2.9877 -1.7299,1.9539 -3.7464,3.5526 -4.4811,3.5526 -1.9192,0 -8.7314,-4.4621 -16.6625,-10.9142 -3.7764,-3.0722 -7.7139,-6.2032 -8.75,-6.9578 -5.8065,-4.3015 9.3226,-7.554 10.8664,-8.0863 7.0125,-2.3979 13.959,-4.9601 15.4366,-5.6937 3.6371,-1.8057 6.5643,-4.4377 7.9667,-0.081 4.7958,2.3662 3.8471,3.0756 3.0967,9.7417 0.6875,0.01 9.35,0.9125 19.25,2.017 25.2179,2.8135 56.8664,2.1689 85.062,0.5914 28.1956,-1.5775 88.294,-10.1534 125.4792,-20.8316 5.5335,-1.5891 24.1595,-2.9189 28.4976,-4.5849 4.2284,-1.6239 -4.9441,-4.135 -2.1903,-5.8018 z"
           id="path3923-6"
           style="display:inline;fill:#ff7f2a;stroke:none"
           inkscape:connector-curvature="0" />
        <path
           d="m 1920.1937,1628.6692 c 1.4707,-8.8177 9.49,-12.3882 9.5454,-4.25 0.013,1.8775 -0.5258,2.25 -3.2531,2.25 -2.4616,0 -3.7137,0.6789 -5.0722,2.75 l -1.8039,2.75 z m 61.5607,20.974 c -16.6809,-0.9812 -34.6,-2.6445 -48.5879,-4.5101 -5.0458,-0.6729 -5.1056,-0.6487 -7.2163,2.9288 -2.2671,3.8424 -5.0737,4.6643 -7.1958,2.1073 -0.6847,-0.825 -1.7843,-1.5 -2.4435,-1.5 -0.6592,0 -4.9279,-3.15 -9.4861,-7 -4.5582,-3.85 -7.5684,-7 -6.6895,-7 0.8789,0 4.4661,1.1482 7.9715,2.5515 4.5918,1.8382 6.7233,3.3058 7.6251,5.25 l 1.2517,2.6985 0.8918,-2.3545 c 0.5459,-1.4413 1.439,-2.1445 2.3026,-1.8131 0.776,0.2977 1.6353,-0.043 1.9095,-0.7582 0.3769,-0.9822 1.8011,-1.1073 5.8328,-0.5121 31.3673,4.6305 94.6846,5.9063 128.3341,2.5859 47.6743,-4.7043 89.6099,-14.5534 122.4991,-28.7706 3.3122,-1.4314 10.7662,-6.438 14.3745,-8.0971 3.2954,-1.5153 6.5766,-2.625 8.545,-2.9252 l 7.6746,-5.3318 c 4.6828,-3.2533 11.0495,-8.0861 14.0728,-10.8492 9.9981,-9.1377 17.3341,-22.3218 17.3341,-31.1524 0,-4.7167 1.4234,-6.8349 2.3113,-3.4394 0.8408,3.2153 -0.8674,17.0088 -2.62,21.1564 -3.5755,8.4611 -14.6524,21.6258 -23.9206,28.4293 -6.9489,4.5303 -16.9455,2.107 -20.1687,4.1071 -3.9058,2.4236 -1.3311,9.4763 -4.2795,10.9251 -6.923,3.402 -9.235,3.8146 -16.3225,5.9364 -12.3916,4.2433 -41.0209,12.6398 -57.7564,16.9389 -21.4872,5.5198 -44.2368,8.6433 -76.2436,10.4681 -20.7478,2.6302 -41.8307,1.0084 -60.0001,-0.07 z"
           id="path4520"
           style="display:inline;fill:#c16c31;fill-opacity:1;stroke:none"
           inkscape:connector-curvature="0" />
      </g>
      <g
         transform="translate(-2050.4368,-355.93054)"
         id="g4376"
         style="stroke:none">
        <path
           d="m 936.62936,57.14015 c -1.5299,-2.9171 -9.16789,-28.7288 -9.16789,-30.9817 0,-2.1587 1.76118,-3.2963 5.10319,-3.2963 2.3281,0 3.3733,-2.3557 4.8805,-11 0.6233,-3.5749999 2.2747,-11.35169992 3.6696,-17.2816999 3.5498,-12.2394331 7.0996,-24.4788671 10.6494,-36.7183001 20.4708,-53.624197 42.40669,-89.80231 73.12214,-120.5981 14.3107,-14.34808 25.0071,-23.11283 35.163,-28.74063 3.5937,4.4025 8.9504,6.43288 9.8856,5.96291 4.299,-2.51889 6.6721,-10.67556 8.0011,-14.67759 13.1006,-5.2062 28.7598,-9.1077 42.1619,-9.22534 12.6953,-0.018 22.3583,1.27235 33.8636,6.44465 10.865,4.8845 16.6589,8.8974 26.3433,18.2457 13.19,12.7323 25.7878,34.1955 33.1464,56.4723 3.8292,11.592 3.8466,11.6208 8.3906,13.87 7.1162,3.5223 7.2966,4.6052 2.7467,16.484203 -5.6131,14.654897 -7.4902,18.738097 -8.627,18.766797 -0.55,0.014 -5.6125,-4.8137 -11.25,-10.728 -11.5092,-12.0743 -12.2482,-13.9883 -7.25,-18.7769 1.65,-1.5808 2.9989,-3.5775 2.9975,-4.4371 0,-2.7832 -7.6229,-23.3689 -11.4992,-31.0717 -10.9681,-21.7956 -25.6795,-37.0557 -42.3513,-43.9306 -16.4091,-6.7665 -30.7512,-7.5085 -47.647,-2.465 -8.0917,1.97907 -14.9414,4.49145 -21.1044,7.51533 -1.9689,0.96605 -4.9797,-2.80775 -7.3437,-1.3184 -5.4837,3.45481 -10.2529,12.55008 -10.2529,12.55008 -22.9989,18.18057 -52.5224,52.75687 -72.74664,90.15739 -12.78252,26.254229 -20.56504,43.222743 -28.7047,75.5484001 -2.3941,7.9276 -6.2973,28.9196999 -5.6775,30.5347999 0.3313,0.8635 1.6661,1.9744 2.9661,2.4687 2.3891,0.9083 3.1638,3.3355 1.4105,4.4191 -0.5242,0.324 -4.7916,6.3943 -9.4831,13.4896 -4.6915,7.0953 -8.965,13.1694 -9.4967,13.498 -0.5317,0.3286 -1.3864,-0.2027 -1.8993,-1.1806 z"
           id="path3911-2"
           style="display:inline;fill:#18e119;stroke:none"
           inkscape:connector-curvature="0" />
        <path
           d="m 936.4248,56.096354 c -1.3939,-2.6552 -9.4591,-29.4562 -9.0018,-29.9135 0.2089,-0.2089 2.4919,0.2559 5.0734,1.0328 2.5815,0.7769 7.43614,1.7228 10.78804,2.102 3.3519,0.3793 6.2797,1.1896 6.5063,1.8008 0.5193,1.4007 -8.9543,23.4129 -10.9243,25.3829 -1.28224,1.2823 -1.58204,1.2325 -2.44164,-0.405 z m 9.01724,-30.4899 c -2.8334,-0.8177 -3.1297,-1.2004 -2.2304,-2.8807 0.5704,-1.0657 2.3499,-7.0133 3.9545,-13.2168998 18.181,-70.2883002 51.67206,-133.7928742 91.04336,-172.6336842 4.7567,-4.69257 15.3246,-14.13678 23.3859,-20.40887 5.2469,-0.60281 4.8087,0.56806 9.8256,-2.923 1.3852,-0.81798 5.3071,-4.63984 6.4623,-7.55082 14.9247,-8.10436 31.1036,-13.17376 48.3262,-14.70241 18.2507,-1.446 36.6538,6.3687 53.868,22.8748 13.4457,12.8925 25.9595,34.4917 33.6408,58.0649 5.4871,16.8395 6.0785,20.6585 3.553,22.944 -2.877,2.6037 -8.2636,3.5109 -11.862,1.9979 -3.0396,-1.278 -5.1758,-5.776 -5.1968,-10.9419 -0.013,-3.1546 -7.354,-23.2606 -11.5047,-31.5088 -4.4813,-8.9052 -10.172,-17.5057 -16.4332,-24.8358 -4.3684,-5.1142 -6.9363,-7.6869 -13.5651,-13.5911 -2.7576,-2.456 -2.3939,-2.3722 4.5,1.037 4.125,2.04 9.8969,5.4798 12.8265,7.644 2.9296,2.1642 5.561,3.7005 5.8477,3.4138 0.9559,-0.9559 -5.1005,-7.7298 -11.313,-12.6531 -13.0085,-10.3092 -26.7666,-15.006 -43.9558,-15.006 -5.6511,0 -13.3416,0.6459 -17.09,1.4353 -13.5342,2.29472 -24.069,8.32266 -32.8936,13.95989 -3.3448,-1.81268 -2.9441,-1.65302 -5.7981,-1.46626 -1.4395,1.13642 -6.6741,4.91921 -8.7901,10.14213 -11.559,8.16213 -34.9669,30.64188 -44.3066,43.42894 -3.2138,4.40001 -7.0382,9.575 -8.4986,11.5 -20.66964,34.774669 -38.65239,72.314135 -49.84196,107.654184 -1.32129,4.0284398 -3.3192,13.40600019 -5.7384,27.3458 -1.6091,9.2716 -2.6884,12.158 -4.448,11.8945 -0.275,-0.041 -1.9704,-0.4992 -3.7675,-1.0178 z m 261.80186,-113.4194 c -3.4554,-3.5984 -6.0225,-6.80259 -5.7047,-7.12039 0.9415,-0.9415 9.4287,0.6577 10.4134,1.9621 0.9739,1.28989 3.2569,8.69729 3.2569,10.56699 0,2.2406 -1.7826,1.0302 -7.9656,-5.4087 z"
           id="path3907-8"
           style="display:inline;fill:#0ba60e;stroke:none"
           inkscape:connector-curvature="0" />
      </g>
      <path
         d="m -792.14289,-392.94344 c -0.47303,-21.27062 -20.10165,-14.39218 -22.14074,0.63529 -2.21353,16.31301 1.66509,17.52748 1.66509,17.52748 1.63891,-0.4312 3.83107,3.03905 10.88913,-1.95611 -11.41261,-3.35755 -5.53593,-16.49875 -0.38108,-19.33509 3.47358,-1.91127 6.47072,2.09089 9.9676,3.12843 z"
         id="path4582"
         style="color:#000000;display:inline;overflow:visible;visibility:visible;fill:#d86756;fill-opacity:1;fill-rule:nonzero;stroke:none;stroke-width:1;marker:none;enable-background:accumulate"
         inkscape:connector-curvature="0" />
    </g>
  </g>
  <g
     transform="translate(24.13863,-159.27753)"
     id="layer3"
     style="display:inline">
    <g
       id="text3974"
       style="font-style:normal;font-variant:normal;font-weight:normal;font-stretch:normal;font-size:32px;line-height:125%;font-family:'Liberation Sans';-inkscape-font-specification:'Liberation Sans';text-align:start;letter-spacing:0px;word-spacing:0px;writing-mode:lr-tb;text-anchor:start;fill:#0000ff;fill-opacity:1;stroke:none" />
    <text
       xml:space="preserve"
       style="font-style:normal;font-variant:normal;font-weight:normal;font-stretch:normal;font-size:2.5px;line-height:125%;font-family:Arial;-inkscape-font-specification:Arial;letter-spacing:0px;word-spacing:0px;fill:#e1ce00;fill-opacity:1;stroke:none;stroke-width:1px;stroke-linecap:butt;stroke-linejoin:miter;stroke-opacity:1"
       x="-247.85143"
       y="614.91675"
       id="text4200"
       sodipodi:linespacing="125%"
       transform="matrix(0.90262925,-0.43041891,0.43041891,0.90262925,0,0)"><tspan
         sodipodi:role="line"
         id="tspan4202"
         x="-247.85143"
         y="614.91675"
         style="font-style:normal;font-variant:normal;font-weight:bold;font-stretch:normal;font-size:27.5px;font-family:'DejaVu Sans';-inkscape-font-specification:'DejaVu Sans Bold';fill:#e1ce00;fill-opacity:1">Droite</tspan></text>
    <text
       xml:space="preserve"
       style="font-style:normal;font-variant:normal;font-weight:normal;font-stretch:normal;font-size:2.5px;line-height:125%;font-family:Arial;-inkscape-font-specification:Arial;letter-spacing:0px;word-spacing:0px;display:inline;fill:#e1ce00;fill-opacity:1;stroke:none;stroke-width:1px;stroke-linecap:butt;stroke-linejoin:miter;stroke-opacity:1"
       x="338.20609"
       y="613.20734"
       id="text4200-9"
       sodipodi:linespacing="125%"
       transform="matrix(0.90262925,-0.43041891,0.43041891,0.90262925,0,0)"><tspan
         sodipodi:role="line"
         id="tspan4202-4"
         x="338.20609"
         y="613.20734"
         style="font-style:normal;font-variant:normal;font-weight:bold;font-stretch:normal;font-size:27.5px;font-family:'DejaVu Sans';-inkscape-font-specification:'DejaVu Sans Bold';fill:#e1ce00;fill-opacity:1">Gauche</tspan></text>
    <text
       xml:space="preserve"
       style="font-style:normal;font-variant:normal;font-weight:normal;font-stretch:normal;font-size:2.5px;line-height:125%;font-family:Arial;-inkscape-font-specification:Arial;letter-spacing:0px;word-spacing:0px;display:inline;fill:#d40000;fill-opacity:1;stroke:none;stroke-width:1px;stroke-linecap:butt;stroke-linejoin:miter;stroke-opacity:1"
       x="758.789"
       y="417.43042"
       id="text4200-1"
       sodipodi:linespacing="125%"
       transform="matrix(0.96680977,0.2554973,-0.2554973,0.96680977,0,0)"><tspan
         sodipodi:role="line"
         id="tspan4202-42"
         x="758.789"
         y="417.43042"
         style="font-style:normal;font-variant:normal;font-weight:bold;font-stretch:normal;font-size:27.5px;font-family:'DejaVu Sans';-inkscape-font-specification:'DejaVu Sans Bold';fill:#d40000;fill-opacity:1">Avant</tspan></text>
    <text
       xml:space="preserve"
       style="font-style:normal;font-variant:normal;font-weight:normal;font-stretch:normal;font-size:2.5px;line-height:125%;font-family:Arial;-inkscape-font-specification:Arial;letter-spacing:0px;word-spacing:0px;display:inline;fill:#d40000;fill-opacity:1;stroke:none;stroke-width:1px;stroke-linecap:butt;stroke-linejoin:miter;stroke-opacity:1"
       x="78.782013"
       y="393.09875"
       id="text4200-1-6"
       sodipodi:linespacing="125%"
       transform="matrix(0.96680977,0.2554973,-0.2554973,0.96680977,0,0)"><tspan
         sodipodi:role="line"
         id="tspan4202-42-0"
         x="78.782013"
         y="393.09875"
         style="font-style:normal;font-variant:normal;font-weight:bold;font-stretch:normal;font-size:27.5px;font-family:'DejaVu Sans';-inkscape-font-specification:'DejaVu Sans Bold';fill:#d40000;fill-opacity:1">Arrière</tspan></text>
    <text
       xml:space="preserve"
       style="font-style:normal;font-variant:normal;font-weight:normal;font-stretch:normal;font-size:2.5px;line-height:125%;font-family:Arial;-inkscape-font-specification:Arial;letter-spacing:0px;word-spacing:0px;fill:#0000ff;fill-opacity:1;stroke:none;stroke-width:1px;stroke-linecap:butt;stroke-linejoin:miter;stroke-opacity:1"
       x="310.24875"
       y="179.32513"
       id="text4256"
       sodipodi:linespacing="125%"><tspan
         sodipodi:role="line"
         id="tspan4258"
         x="310.24875"
         y="179.32513"
         style="font-style:normal;font-variant:normal;font-weight:bold;font-stretch:normal;font-size:27.5px;font-family:'DejaVu Sans';-inkscape-font-specification:'DejaVu Sans Bold';fill:#0000ff;fill-opacity:1">Haut</tspan></text>
    <text
       xml:space="preserve"
       style="font-style:normal;font-variant:normal;font-weight:normal;font-stretch:normal;font-size:2.5px;line-height:125%;font-family:Arial;-inkscape-font-specification:Arial;letter-spacing:0px;word-spacing:0px;display:inline;fill:#0000ff;fill-opacity:1;stroke:none;stroke-width:1px;stroke-linecap:butt;stroke-linejoin:miter;stroke-opacity:1"
       x="318.35077"
       y="842.62585"
       id="text4256-9"
       sodipodi:linespacing="125%"><tspan
         sodipodi:role="line"
         id="tspan4258-5"
         x="318.35077"
         y="842.62585"
         style="font-style:normal;font-variant:normal;font-weight:bold;font-stretch:normal;font-size:27.5px;font-family:'DejaVu Sans';-inkscape-font-specification:'DejaVu Sans Bold';fill:#0000ff;fill-opacity:1">Bas</tspan></text>
    <text
       xml:space="preserve"
       style="font-style:normal;font-variant:normal;font-weight:normal;font-stretch:normal;font-size:2.5px;line-height:125%;font-family:Arial;-inkscape-font-specification:Arial;letter-spacing:0px;word-spacing:0px;display:inline;fill:#008080;fill-opacity:1;stroke:none;stroke-width:1px;stroke-linecap:butt;stroke-linejoin:miter;stroke-opacity:1"
       x="-138.95274"
       y="904.22937"
       id="text4256-97"
       sodipodi:linespacing="125%"
       transform="matrix(0.77255909,-0.63494287,0.63494287,0.77255909,0,0)"><tspan
         sodipodi:role="line"
         id="tspan4258-7"
         x="-138.95274"
         y="904.22937"
         style="font-style:normal;font-variant:normal;font-weight:bold;font-stretch:normal;font-size:27.5px;font-family:'DejaVu Sans';-inkscape-font-specification:'DejaVu Sans Bold';fill:#008080;fill-opacity:1">Tangage</tspan></text>
    <text
       xml:space="preserve"
       style="font-style:normal;font-variant:normal;font-weight:normal;font-stretch:normal;font-size:2.5px;line-height:125%;font-family:Arial;-inkscape-font-specification:Arial;letter-spacing:0px;word-spacing:0px;display:inline;fill:#0ba60e;fill-opacity:1;stroke:none;stroke-width:1px;stroke-linecap:butt;stroke-linejoin:miter;stroke-opacity:1"
       x="-138.48653"
       y="415.60556"
       id="text4256-97-8"
       sodipodi:linespacing="125%"
       transform="matrix(0.6695589,-0.74275897,0.74275897,0.6695589,0,0)"><tspan
         sodipodi:role="line"
         id="tspan4258-7-2"
         x="-138.48653"
         y="415.60556"
         style="font-style:normal;font-variant:normal;font-weight:bold;font-stretch:normal;font-size:27.5px;font-family:'DejaVu Sans';-inkscape-font-specification:'DejaVu Sans Bold';fill:#0ba60e;fill-opacity:1">Roulis</tspan></text>
    <text
       xml:space="preserve"
       style="font-style:normal;font-variant:normal;font-weight:normal;font-stretch:normal;font-size:2.5px;line-height:125%;font-family:Arial;-inkscape-font-specification:Arial;letter-spacing:0px;word-spacing:0px;display:inline;fill:#0000ff;fill-opacity:1;stroke:none;stroke-width:1px;stroke-linecap:butt;stroke-linejoin:miter;stroke-opacity:1"
       x="588.67035"
       y="508.95984"
       id="text4256-9-5"
       sodipodi:linespacing="125%"><tspan
         sodipodi:role="line"
         id="tspan4258-5-4"
         x="588.67035"
         y="508.95984"
         style="font-style:normal;font-variant:normal;font-weight:bold;font-stretch:normal;font-size:27.5px;font-family:'DejaVu Sans';-inkscape-font-specification:'DejaVu Sans Bold';fill:#ff6600;fill-opacity:1">Lacet</tspan></text>
  </g>
</svg>
