<?xml version="1.0" encoding="UTF-8" standalone="no"?>
<!DOCTYPE svg PUBLIC "-//W3C//DTD SVG 1.1//EN" "http://www.w3.org/Graphics/SVG/1.1/DTD/svg11.dtd">
<!-- Generated by Microsoft Visio, SVG Export comprends.svg Page-4 -->
<svg xmlns="http://www.w3.org/2000/svg" xmlns:xlink="http://www.w3.org/1999/xlink" xmlns:ev="http://www.w3.org/2001/xml-events"
		xmlns:v="http://schemas.microsoft.com/visio/2003/SVGExtensions/" width="5.92021in" height="4.28896in"
		viewBox="0 0 426.255 308.805" xml:space="preserve" color-interpolation-filters="sRGB" class="st7">
	<v:documentProperties v:langID="4105" v:metric="true" v:viewMarkup="false">
		<v:userDefs>
			<v:ud v:nameU="msvNoAutoConnect" v:val="VT0(1):26"/>
		</v:userDefs>
	</v:documentProperties>

	<style type="text/css">
	<![CDATA[
		.st1 {marker-end:url(#mrkr4-6);stroke:#000000;stroke-linecap:round;stroke-linejoin:round;stroke-width:0.75}
		.st2 {fill:#000000;fill-opacity:1;stroke:#000000;stroke-opacity:1;stroke-width:0.22935779816514}
		.st3 {stroke:#0000ff;stroke-linecap:round;stroke-linejoin:round;stroke-width:0.75}
		.st4 {fill:none;stroke:none;stroke-linecap:round;stroke-linejoin:round;stroke-width:0.75}
		.st5 {fill:#000000;font-family:Calibri;font-size:1.00001em}
		.st6 {font-size:1em}
		.st7 {fill:none;fill-rule:evenodd;font-size:12px;overflow:visible;stroke-linecap:square;stroke-miterlimit:3}
	]]>
	</style>

	<defs id="Markers">
		<g id="lend4">
			<path d="M 2 1 L 0 0 L 2 -1 L 2 1 " style="stroke:none"/>
		</g>
		<marker id="mrkr4-6" class="st2" v:arrowType="4" v:arrowSize="2" v:setback="8.72" refX="-8.72" orient="auto"
				markerUnits="strokeWidth" overflow="visible">
			<use xlink:href="#lend4" transform="scale(-4.36,-4.36) "/>
		</marker>
	</defs>
	<g v:mID="8" v:index="4" v:groupContext="foregroundPage">
		<title>Page-4</title>
		<v:pageProperties v:drawingScale="0.0393701" v:pageScale="0.0393701" v:drawingUnits="24" v:shadowOffsetX="8.50394"
				v:shadowOffsetY="-8.50394"/>
		<g id="shape1001-1" v:mID="1001" v:groupContext="shape" transform="translate(24.031,-57.9865) rotate(-0.237674)">
			<title>Sheet.1001</title>
			<path d="M0 308.81 L316.15 308.81" class="st1"/>
		</g>
		<g id="shape1002-7" v:mID="1002" v:groupContext="shape" transform="translate(-283.493,283.493) rotate(-90)">
			<title>Sheet.1002</title>
			<path d="M0 308.81 L248.58 308.81" class="st1"/>
		</g>
		<g id="shape1004-12" v:mID="1004" v:groupContext="shape" transform="translate(293.442,-161.375)">
			<title>Sheet.1004</title>
			<path d="M0 308.81 L1.86 303.43 L6.19 291.24 L11.63 276.48 L17.31 261.81 L22.71 248.71 L27.57 237.84 L31.86 229.21 L35.7
						 222.52 L39.25 217.31 L42.66 213.21 L46.03 210 L49.4 207.63 L53.89 206.76" class="st3"/>
		</g>
		<g id="shape1007-15" v:mID="1007" v:groupContext="shape" transform="translate(25.9773,-64.997)">
			<title>Sheet.1007</title>
			<path d="M53.89 206.76 L52.03 212.14 L47.71 224.33 L42.26 239.08 L36.58 253.75 L31.18 266.85 L26.32 277.73 L22.03 286.35
						 L18.2 293.05 L14.65 298.26 L11.23 302.36 L7.86 305.56 L4.49 307.93 L0 308.81" class="st3"/>
		</g>
		<g id="shape1009-18" v:mID="1009" v:groupContext="shape" transform="translate(79.8695,-167.044) scale(-1,1)">
			<title>Sheet.1009</title>
		</g>
		<g id="group1030-20" transform="translate(78.8715,-62.1623)" v:mID="1030" v:groupContext="group">
			<v:userDefs>
				<v:ud v:nameU="State1" v:prompt="" v:val="VT0(0):26"/>
			</v:userDefs>
			<title>Sheet.1030</title>
			<g id="shape1031-21" v:mID="1031" v:groupContext="shape" transform="translate(0,-102.047)">
				<title>Sheet.1031</title>
				<path d="M0 308.81 L1.86 303.43 L6.19 291.24 L11.63 276.48 L17.31 261.81 L22.71 248.71 L27.57 237.84 L31.86 229.21
							 L35.7 222.52 L39.25 217.31 L42.66 213.21 L46.03 210 L49.4 207.63 L53.89 206.76" class="st3"/>
			</g>
			<g id="shape1032-24" v:mID="1032" v:groupContext="shape" transform="translate(53.8922,-102.047)">
				<title>Sheet.1032</title>
				<path d="M53.89 308.81 L52.03 303.43 L47.71 291.24 L42.26 276.48 L36.58 261.81 L31.18 248.71 L26.32 237.84 L22.03
							 229.21 L18.2 222.52 L14.65 217.31 L11.23 213.21 L7.86 210 L4.49 207.63 L0 206.76" class="st3"/>
			</g>
			<g id="shape1033-27" v:mID="1033" v:groupContext="shape" transform="translate(107.784,0)">
				<title>Sheet.1033</title>
				<path d="M0 206.76 L1.86 212.14 L6.19 224.33 L11.63 239.08 L17.31 253.75 L22.71 266.85 L27.57 277.73 L31.86 286.35
							 L35.7 293.05 L39.25 298.26 L42.66 302.36 L46.03 305.56 L49.4 307.93 L53.89 308.81" class="st3"/>
			</g>
			<g id="shape1034-30" v:mID="1034" v:groupContext="shape" transform="translate(161.677,0)">
				<title>Sheet.1034</title>
				<path d="M53.89 206.76 L52.03 212.14 L47.71 224.33 L42.26 239.08 L36.58 253.75 L31.18 266.85 L26.32 277.73 L22.03
							 286.35 L18.2 293.05 L14.65 298.26 L11.23 302.36 L7.86 305.56 L4.49 307.93 L0 308.81" class="st3"/>
			</g>
		</g>
		<g id="shape1035-33" v:mID="1035" v:groupContext="shape" transform="translate(22.5179,-28.3465)">
			<title>Sheet.1035</title>
			<desc>Je comprends rien</desc>
			<v:textBlock v:margins="rect(4,4,4,4)" v:tabSpace="42.5197"/>
			<v:textRect cx="44.596" cy="298.805" width="89.2" height="20"/>
			<rect x="0" y="288.805" width="89.192" height="20" class="st4"/>
			<text x="10.97" y="295.21" class="st5" v:langID="4105"><v:paragraph v:horizAlign="1"/><v:tabList/>Je comprends <tspan
						x="34.99" dy="1.2em" class="st6">rien</tspan></text>		</g>
		<g id="shape1036-37" v:mID="1036" v:groupContext="shape" transform="translate(88.345,-270.43)">
			<title>Sheet.1036</title>
			<desc>J’ai tout compris</desc>
			<v:textBlock v:margins="rect(4,4,4,4)" v:tabSpace="42.5197"/>
			<v:textRect cx="44.596" cy="298.805" width="89.2" height="20"/>
			<rect x="0" y="288.805" width="89.192" height="20" class="st4"/>
			<text x="4.42" y="302.41" class="st5" v:langID="4105"><v:paragraph v:horizAlign="1"/><v:tabList/>J’ai tout compris</text>		</g>
		<g id="shape1037-40" v:mID="1037" v:groupContext="shape" transform="translate(318.688,-50.6663)">
			<title>Sheet.1037</title>
			<desc>Temps</desc>
			<v:textBlock v:margins="rect(4,4,4,4)" v:tabSpace="42.5197"/>
			<v:textRect cx="44.596" cy="298.805" width="89.2" height="20"/>
			<rect x="0" y="288.805" width="89.192" height="20" class="st4"/>
			<text x="28.39" y="302.41" class="st5" v:langID="4105"><v:paragraph v:horizAlign="1"/><v:tabList/>Temps</text>		</g>
		<g id="shape1038-43" v:mID="1038" v:groupContext="shape" transform="translate(205.248,-28.3465)">
			<title>Sheet.1038</title>
			<desc>Je comprends rien</desc>
			<v:textBlock v:margins="rect(4,4,4,4)" v:tabSpace="42.5197"/>
			<v:textRect cx="44.596" cy="298.805" width="89.2" height="20"/>
			<rect x="0" y="288.805" width="89.192" height="20" class="st4"/>
			<text x="10.97" y="295.21" class="st5" v:langID="4105"><v:paragraph v:horizAlign="1"/><v:tabList/>Je comprends <tspan
						x="34.99" dy="1.2em" class="st6">rien</tspan></text>		</g>
		<g id="shape1039-47" v:mID="1039" v:groupContext="shape" transform="translate(297.297,-260.787)">
			<title>Sheet.1039</title>
			<desc>J’ai tout compris</desc>
			<v:textBlock v:margins="rect(4,4,4,4)" v:tabSpace="42.5197"/>
			<v:textRect cx="44.596" cy="298.805" width="89.2" height="20"/>
			<rect x="0" y="288.805" width="89.192" height="20" class="st4"/>
			<text x="4.42" y="302.41" class="st5" v:langID="4105"><v:paragraph v:horizAlign="1"/><v:tabList/>J’ai tout compris</text>		</g>
	</g>
</svg>
