<?xml version="1.0" encoding="UTF-8" standalone="no"?>
<!DOCTYPE svg PUBLIC "-//W3C//DTD SVG 1.1//EN" "http://www.w3.org/Graphics/SVG/1.1/DTD/svg11.dtd">
<!-- Generated by Microsoft Visio, SVG Export frustrum.svg Page-5 -->
<svg xmlns="http://www.w3.org/2000/svg" xmlns:xlink="http://www.w3.org/1999/xlink" xmlns:ev="http://www.w3.org/2001/xml-events"
		xmlns:v="http://schemas.microsoft.com/visio/2003/SVGExtensions/" width="4.94508in" height="4.37597in"
		viewBox="0 0 356.046 315.07" xml:space="preserve" color-interpolation-filters="sRGB" class="st15">
	<v:documentProperties v:langID="4105" v:metric="true" v:viewMarkup="false">
		<v:userDefs>
			<v:ud v:nameU="msvNoAutoConnect" v:val="VT0(1):26"/>
		</v:userDefs>
	</v:documentProperties>

	<style type="text/css">
	<![CDATA[
		.st1 {fill:#dbeef3;fill-opacity:0.6;stroke:#000000;stroke-linecap:round;stroke-linejoin:round;stroke-width:0.75}
		.st2 {stroke:#000000;stroke-linecap:round;stroke-linejoin:round;stroke-width:0.75}
		.st3 {fill:#ff00ff;fill-opacity:0;stroke:#000000;stroke-linecap:round;stroke-linejoin:round;stroke-opacity:0;stroke-width:0.72}
		.st4 {fill:url(#grad12-30);stroke:#ffffff;stroke-linecap:round;stroke-linejoin:round;stroke-width:0.72}
		.st5 {fill:#000000;fill-opacity:0.25;stroke:#000000;stroke-linecap:round;stroke-linejoin:round;stroke-width:0.24}
		.st6 {fill:url(#grad0-40);stroke:#ffffff;stroke-linecap:round;stroke-linejoin:round;stroke-width:0.72}
		.st7 {fill:url(#grad11-44);stroke:#000000;stroke-linecap:round;stroke-linejoin:round;stroke-width:0.72}
		.st8 {fill:url(#grad12-30);stroke:#ffffff;stroke-linecap:round;stroke-linejoin:round;stroke-width:0.24}
		.st9 {fill:url(#grad0-40);stroke:#ffffff;stroke-linecap:round;stroke-linejoin:round;stroke-width:0.24}
		.st10 {fill:url(#grad0-65);stroke:#000000;stroke-linecap:round;stroke-linejoin:round;stroke-width:0.72}
		.st11 {fill:url(#grad11-44);stroke:#000000;stroke-linecap:round;stroke-linejoin:round;stroke-width:0.24}
		.st12 {fill:url(#grad10-81);stroke:#000000;stroke-linecap:round;stroke-linejoin:round;stroke-width:0.72}
		.st13 {stroke:#000000;stroke-linecap:round;stroke-linejoin:round;stroke-width:1.5}
		.st14 {fill:#dbeef3;fill-opacity:0.81;stroke:#000000;stroke-linecap:round;stroke-linejoin:round;stroke-width:0.75}
		.st15 {fill:none;fill-rule:evenodd;font-size:12px;overflow:visible;stroke-linecap:square;stroke-miterlimit:3}
	]]>
	</style>

	<defs id="Patterns_And_Gradients">
		<pattern id="grad12-30" x="0" y="0" width="1" height="1" patternContentUnits="objectBoundingBox">
			<path d="M 0 0 L 0 1 L 1 1 z" style="fill:url(#grad0-31)"/>
			<path d="M 0 0 L 1 0 L 1 1 z" style="fill:url(#grad0-32)"/>
		</pattern>
		<linearGradient id="grad0-31" x1="0" y1="0" x2="1" y2="0" gradientTransform="rotate(90 0.5 0.5)">
			<stop offset="0" stop-color="#ffffff" stop-opacity="1"/>
			<stop offset="1" stop-color="#969696" stop-opacity="1"/>
		</linearGradient>
		<linearGradient id="grad0-32" x1="0" y1="0" x2="1" y2="0" gradientTransform="rotate(360 0.5 0.5)">
			<stop offset="0" stop-color="#ffffff" stop-opacity="1"/>
			<stop offset="1" stop-color="#969696" stop-opacity="1"/>
		</linearGradient>
		<linearGradient id="grad0-40" x1="0" y1="0" x2="1" y2="0" gradientTransform="rotate(270 0.5 0.5)">
			<stop offset="0" stop-color="#ffffff" stop-opacity="1"/>
			<stop offset="1" stop-color="#dddddd" stop-opacity="1"/>
		</linearGradient>
		<pattern id="grad11-44" x="0" y="0" width="1" height="1" patternContentUnits="objectBoundingBox">
			<path d="M 0 1 L 0 0 L 1 0 z" style="fill:url(#grad0-45)"/>
			<path d="M 0 1 L 1 1 L 1 0 z" style="fill:url(#grad0-46)"/>
		</pattern>
		<linearGradient id="grad0-45" x1="0" y1="0" x2="1" y2="0" gradientTransform="rotate(180 0.5 0.5)">
			<stop offset="0" stop-color="#ffffff" stop-opacity="1"/>
			<stop offset="1" stop-color="#c0c0c0" stop-opacity="1"/>
		</linearGradient>
		<linearGradient id="grad0-46" x1="0" y1="0" x2="1" y2="0" gradientTransform="rotate(90 0.5 0.5)">
			<stop offset="0" stop-color="#ffffff" stop-opacity="1"/>
			<stop offset="1" stop-color="#c0c0c0" stop-opacity="1"/>
		</linearGradient>
		<linearGradient id="grad0-65" x1="0" y1="0" x2="1" y2="0" gradientTransform="rotate(180 0.5 0.5)">
			<stop offset="0.01" stop-color="#c0c0c0" stop-opacity="1"/>
			<stop offset="0.5" stop-color="#ffffff" stop-opacity="1"/>
			<stop offset="1" stop-color="#c0c0c0" stop-opacity="1"/>
		</linearGradient>
		<pattern id="grad10-81" x="0" y="0" width="1" height="1" patternContentUnits="objectBoundingBox">
			<path d="M 0.5 0.5 L 0 0 L 0 1 z" style="fill:url(#grad0-82)"/>
			<path d="M 0.5 0.5 L 1 0 L 1 1 z" style="fill:url(#grad0-83)"/>
			<path d="M 0.5 0.5 L 0 0 L 1 0 z" style="fill:url(#grad0-84)"/>
			<path d="M 0.5 0.5 L 0 1 L 1 1 z" style="fill:url(#grad0-85)"/>
		</pattern>
		<linearGradient id="grad0-82" x1="0" y1="0" x2="1" y2="0" gradientTransform="rotate(180 0.5 0.5)">
			<stop offset="0" stop-color="#ffffff" stop-opacity="1"/>
			<stop offset="1" stop-color="#c6d1e3" stop-opacity="1"/>
		</linearGradient>
		<linearGradient id="grad0-83" x1="0" y1="0" x2="1" y2="0" gradientTransform="rotate(360 0.5 0.5)">
			<stop offset="0" stop-color="#ffffff" stop-opacity="1"/>
			<stop offset="1" stop-color="#c6d1e3" stop-opacity="1"/>
		</linearGradient>
		<linearGradient id="grad0-84" x1="0" y1="0" x2="1" y2="0" gradientTransform="rotate(270 0.5 0.5)">
			<stop offset="0" stop-color="#ffffff" stop-opacity="1"/>
			<stop offset="1" stop-color="#c6d1e3" stop-opacity="1"/>
		</linearGradient>
		<linearGradient id="grad0-85" x1="0" y1="0" x2="1" y2="0" gradientTransform="rotate(90 0.5 0.5)">
			<stop offset="0" stop-color="#ffffff" stop-opacity="1"/>
			<stop offset="1" stop-color="#c6d1e3" stop-opacity="1"/>
		</linearGradient>
	</defs>
	<g v:mID="9" v:index="5" v:groupContext="foregroundPage">
		<title>Page-5</title>
		<v:pageProperties v:drawingScale="0.0393701" v:pageScale="0.0393701" v:drawingUnits="24" v:shadowOffsetX="8.50394"
				v:shadowOffsetY="-8.50394"/>
		<g id="shape1020-1" v:mID="1020" v:groupContext="shape" transform="translate(212.946,-160.632)">
			<title>Sheet.1020</title>
			<path d="M0 213.02 L11.34 292.39 L96.38 315.07 L85.04 224.36 L0 213.02 Z" class="st1"/>
		</g>
		<g id="shape1021-3" v:mID="1021" v:groupContext="shape" transform="translate(39.1588,-73.3687) rotate(-22.9321)">
			<title>Sheet.1021</title>
			<path d="M0 315.07 L160.05 315.07" class="st2"/>
		</g>
		<g id="shape1022-6" v:mID="1022" v:groupContext="shape" transform="translate(-53.7886,-57.6095) rotate(-35.2176)">
			<title>Sheet.1022</title>
			<path d="M0 315.07 L117.97 315.07" class="st2"/>
		</g>
		<g id="shape1023-9" v:mID="1023" v:groupContext="shape" transform="translate(-118.763,-42.8404) rotate(-49.8991)">
			<title>Sheet.1023</title>
			<path d="M0 315.07 L140.82 315.07" class="st2"/>
		</g>
		<g id="shape1024-12" v:mID="1024" v:groupContext="shape" transform="translate(-34.3902,-79.4007) rotate(-37.2348)">
			<title>Sheet.1024</title>
			<path d="M0 315.07 L178.02 315.07" class="st2"/>
		</g>
		<g id="shape1025-15" v:mID="1025" v:groupContext="shape" transform="translate(278.937,509.335) rotate(158.199)">
			<title>Sheet.1025</title>
			<path d="M0 315.07 L122.12 315.07" class="st2"/>
		</g>
		<g id="shape1026-18" v:mID="1026" v:groupContext="shape" transform="translate(314.983,453.311) rotate(143.576)">
			<title>Sheet.1026</title>
			<path d="M0 315.07 L114.74 315.07" class="st2"/>
		</g>
		<g id="shape1027-21" v:mID="1027" v:groupContext="shape" transform="translate(375.014,348.185) rotate(126.651)">
			<title>Sheet.1027</title>
			<path d="M0 315.07 L121.25 315.07" class="st2"/>
		</g>
		<g id="group1000-24" transform="translate(-205.513,109.233) rotate(-60) scale(-1,1)" v:mID="1000" v:groupContext="group">
			<v:custProps>
				<v:cp v:nameU="ShapeClass" v:lbl="ShapeClass" v:type="0" v:invis="true" v:ask="false" v:langID="1033"
						v:val="VT4(Equipment)"/>
				<v:cp v:nameU="ShapeType" v:lbl="ShapeType" v:type="0" v:invis="true" v:ask="false" v:langID="1033"
						v:val="VT4(Video)"/>
				<v:cp v:nameU="Manufacturer" v:lbl="Manufacturer" v:type="0" v:sortKey="Equipment" v:invis="false" v:ask="false"
						v:langID="1033"/>
				<v:cp v:nameU="ProductNumber" v:lbl="Product Number" v:type="0" v:sortKey="Equipment" v:invis="false" v:ask="false"
						v:langID="1033"/>
				<v:cp v:nameU="PartNumber" v:lbl="Part Number" v:type="0" v:sortKey="Equipment" v:invis="false" v:ask="false"
						v:langID="1033"/>
				<v:cp v:nameU="ProductDescription" v:lbl="Product Description" v:type="0" v:sortKey="Equipment" v:invis="false"
						v:ask="false" v:langID="1033"/>
				<v:cp v:nameU="AssetNumber" v:lbl="Asset Number" v:type="0" v:sortKey="Asset" v:invis="false" v:ask="false"
						v:langID="1033"/>
				<v:cp v:nameU="SerialNumber" v:lbl="Serial Number" v:type="0" v:sortKey="Asset" v:invis="false" v:ask="false"
						v:langID="1033"/>
				<v:cp v:nameU="Location" v:lbl="Location" v:type="0" v:sortKey="Asset" v:invis="false" v:ask="false"
						v:langID="1033"/>
				<v:cp v:nameU="Building" v:lbl="Building" v:type="0" v:sortKey="Asset" v:invis="false" v:ask="false"
						v:langID="1033"/>
				<v:cp v:nameU="Room" v:lbl="Room" v:type="0" v:sortKey="Asset" v:invis="false" v:ask="false" v:langID="1033"/>
			</v:custProps>
			<v:userDefs>
				<v:ud v:nameU="HasText" v:val="VT0(0):5"/>
				<v:ud v:nameU="ShapeClass" v:val="VT0(5):26"/>
				<v:ud v:nameU="ShapeType" v:val="VT0(29):26"/>
				<v:ud v:nameU="SolSH" v:val="VT15({BF0433D9-CD73-4EB5-8390-8653BE590246}):41"/>
				<v:ud v:nameU="visLegendShape" v:val="VT0(2):26"/>
				<v:ud v:nameU="visVersion" v:prompt="" v:val="VT0(15):26"/>
			</v:userDefs>
			<title>Video camera.1000</title>
			<g id="shape1001-25" v:mID="1001" v:groupContext="shape">
				<title>Sheet.1001</title>
				<path d="M6.34 313.85 L7.05 313.44 L9.87 315.07 L19.56 309.43 L29.36 315.07 L31.17 314.02 L31.18 299.35 L30.4 298.9
							 L30.4 283.37 A2.23604 2.23604 -180 0 0 30.04 281.97 A2.54557 2.54557 -180 0 0 28.99 280.99 L27.58 280.17
							 L27.58 279.35 L23.11 277.08 L22.69 277.32 L21.7 276.74 A2.18929 2.18929 -180 0 0 19.36 276.74 L1.56
							 287.01 A3.96815 3.96815 -180 0 0 0.42 288.31 A3.54422 3.54422 -180 0 0 0 289.87 L0 309.35 L2.11 310.57
							 L2.11 311.4 L6.34 313.85 Z" class="st3"/>
			</g>
			<g id="shape1002-27" v:mID="1002" v:groupContext="shape" transform="translate(9.87402,-1.7053E-13)">
				<title>Sheet.1002</title>
				<path d="M0 315.07 L20.53 303.12 L20.53 283.37 A2.23604 2.23604 -180 0 0 20.16 281.97 L0 293.76 L0 315.07 Z"
						class="st4"/>
			</g>
			<g id="shape1003-33" v:mID="1003" v:groupContext="shape" transform="translate(26.5039,-17.1496)">
				<title>Sheet.1003</title>
				<path d="M0 313.77 L2.08 315.07 L2.08 302.08 L0 303.38 L0 313.77 Z" class="st5"/>
			</g>
			<g id="shape1004-35" v:mID="1004" v:groupContext="shape" transform="translate(17.4094,-18.4488)">
				<title>Sheet.1004</title>
				<path d="M0 309.87 L9.09 315.07 L9.09 304.68 L0 309.87 Z" class="st5"/>
			</g>
			<g id="shape1005-37" v:mID="1005" v:groupContext="shape" transform="translate(0.415748,-21.3071)">
				<title>Sheet.1005</title>
				<path d="M0 309.61 L9.46 315.07 L29.62 303.27 A2.54557 2.54557 -180 0 0 28.58 302.3 L21.28 298.05 A2.18929 2.18929
							 -180 0 0 18.94 298.05 L1.14 308.31 A3.96815 3.96815 -180 0 0 -0 309.61 Z" class="st6"/>
			</g>
			<g id="shape1006-41" v:mID="1006" v:groupContext="shape">
				<title>Sheet.1006</title>
				<path d="M0 309.35 L9.87 315.07 L9.87 293.76 L0.42 288.31 A3.54422 3.54422 -180 0 0 -0 289.87 L0 309.35 Z"
						class="st7"/>
			</g>
			<g id="shape1007-47" v:mID="1007" v:groupContext="shape" transform="translate(29.3622,-1.7053E-13)">
				<title>Sheet.1007</title>
				<path d="M0 315.07 L1.81 314.02 L1.82 299.35 L0.01 300.39 L0 315.07 Z" class="st4"/>
			</g>
			<g id="shape1008-50" v:mID="1008" v:groupContext="shape" transform="translate(15.5906,-14.6757)">
				<title>Sheet.1008</title>
				<path d="M13.78 315.07 L15.59 314.02 L1.82 306.1 L0 307.14 L13.78 315.07 Z" class="st6"/>
			</g>
			<g id="shape1009-53" v:mID="1009" v:groupContext="shape" transform="translate(15.5812,0)">
				<title>Sheet.1009</title>
				<path d="M0 307.14 L13.78 315.07 L13.79 300.39 L0.01 292.46 L0 307.14 Z" class="st7"/>
			</g>
			<g id="shape1010-56" v:mID="1010" v:groupContext="shape" transform="translate(6.33807,-22.9404)">
				<title>Sheet.1010</title>
				<path d="M0 314.66 L0.71 315.07 L21.24 303.12 L21.24 302.29 L0 314.66 Z" class="st8"/>
			</g>
			<g id="shape1011-59" v:mID="1011" v:groupContext="shape" transform="translate(2.10634,-23.3531)">
				<title>Sheet.1011</title>
				<path d="M0 312.62 L4.23 315.07 L25.47 302.7 L21 300.43 L0 312.62 Z" class="st9"/>
			</g>
			<g id="shape1012-62" v:mID="1012" v:groupContext="shape" transform="translate(14.8688,-11.8812)">
				<title>Sheet.1012</title>
				<path d="M0 314.8 a1.0465 0.994157 -180 0 0 1.44344 0 L1.44 308.76 a1.0465 0.994157 0 0 1 -1.44344 0 L0 314.8 Z"
						class="st10"/>
			</g>
			<g id="shape1013-66" v:mID="1013" v:groupContext="shape" transform="translate(6.33807,-1.2206)">
				<title>Sheet.1013</title>
				<path d="M0 315.07 L0.71 314.66 L0.71 293.35 L0 292.94 L0 315.07 Z" class="st8"/>
			</g>
			<g id="shape1014-69" v:mID="1014" v:groupContext="shape" transform="translate(2.10634,-1.2206)">
				<title>Sheet.1014</title>
				<path d="M0 312.62 L4.23 315.07 L4.23 292.94 L0 290.49 L0 312.62 Z" class="st7"/>
			</g>
			<g id="shape1015-72" v:mID="1015" v:groupContext="shape" transform="translate(0.96805,-12.9927)">
				<title>Sheet.1015</title>
				<path d="M1.04 306.13 L0 306.73 A4.82266 2.67722 59.88 0 1 4.85 315.07 L6.42 314.17 A4.82256 2.67716 -120 0 0 6.04
							 308.2 L5.29 308.62 A12.9332 4.62366 -106.7 0 0 1.04 306.13 Z" class="st8"/>
			</g>
			<g id="shape1016-75" v:mID="1016" v:groupContext="shape" transform="translate(-154.061,30.5727) rotate(-30)">
				<title>Sheet.1016</title>
				<ellipse cx="2.67716" cy="310.247" rx="2.67716" ry="4.82256" class="st11"/>
			</g>
			<g id="shape1017-78" v:mID="1017" v:groupContext="shape" transform="translate(-154.048,28.962) rotate(-30)">
				<title>Sheet.1017</title>
				<ellipse cx="1.88039" cy="311.682" rx="1.88039" ry="3.38728" class="st12"/>
			</g>
			<g id="shape1018-86" v:mID="1018" v:groupContext="shape">
				<title>Sheet.1018</title>
				<path d="M21.7 276.74 A2.12451 2.01826 -163.55 0 0 19.36 276.74 L1.56 287.01 A3.88753 3.69309 -4.33 0 0 0 289.87
							 L0 309.35 L2.08 310.52 L2.11 311.4 L6.34 313.85 L7.05 313.44 L9.87 315.07 L19.49 309.35 L29.36 315.07
							 L31.17 314.02 L31.18 299.35 L30.4 298.91 L30.4 283.37 A2.74969 2.61217 -10.89 0 0 28.99 280.99 L27.58
							 280.18 L27.58 279.35 L23.35 276.9 L22.66 277.29 L21.7 276.74" class="st13"/>
			</g>
		</g>
		<g id="shape1019-89" v:mID="1019" v:groupContext="shape" transform="translate(122.238,-98.2695)">
			<title>Sheet.1019</title>
			<path d="M0 258.38 L5.67 298.06 L39.69 315.07 L34.02 269.72 L0 258.38 Z" class="st14"/>
		</g>
		<g id="shape1028-91" v:mID="1028" v:groupContext="shape" transform="translate(354.231,416.546) rotate(141.071)">
			<title>Sheet.1028</title>
			<path d="M0 315.07 L136.77 315.07" class="st2"/>
		</g>
		<g id="shape1029-94" v:mID="1029" v:groupContext="shape" transform="translate(-9.84178,-170.397) rotate(-45)">
			<title>Sheet.1029</title>
			<path d="M0 315.07 L48.11 315.07" class="st2"/>
		</g>
		<g id="shape1030-97" v:mID="1030" v:groupContext="shape" transform="translate(123.216,-198.425) rotate(-33.6901)">
			<title>Sheet.1030</title>
			<path d="M0 315.07 L40.88 315.07" class="st2"/>
		</g>
		<g id="shape1031-100" v:mID="1031" v:groupContext="shape" transform="translate(192.31,-138.097) rotate(-21.8014)">
			<title>Sheet.1031</title>
			<path d="M0 315.07 L30.53 315.07" class="st2"/>
		</g>
	</g>
</svg>
