<?xml version="1.0" encoding="UTF-8" standalone="no"?>
<!DOCTYPE svg PUBLIC "-//W3C//DTD SVG 1.1//EN" "http://www.w3.org/Graphics/SVG/1.1/DTD/svg11.dtd">
<!-- Generated by Microsoft Visio, SVG Export blocage.svg Page-1 -->
<svg xmlns="http://www.w3.org/2000/svg" xmlns:xlink="http://www.w3.org/1999/xlink" xmlns:ev="http://www.w3.org/2001/xml-events"
		xmlns:v="http://schemas.microsoft.com/visio/2003/SVGExtensions/" width="6.00174in" height="2.04248in"
		viewBox="0 0 432.125 147.058" xml:space="preserve" color-interpolation-filters="sRGB" class="st46">
	<v:documentProperties v:langID="1033" v:viewMarkup="false"/>

	<style type="text/css">
	<![CDATA[
		.st1 {fill:#000000;fill-opacity:0}
		.st2 {stroke:none;stroke-linecap:butt;stroke-width:0.75}
		.st3 {fill:url(#grad7-8);stroke:none;stroke-linecap:round;stroke-linejoin:round;stroke-width:0.75}
		.st4 {fill:url(#grad0-12);stroke:none;stroke-linecap:round;stroke-linejoin:round;stroke-width:0.75}
		.st5 {fill:url(#grad10-16);stroke:none;stroke-linecap:round;stroke-linejoin:round;stroke-width:0.75}
		.st6 {fill:url(#grad0-24)}
		.st7 {stroke:none;stroke-linecap:round;stroke-linejoin:round;stroke-width:0.75}
		.st8 {fill:url(#grad3-29)}
		.st9 {stroke:#996633;stroke-linecap:butt;stroke-width:0.375}
		.st10 {fill:none}
		.st11 {stroke:#295687;stroke-linecap:round;stroke-linejoin:round;stroke-width:0.375}
		.st12 {fill:none;stroke:#000000;stroke-linecap:round;stroke-linejoin:round;stroke-width:0.72}
		.st13 {fill:#000000;fill-opacity:0;stroke:none;stroke-linecap:round;stroke-linejoin:round;stroke-width:0.75}
		.st14 {fill:#cc6633}
		.st15 {fill:url(#grad0-45)}
		.st16 {fill:url(#grad5-50);stroke:none;stroke-linecap:round;stroke-linejoin:round;stroke-width:0.75}
		.st17 {fill:#cc6633;stroke:#cc6633;stroke-linecap:butt;stroke-width:0.2175}
		.st18 {fill:url(#grad9-56);stroke:#295687;stroke-linecap:round;stroke-linejoin:round;stroke-width:0.375}
		.st19 {fill:url(#grad7-8)}
		.st20 {fill:url(#grad0-12)}
		.st21 {fill:url(#grad10-16)}
		.st22 {fill:#658eb8;stroke:none;stroke-linecap:round;stroke-linejoin:round;stroke-width:0.75}
		.st23 {fill:url(#grad2-76);stroke:none;stroke-linecap:round;stroke-linejoin:round;stroke-width:0.75}
		.st24 {fill:#7bb4d2;stroke:none;stroke-linecap:round;stroke-linejoin:round;stroke-width:0.75}
		.st25 {fill:#7bb4d2}
		.st26 {stroke:#d75139;stroke-linecap:butt;stroke-width:0.375}
		.st27 {fill:#ffffff}
		.st28 {fill:#295687}
		.st29 {stroke:#295687;stroke-linecap:butt;stroke-width:0.2175}
		.st30 {fill:url(#grad5-105);stroke:#295687;stroke-linecap:butt;stroke-width:0.375}
		.st31 {fill:url(#grad10-109);stroke:#295687;stroke-linecap:butt;stroke-width:0.375}
		.st32 {fill:#295687;stroke:#295687;stroke-linecap:butt;stroke-width:0.3732}
		.st33 {fill:none;stroke:none;stroke-linecap:round;stroke-linejoin:round;stroke-width:0.75}
		.st34 {fill:#000000;font-family:Calibri;font-size:0.499992em}
		.st35 {stroke:#595959;stroke-linecap:round;stroke-linejoin:round;stroke-width:1}
		.st36 {fill:#000000;font-family:Calibri;font-size:0.666664em}
		.st37 {fill:#ffffff;stroke:#000000;stroke-linecap:round;stroke-linejoin:round;stroke-width:0.75}
		.st38 {stroke:#000000;stroke-dasharray:5.25,3.75;stroke-linecap:round;stroke-linejoin:round;stroke-width:0.75}
		.st39 {fill:#000000;font-family:Calibri;font-size:0.499992em;font-weight:bold}
		.st40 {marker-end:url(#mrkr3-276);stroke:#0070c0;stroke-linecap:round;stroke-linejoin:round;stroke-width:1.25}
		.st41 {fill:#0070c0;fill-opacity:1;stroke:#0070c0;stroke-opacity:1;stroke-width:0.3315649867374}
		.st42 {marker-end:url(#mrkr3-282);stroke:#00b050;stroke-linecap:round;stroke-linejoin:round;stroke-width:1.25}
		.st43 {fill:#00b050;fill-opacity:1;stroke:#00b050;stroke-opacity:1;stroke-width:0.3315649867374}
		.st44 {font-size:1em}
		.st45 {stroke:#000000;stroke-linecap:round;stroke-linejoin:round;stroke-width:0.24}
		.st46 {fill:none;fill-rule:evenodd;font-size:12px;overflow:visible;stroke-linecap:square;stroke-miterlimit:3}
	]]>
	</style>

	<defs id="Patterns_And_Gradients">
		<radialGradient id="grad7-8" cx="0" cy="0" r="1.4">
			<stop offset="0" stop-color="#e1f4f9" stop-opacity="1"/>
			<stop offset="1" stop-color="#7bb4d2" stop-opacity="1"/>
		</radialGradient>
		<linearGradient id="grad0-12" x1="0" y1="0" x2="1" y2="0" gradientTransform="rotate(0 0.5 0.5)">
			<stop offset="0" stop-color="#f7f3e8" stop-opacity="1"/>
			<stop offset="1" stop-color="#b7e4ee" stop-opacity="1"/>
		</linearGradient>
		<pattern id="grad10-16" x="0" y="0" width="1" height="1" patternContentUnits="objectBoundingBox">
			<path d="M 0.5 0.5 L 0 0 L 0 1 z" style="fill:url(#grad0-17)"/>
			<path d="M 0.5 0.5 L 1 0 L 1 1 z" style="fill:url(#grad0-18)"/>
			<path d="M 0.5 0.5 L 0 0 L 1 0 z" style="fill:url(#grad0-19)"/>
			<path d="M 0.5 0.5 L 0 1 L 1 1 z" style="fill:url(#grad0-20)"/>
		</pattern>
		<linearGradient id="grad0-17" x1="0" y1="0" x2="1" y2="0" gradientTransform="rotate(180 0.5 0.5)">
			<stop offset="0" stop-color="#b7e4ee" stop-opacity="1"/>
			<stop offset="1" stop-color="#7bb4d2" stop-opacity="1"/>
		</linearGradient>
		<linearGradient id="grad0-18" x1="0" y1="0" x2="1" y2="0" gradientTransform="rotate(360 0.5 0.5)">
			<stop offset="0" stop-color="#b7e4ee" stop-opacity="1"/>
			<stop offset="1" stop-color="#7bb4d2" stop-opacity="1"/>
		</linearGradient>
		<linearGradient id="grad0-19" x1="0" y1="0" x2="1" y2="0" gradientTransform="rotate(270 0.5 0.5)">
			<stop offset="0" stop-color="#b7e4ee" stop-opacity="1"/>
			<stop offset="1" stop-color="#7bb4d2" stop-opacity="1"/>
		</linearGradient>
		<linearGradient id="grad0-20" x1="0" y1="0" x2="1" y2="0" gradientTransform="rotate(90 0.5 0.5)">
			<stop offset="0" stop-color="#b7e4ee" stop-opacity="1"/>
			<stop offset="1" stop-color="#7bb4d2" stop-opacity="1"/>
		</linearGradient>
		<linearGradient id="grad0-24" x1="0" y1="0" x2="1" y2="0" gradientTransform="rotate(0 0.5 0.5)">
			<stop offset="0" stop-color="#7bb4d2" stop-opacity="1"/>
			<stop offset="1" stop-color="#658eb8" stop-opacity="1"/>
		</linearGradient>
		<radialGradient id="grad3-29" cx="0.5" cy="0.5" r="0.73">
			<stop offset="0" stop-color="#ffffff" stop-opacity="1"/>
			<stop offset="1" stop-color="#da8c36" stop-opacity="1"/>
		</radialGradient>
		<linearGradient id="grad0-45" x1="0" y1="0" x2="1" y2="0" gradientTransform="rotate(270 0.5 0.5)">
			<stop offset="0" stop-color="#f6f8b0" stop-opacity="1"/>
			<stop offset="1" stop-color="#dab971" stop-opacity="1"/>
		</linearGradient>
		<radialGradient id="grad5-50" cx="0.5" cy="1" r="1.1">
			<stop offset="0" stop-color="#f6f8b0" stop-opacity="1"/>
			<stop offset="1" stop-color="#dab971" stop-opacity="1"/>
		</radialGradient>
		<pattern id="grad9-56" x="0" y="0" width="1" height="1" patternContentUnits="objectBoundingBox">
			<path d="M 0 1 L 0 0 L 1 0 z" style="fill:url(#grad0-57)"/>
			<path d="M 0 1 L 1 1 L 1 0 z" style="fill:url(#grad0-58)"/>
		</pattern>
		<linearGradient id="grad0-57" x1="0" y1="0" x2="1" y2="0" gradientTransform="rotate(270 0.5 0.5)">
			<stop offset="0" stop-color="#ffffff" stop-opacity="1"/>
			<stop offset="1" stop-color="#b7e4ee" stop-opacity="1"/>
		</linearGradient>
		<linearGradient id="grad0-58" x1="0" y1="0" x2="1" y2="0" gradientTransform="rotate(360 0.5 0.5)">
			<stop offset="0" stop-color="#ffffff" stop-opacity="1"/>
			<stop offset="1" stop-color="#b7e4ee" stop-opacity="1"/>
		</linearGradient>
		<radialGradient id="grad2-76" cx="0" cy="1" r="1.4">
			<stop offset="0" stop-color="#ffffff" stop-opacity="1"/>
			<stop offset="1" stop-color="#da8c36" stop-opacity="1"/>
		</radialGradient>
		<radialGradient id="grad5-105" cx="0.5" cy="1" r="1.1">
			<stop offset="0" stop-color="#ffffff" stop-opacity="1"/>
			<stop offset="1" stop-color="#7bb4d2" stop-opacity="1"/>
		</radialGradient>
		<pattern id="grad10-109" x="0" y="0" width="1" height="1" patternContentUnits="objectBoundingBox">
			<path d="M 0.5 0.5 L 0 0 L 0 1 z" style="fill:url(#grad0-110)"/>
			<path d="M 0.5 0.5 L 1 0 L 1 1 z" style="fill:url(#grad0-111)"/>
			<path d="M 0.5 0.5 L 0 0 L 1 0 z" style="fill:url(#grad0-112)"/>
			<path d="M 0.5 0.5 L 0 1 L 1 1 z" style="fill:url(#grad0-113)"/>
		</pattern>
		<linearGradient id="grad0-110" x1="0" y1="0" x2="1" y2="0" gradientTransform="rotate(180 0.5 0.5)">
			<stop offset="0" stop-color="#ffffff" stop-opacity="1"/>
			<stop offset="1" stop-color="#7bb4d2" stop-opacity="1"/>
		</linearGradient>
		<linearGradient id="grad0-111" x1="0" y1="0" x2="1" y2="0" gradientTransform="rotate(360 0.5 0.5)">
			<stop offset="0" stop-color="#ffffff" stop-opacity="1"/>
			<stop offset="1" stop-color="#7bb4d2" stop-opacity="1"/>
		</linearGradient>
		<linearGradient id="grad0-112" x1="0" y1="0" x2="1" y2="0" gradientTransform="rotate(270 0.5 0.5)">
			<stop offset="0" stop-color="#ffffff" stop-opacity="1"/>
			<stop offset="1" stop-color="#7bb4d2" stop-opacity="1"/>
		</linearGradient>
		<linearGradient id="grad0-113" x1="0" y1="0" x2="1" y2="0" gradientTransform="rotate(90 0.5 0.5)">
			<stop offset="0" stop-color="#ffffff" stop-opacity="1"/>
			<stop offset="1" stop-color="#7bb4d2" stop-opacity="1"/>
		</linearGradient>
	</defs>
	<defs id="Markers">
		<g id="lend3">
			<path d="M 2 1 L 0 0 L 2 -1 " style="stroke-linecap:round;stroke-linejoin:round;fill:none"/>
		</g>
		<marker id="mrkr3-276" class="st41" v:arrowType="3" v:arrowSize="2" orient="auto" markerUnits="strokeWidth"
				overflow="visible">
			<use xlink:href="#lend3" transform="scale(-3.016,-3.016) "/>
		</marker>
		<marker id="mrkr3-282" class="st43" v:arrowType="3" v:arrowSize="2" orient="auto" markerUnits="strokeWidth"
				overflow="visible">
			<use xlink:href="#lend3" transform="scale(-3.016,-3.016) "/>
		</marker>
	</defs>
	<g v:mID="0" v:index="1" v:groupContext="foregroundPage">
		<title>Page-1</title>
		<v:pageProperties v:drawingScale="1" v:pageScale="1" v:drawingUnits="19" v:shadowOffsetX="9" v:shadowOffsetY="-9"/>
		<g id="group1-1" transform="translate(201,-82.4426)" v:mID="1" v:groupContext="group">
			<v:userDefs>
				<v:ud v:nameU="SkinColor" v:prompt="" v:val="VT5(#da8c36)"/>
				<v:ud v:nameU="visVersion" v:prompt="" v:val="VT0(15):26"/>
				<v:ud v:nameU="SkinColor" v:prompt="" v:val="VT5(#da8c36)"/>
			</v:userDefs>
			<title>Person</title>
			<g id="shape2-2" v:mID="2" v:groupContext="shape" transform="translate(0.410457,-0.213023)">
				<title>Sheet.2</title>
				<path d="M1.18 133.43 L1.09 133.48 C0.57 133.85 0.32 134.47 0.26 135.25 C0.22 136.37 0.18 137.27 0.16 137.63 L0.08
							 139.35 C0.06 139.84 0.02 140.81 0 141.25 C-0.03 142.13 0.61 142.76 1.59 142.87 C2.74 144.07 3.04 144.57
							 4.7 145.26 C6.06 145.74 7.31 146.11 7.31 146.11 C8.32 147.01 9.06 147.12 9.77 147.04 A3.99513 4.01677
							 -180 0 0 11.56 146.36 A2.00318 2.01403 -180 0 0 12.67 144.81 A103.49 104.05 -180 0 0 12.47 140.7 A206.495
							 207.613 -180 0 0 12.35 138.99 A9.48235 9.5337 -180 0 0 12.06 136.97 A7.68302 7.72463 -180 0 0 8.17 132.56
							 L8.16 131.86 C9.04 131.15 9.63 129.94 9.69 128.38 C9.59 125.88 8.03 124.21 6.13 124.13 C4.24 124.21
							 2.61 125.88 2.58 128.38 C2.6 129.92 3.18 131.11 4.04 131.82 L1.25 133.39 C1.23 133.4 1.2 133.42 1.18
							 133.43 ZM1.1 133.48 C1.1 133.48 1.1 133.49 1.09 133.49 L1.1 133.48 Z" class="st1"/>
				<path d="M1.18 133.43 L1.09 133.48 C0.57 133.85 0.32 134.47 0.26 135.25 C0.22 136.37 0.18 137.27 0.16 137.63 L0.08
							 139.35 C0.06 139.84 0.02 140.81 0 141.25 C-0.03 142.13 0.61 142.76 1.59 142.87 C2.74 144.07 3.04 144.57
							 4.7 145.26 C6.06 145.74 7.31 146.11 7.31 146.11 C8.32 147.01 9.06 147.12 9.77 147.04 A3.99513 4.01677
							 -180 0 0 11.56 146.36 A2.00318 2.01403 -180 0 0 12.67 144.81 A103.49 104.05 -180 0 0 12.47 140.7 A206.495
							 207.613 -180 0 0 12.35 138.99 A9.48235 9.5337 -180 0 0 12.06 136.97 A7.68302 7.72463 -180 0 0 8.17 132.56
							 L8.16 131.86 C9.04 131.15 9.63 129.94 9.69 128.38 C9.59 125.88 8.03 124.21 6.13 124.13 C4.24 124.21
							 2.61 125.88 2.58 128.38 C2.6 129.92 3.18 131.11 4.04 131.82 L1.25 133.39 C1.23 133.4 1.2 133.42 1.18
							 133.43M1.1 133.48 C1.1 133.48 1.1 133.49 1.09 133.49" class="st2"/>
			</g>
			<g id="shape3-5" v:mID="3" v:groupContext="shape" transform="translate(0.555746,-0.697956)">
				<title>Sheet.3</title>
				<path d="M0.16 137.63 C0.18 137.27 0.22 136.37 0.27 135.25 C0.4 133.42 1.59 132.45 4.94 133.74 C5.78 134.37 10.23
							 136.07 9.41 144.16 L9.77 147.04 C9.06 147.12 8.32 147.01 7.31 146.11 C7.31 146.11 6.07 145.74 4.7 145.26
							 C3.04 144.57 2.74 144.07 1.59 142.87 C0.61 142.76 -0.03 142.13 0 141.25 C0.02 140.81 0.06 139.84 0.08
							 139.35 L0.16 137.63 Z" class="st3"/>
			</g>
			<g id="shape4-9" v:mID="4" v:groupContext="shape" transform="translate(1.64746,-9.11874)">
				<title>Sheet.4</title>
				<path d="M7.69 147.06 L10.97 145.39 A7.68302 7.72463 -180 0 0 2.96 140.23 L0 141.9 A7.55046 7.59136 0 0 1 7.69 147.06
							 Z" class="st4"/>
			</g>
			<g id="shape5-13" v:mID="5" v:groupContext="shape" transform="translate(9.33433,-0.728643)">
				<title>Sheet.5</title>
				<path d="M0 138.67 A2.67391 2.68839 0 0 1 3.28 137 A9.48235 9.5337 0 0 1 3.57 139.02 A206.495 207.613 0 0 1 3.69
							 140.73 A103.49 104.05 0 0 1 3.89 144.84 A2.00318 2.01403 0 0 1 2.78 146.39 A3.65323 3.67302 0 0 1 0.49
							 147.05 L0 138.67 Z" class="st5"/>
			</g>
			<g id="shape6-21" v:mID="6" v:groupContext="shape" transform="translate(4.77364,-13.9864)">
				<title>Sheet.6</title>
				<path d="M0.1 145.21 L0.11 146.09 C0.11 146.09 0 146.57 1.78 146.87 C1.78 146.87 3.7 147.06 3.96 146.57 L3.94 144.9
							 C3.94 144.9 2.57 146.3 0.16 145.17 L0.1 145.21 Z" class="st6"/>
				<path d="M0.1 145.21 L0.11 146.09 C0.11 146.09 0 146.57 1.78 146.87 C1.78 146.87 3.7 147.06 3.96 146.57 L3.94 144.9
							 C3.94 144.9 2.57 146.3 0.16 145.17" class="st7"/>
			</g>
			<g id="shape7-26" v:mID="7" v:groupContext="shape" transform="translate(3.14026,-15.1692)">
				<title>Sheet.7</title>
				<path d="M7.1 142.85 C7 145.45 5.45 147.06 3.55 147.06 C1.65 147.06 0.03 145.45 0 142.85 C0.03 140.35 1.65 138.68
							 3.55 138.6 C5.45 138.68 7 140.35 7.1 142.85 L-1.78 136.49 L7.1 142.85 Z" class="st8"/>
				<path d="M7.1 142.85 C7 145.45 5.45 147.06 3.55 147.06 C1.65 147.06 0.03 145.45 0 142.85 C0.03 140.35 1.65 138.68
							 3.55 138.6 C5.45 138.68 7 140.35 7.1 142.85" class="st9"/>
			</g>
			<g id="shape8-31" v:mID="8" v:groupContext="shape" transform="translate(2.19511,-1.75807)">
				<title>Sheet.8</title>
				<path d="M0 143.82 L0 138.62 L0 143.82 ZM5.68 147.06 L5.68 141.86 L5.68 147.06 Z" class="st10"/>
				<path d="M0 143.82 L0 138.62M5.68 147.06 L5.68 141.86" class="st11"/>
			</g>
			<g id="shape9-34" v:mID="9" v:groupContext="shape" transform="translate(0.55512,-0.703671)">
				<title>Sheet.9</title>
				<path d="M10.95 146.69 C12.85 145.81 12.67 144.82 12.67 144.82 C12.64 142.84 12.34 138.8 12.3 138.32 C12.06 135.62
							 10.19 133.99 9.61 133.48 C9.14 133.07 8.69 132.75 8.19 132.57 L8.16 131.88 C9.12 131.01 9.69 129.78
							 9.69 128.38 C9.69 126.04 8.1 124.14 6.14 124.14 C4.18 124.14 2.59 126.04 2.59 128.38 C2.59 129.8 3.16
							 131.04 4.05 131.82 L1.09 133.49 C1.09 133.49 0.35 133.88 0.27 135.26 L0 141.25 C0 141.25 -0.04 141.84
							 0.26 142.19 C0.91 142.96 1.57 142.85 1.59 142.88 C3.34 145.11 5.36 145.53 7.31 146.12 C7.48 146.17 8.64
							 147.76 10.95 146.69 Z" class="st12"/>
			</g>
		</g>
		<g id="group10-36" transform="translate(219.703,-95.5207)" v:mID="10" v:groupContext="group">
			<v:userDefs>
				<v:ud v:nameU="SkinColor" v:prompt="" v:val="VT5(#da8c36)"/>
				<v:ud v:nameU="visVersion" v:prompt="" v:val="VT0(15):26"/>
				<v:ud v:nameU="SkinColor" v:prompt="" v:val="VT5(#da8c36)"/>
			</v:userDefs>
			<title>Service desk</title>
			<g id="shape11-37" v:mID="11" v:groupContext="shape" transform="translate(0,-1.15745)">
				<title>Sheet.11</title>
				<path d="M20.79 125.11 L18.64 126.26 C18.33 126.5 18.25 126.46 18.09 126.77 C17.71 127.5 17.76 130.26 17.73 130.59
							 C17.54 130.61 16.65 131.17 15.35 131.94 L15.33 131.38 L15.26 130.71 L8.64 127.11 L8.01 127.42 L8.29
							 131.61 L0 136.32 L0 136.8 L18.25 147.06 L30.09 140.32 L30.09 139.84 L28.36 138.86 L28.72 130.64 L27.13
							 129.73 C26.72 128.11 26.49 127.39 23.99 125.57 C23.98 125.32 23.98 125.3 23.98 125.08 C24.84 124.29
							 25.22 123.37 25.14 122.33 C25.05 120.39 23.62 119.13 22.38 119.28 C20.72 119.4 19.8 120.44 19.63 122.29
							 C19.64 122.7 19.44 123.78 20.79 125.11 Z" class="st13"/>
			</g>
			<g id="shape12-39" v:mID="12" v:groupContext="shape" transform="translate(26.6999,-9.35662)">
				<title>Sheet.12</title>
				<path d="M0 146.12 L0.17 137.79 L2.02 138.83 L1.66 147.06 L0.81 146.58 L0 146.12 Z" class="st14"/>
				<path d="M0 146.12 L0.17 137.79 L2.02 138.83 L1.66 147.06 L0.81 146.58" class="st7"/>
			</g>
			<g id="shape13-42" v:mID="13" v:groupContext="shape" transform="translate(27.132,-17.2048)">
				<title>Sheet.13</title>
				<path d="M0 145.78 L1.58 146.68 L0.72 147.06 L0.01 146.63 L0 145.78 Z" class="st15"/>
				<path d="M0 145.78 L1.58 146.68 L0.72 147.06 L0.01 146.63" class="st7"/>
			</g>
			<g id="shape14-47" v:mID="14" v:groupContext="shape" transform="translate(0,-1.64047)">
				<title>Sheet.14</title>
				<path d="M0 136.8 L11.9 130.04 L30.09 140.32 L18.25 147.06 L0 136.8 Z" class="st16"/>
			</g>
			<g id="shape15-51" v:mID="15" v:groupContext="shape" transform="translate(0,-1.15745)">
				<title>Sheet.15</title>
				<path d="M0 136.8 L18.25 147.06 L18.25 146.58 L0 136.32 L0 136.8 ZM28.49 140.74 L18.25 146.58 L18.25 147.06 L30.09
							 140.32 L30.09 139.84 L28.49 140.74 Z" class="st17"/>
			</g>
			<g id="shape16-53" v:mID="16" v:groupContext="shape" transform="translate(12.0602,-7.79977)">
				<title>Sheet.16</title>
				<path d="M2.72 141.83 L0 143.39 L6.28 147.06 L6.27 147.06 L8.98 145.49 L2.7 141.82 L2.72 141.83 Z" class="st18"/>
			</g>
			<g id="shape17-59" v:mID="17" v:groupContext="shape" transform="translate(17.7332,-11.5889)">
				<title>Sheet.17</title>
				<path d="M1.08 143.91 L1.06 143.96 L0 141.05 C0 141.05 0.12 137.32 0.35 137.21 C0.35 137.21 1.1 135.92 3.38 137.13
							 C3.38 137.13 7.78 138.64 7.15 144.72 L6.98 147.06 L1.08 143.91 Z" class="st19"/>
				<path d="M1.08 143.91 L1.06 143.96 L0 141.05 C0 141.05 0.12 137.32 0.35 137.21 C0.35 137.21 1.1 135.92 3.38 137.13
							 C3.38 137.13 7.78 138.64 7.15 144.72 L6.98 147.06" class="st7"/>
			</g>
			<g id="shape18-63" v:mID="18" v:groupContext="shape" transform="translate(18.4833,-17.7228)">
				<title>Sheet.18</title>
				<path d="M5.85 147.06 C5.4 145.58 4.32 144.67 3.95 144.35 C1.65 142.4 0 142.91 0 142.91 L2.64 141.46 C2.64 141.46
							 4.28 140.96 6.59 142.91 C6.96 143.22 8.01 144.11 8.47 145.56 L5.85 147.06 Z" class="st20"/>
				<path d="M5.85 147.06 C5.4 145.58 4.32 144.67 3.95 144.35 C1.65 142.4 0 142.91 0 142.91 L2.64 141.46 C2.64 141.46
							 4.28 140.96 6.59 142.91 C6.96 143.22 8.01 144.11 8.47 145.56" class="st7"/>
			</g>
			<g id="shape19-67" v:mID="19" v:groupContext="shape" transform="translate(24.3297,-11.6806)">
				<title>Sheet.19</title>
				<path d="M2.62 139.52 C2.72 139.82 2.79 140.15 2.82 140.5 C2.86 140.94 3.2 144.91 2.97 145.46 C2.74 146 0.48 147.06
							 0.48 147.06 C0.48 147.06 0.22 142.39 0.18 141.95 C0.15 141.63 0.09 141.34 0.01 141.06 C0.01 141.05 0
							 141.03 0 141.02 C0 141.02 0.49 139.06 2.61 139.51 L2.62 139.52 Z" class="st21"/>
				<path d="M2.62 139.52 C2.72 139.82 2.79 140.15 2.82 140.5 C2.86 140.94 3.2 144.91 2.97 145.46 C2.74 146 0.48 147.06
							 0.48 147.06 C0.48 147.06 0.22 142.39 0.18 141.95 C0.15 141.63 0.09 141.34 0.01 141.06 C0.01 141.05 0
							 141.03 0 141.02 C0 141.02 0.49 139.06 2.61 139.51" class="st7"/>
			</g>
			<g id="shape20-71" v:mID="20" v:groupContext="shape" transform="translate(24.523,-10.2952)">
				<title>Sheet.20</title>
				<path d="M0 145.83 L2.37 144.48 L2.18 147.06 L0 145.83 Z" class="st22"/>
			</g>
			<g id="shape21-73" v:mID="21" v:groupContext="shape" transform="translate(17.4212,-9.11009)">
				<title>Sheet.21</title>
				<path d="M3.56 144.93 C3.82 145.58 3.29 146.38 2.38 146.72 C1.47 147.06 0.52 146.8 0.26 146.15 C0 145.5 0.53 144.7
							 1.44 144.36 C2.35 144.02 3.3 144.28 3.56 144.93 Z" class="st23"/>
			</g>
			<g id="shape22-77" v:mID="22" v:groupContext="shape" transform="translate(20.8239,-21.7148)">
				<title>Sheet.22</title>
				<path d="M0.08 145.72 L0.09 146.36 C0.09 146.36 -0 146.7 1.42 146.92 C1.42 146.92 2.96 147.06 3.16 146.7 L3.15 145.5
							 C3.15 145.5 2.05 146.51 0.13 145.7 L0.08 145.72 Z" class="st6"/>
				<path d="M0.08 145.72 L0.09 146.36 C0.09 146.36 -0 146.7 1.42 146.92 C1.42 146.92 2.96 147.06 3.16 146.7 L3.15 145.5
							 C3.15 145.5 2.05 146.51 0.13 145.7" class="st7"/>
			</g>
			<g id="shape23-81" v:mID="23" v:groupContext="shape" transform="translate(20.584,-9.39414)">
				<title>Sheet.23</title>
				<path d="M4.2 142.6 L0.19 144.9 C0.19 144.9 0.89 145.61 0 146.55 C0 146.55 0.23 147.06 1.51 146.37 L4.26 144.76 L4.2
							 142.6 Z" class="st24"/>
			</g>
			<g id="shape24-83" v:mID="24" v:groupContext="shape" transform="translate(15.4327,-12.9926)">
				<title>Sheet.24</title>
				<path d="M0.15 147.06 L3.5 145.18 L3.41 143.04 L0 144.91 L0.15 147.06 Z" class="st25"/>
				<path d="M0.15 147.06 L3.5 145.18 L3.41 143.04 L0 144.91" class="st7"/>
			</g>
			<g id="shape25-86" v:mID="25" v:groupContext="shape" transform="translate(19.6294,-22.5754)">
				<title>Sheet.25</title>
				<path d="M5.51 143.88 C5.51 145.63 4.27 147.06 2.75 147.06 C1.23 147.06 0 145.63 0 143.88 C-0 142.12 1.23 140.7 2.75
							 140.7 C4.27 140.7 5.51 142.12 5.51 143.88 L-1.38 139.11 L5.51 143.88 Z" class="st8"/>
				<path d="M5.51 143.88 C5.51 145.63 4.27 147.06 2.75 147.06 C1.23 147.06 0 145.63 0 143.88 C-0 142.12 1.23 140.7 2.75
							 140.7 C4.27 140.7 5.51 142.12 5.51 143.88" class="st26"/>
			</g>
			<g id="shape26-90" v:mID="26" v:groupContext="shape" transform="translate(15.3545,-11.5437)">
				<title>Sheet.26</title>
				<path d="M0 142.33 C1.14 141.69 2.43 140.96 2.43 140.96 L3.48 141.57 L0.1 143.49 L0 142.33 ZM9.34 144.79 L5.42 147.06
							 C5.42 147.06 5.15 146.63 4.21 146.65 C4.21 146.65 4.28 146.42 4.63 146.26 C4.97 146.09 8.3 144.18 8.3
							 144.18 L9.34 144.79 Z" class="st27"/>
				<path d="M0 142.33 C1.14 141.69 2.43 140.96 2.43 140.96 L3.48 141.57 L0.1 143.49M9.34 144.79 L5.42 147.06 C5.42 147.06
							 5.15 146.63 4.21 146.65 C4.21 146.65 4.28 146.42 4.63 146.26 C4.97 146.09 8.3 144.18 8.3 144.18 L9.34
							 144.79" class="st7"/>
			</g>
			<g id="shape27-93" v:mID="27" v:groupContext="shape" transform="translate(15.3454,-9.25709)">
				<title>Sheet.27</title>
				<path d="M3.54 141.54 L3.44 137.47 L3.54 141.54 ZM0.24 143.32 L3.56 141.52 L0.24 143.32 ZM8.28 140.15 L8.28 141.89
							 L5 143.77 C4.38 144.11 4.24 144.32 4.24 144.32 C4.24 144.32 2.89 144.41 2.44 145.34 C1.98 146.28 2.63
							 147.36 4.17 146.98 C4.17 146.98 4.95 146.76 5.23 146.42 C5.23 146.42 5.7 146.92 7.29 145.95 L11.55 143.44
							 C12.21 143 12.04 141.88 12.04 141.88 C11.96 140.46 11.85 138.39 11.82 138.1 C11.63 136.07 10.19 134.84
							 9.74 134.46 C9.37 134.15 9.03 133.91 8.64 133.66 L8.63 133.18 C9.36 132.61 9.8 131.68 9.8 130.64 C9.8
							 128.88 8.69 127.39 7.04 127.38 C5.53 127.39 4.25 128.76 4.31 130.64 C4.31 131.7 4.76 132.63 5.44 133.21
							 L3.15 134.47 C3.15 134.47 2.58 134.76 2.52 135.8 L2.39 138.69 C2.34 138.68 1.1 139.38 0 140.01 L8.28
							 140.15 Z" class="st10"/>
				<path d="M3.54 141.54 L3.44 137.47M0.24 143.32 L3.56 141.52M8.28 140.15 L8.28 141.89 L5 143.77 C4.38 144.11 4.24
							 144.32 4.24 144.32 C4.24 144.32 2.89 144.41 2.44 145.34 C1.98 146.28 2.63 147.36 4.17 146.98 C4.17 146.98
							 4.95 146.76 5.23 146.42 C5.23 146.42 5.7 146.92 7.29 145.95 L11.55 143.44 C12.21 143 12.04 141.88 12.04
							 141.88 C11.96 140.46 11.85 138.39 11.82 138.1 C11.63 136.07 10.19 134.84 9.74 134.46 C9.37 134.15 9.03
							 133.91 8.64 133.66 L8.63 133.18 C9.36 132.61 9.8 131.68 9.8 130.64 C9.8 128.88 8.69 127.39 7.04 127.38
							 C5.53 127.39 4.25 128.76 4.31 130.64 C4.31 131.7 4.76 132.63 5.44 133.21 L3.15 134.47 C3.15 134.47 2.58
							 134.76 2.52 135.8 L2.39 138.69 C2.34 138.68 1.1 139.38 0 140.01" class="st11"/>
			</g>
			<g id="shape28-96" v:mID="28" v:groupContext="shape" transform="translate(12.0602,-7.29794)">
				<title>Sheet.28</title>
				<path d="M3.14 144.67 L0 142.8 L0 143.32 L3.18 145.21 L3.21 145.71 L3.61 145.47 L6.27 147.05 L9.47 145.21 L8.98 144.94
							 L6.28 146.54 L3.75 145.03 L3.2 136.85 L2.56 137.22 L3.14 144.67 ZM6.27 147.06 L6.28 147.06 L6.27 147.05
							 L6.27 147.06 Z" class="st28"/>
				<path d="M3.14 144.67 L0 142.8 L0 143.32 L3.18 145.21 L3.21 145.71 L3.61 145.47 L6.27 147.05 L9.47 145.21 L8.98 144.94
							 L6.28 146.54 L3.75 145.03 L3.2 136.85 L2.56 137.22 L3.14 144.67M6.27 147.06 L6.28 147.06 L6.27 147.05"
						class="st29"/>
			</g>
			<g id="shape29-99" v:mID="29" v:groupContext="shape" transform="translate(8.01115,-17.1409)">
				<title>Sheet.29</title>
				<path d="M6.6 147.06 L0 143.4 L0.63 143.09 L7.25 146.7 L6.6 147.06 Z" class="st4"/>
			</g>
			<g id="shape30-102" v:mID="30" v:groupContext="shape" transform="translate(8.15928,-7.44986)">
				<title>Sheet.30</title>
				<path d="M6.59 145.58 C6.59 146.4 5.11 147.06 3.29 147.06 C1.47 147.06 0 146.4 0 145.58 C0 144.76 1.47 144.09 3.29
							 144.09 C5.11 144.09 6.59 144.76 6.59 145.58 Z" class="st30"/>
			</g>
			<g id="shape31-106" v:mID="31" v:groupContext="shape" transform="translate(8.01464,-8.6511)">
				<title>Sheet.31</title>
				<path d="M0 134.9 L0.56 143.36 L7.26 147.06 L6.6 138.52 L0 134.9 Z" class="st31"/>
			</g>
			<g id="shape32-114" v:mID="32" v:groupContext="shape" transform="translate(8.83205,-7.65269)">
				<title>Sheet.32</title>
				<path d="M1.84 140.89 C0.13 143.36 0 146.64 0 146.64 L1.07 147.06 C1.07 147.06 1.2 143.78 2.91 141.31 L1.84 140.89
							 Z" class="st18"/>
			</g>
			<g id="shape33-117" v:mID="33" v:groupContext="shape" transform="translate(8.15431,-6.84904)">
				<title>Sheet.33</title>
				<path d="M3.59 140.51 L3.94 145.05 L1.77 146.28 C1.77 146.28 1.9 143.01 3.59 140.51 ZM6.59 144.99 C6.59 145.81 5.11
							 146.48 3.29 146.48 C1.47 146.48 0 145.81 0 144.99 L0 145.58 C0 146.4 1.47 147.06 3.29 147.06 C5.11 147.06
							 6.59 146.4 6.59 145.58 L6.59 144.99 Z" class="st32"/>
			</g>
			<g id="shape34-119" v:mID="34" v:groupContext="shape" transform="translate(0,-1.15745)">
				<title>Sheet.34</title>
				<path d="M20.79 125.11 L18.64 126.26 C18.33 126.5 18.25 126.46 18.09 126.77 C17.71 127.5 17.76 130.26 17.73 130.59
							 C17.54 130.61 16.65 131.17 15.35 131.94 L15.33 131.38 L15.26 130.71 L8.64 127.11 L8.01 127.42 L8.29
							 131.61 L0 136.32 L0 136.8 L18.25 147.06 L30.09 140.32 L30.09 139.84 L28.36 138.86 L28.72 130.64 L27.13
							 129.73 C26.72 128.11 26.49 127.39 23.99 125.57 C23.98 125.32 23.98 125.3 23.98 125.08 C24.84 124.29
							 25.22 123.37 25.14 122.33 C25.05 120.39 23.62 119.13 22.38 119.28 C20.72 119.4 19.8 120.44 19.63 122.29
							 C19.64 122.7 19.44 123.78 20.79 125.11 Z" class="st12"/>
			</g>
		</g>
		<g id="group35-121" transform="translate(183,-67.2551)" v:mID="35" v:groupContext="group">
			<v:userDefs>
				<v:ud v:nameU="SkinColor" v:prompt="" v:val="VT5(#da8c36)"/>
				<v:ud v:nameU="visVersion" v:prompt="" v:val="VT0(15):26"/>
				<v:ud v:nameU="SkinColor" v:prompt="" v:val="VT5(#da8c36)"/>
			</v:userDefs>
			<title>Person.35</title>
			<g id="shape36-122" v:mID="36" v:groupContext="shape" transform="translate(0.410457,-0.213023)">
				<title>Sheet.36</title>
				<path d="M1.18 133.43 L1.09 133.48 C0.57 133.85 0.32 134.47 0.26 135.25 C0.22 136.37 0.18 137.27 0.16 137.63 L0.08
							 139.35 C0.06 139.84 0.02 140.81 0 141.25 C-0.03 142.13 0.61 142.76 1.59 142.87 C2.74 144.07 3.04 144.57
							 4.7 145.26 C6.06 145.74 7.31 146.11 7.31 146.11 C8.32 147.01 9.06 147.12 9.77 147.04 A3.99513 4.01677
							 -180 0 0 11.56 146.36 A2.00318 2.01403 -180 0 0 12.67 144.81 A103.49 104.05 -180 0 0 12.47 140.7 A206.495
							 207.613 -180 0 0 12.35 138.99 A9.48235 9.5337 -180 0 0 12.06 136.97 A7.68302 7.72463 -180 0 0 8.17 132.56
							 L8.16 131.86 C9.04 131.15 9.63 129.94 9.69 128.38 C9.59 125.88 8.03 124.21 6.13 124.13 C4.24 124.21
							 2.61 125.88 2.58 128.38 C2.6 129.92 3.18 131.11 4.04 131.82 L1.25 133.39 C1.23 133.4 1.2 133.42 1.18
							 133.43 ZM1.1 133.48 C1.1 133.48 1.1 133.49 1.09 133.49 L1.1 133.48 Z" class="st1"/>
				<path d="M1.18 133.43 L1.09 133.48 C0.57 133.85 0.32 134.47 0.26 135.25 C0.22 136.37 0.18 137.27 0.16 137.63 L0.08
							 139.35 C0.06 139.84 0.02 140.81 0 141.25 C-0.03 142.13 0.61 142.76 1.59 142.87 C2.74 144.07 3.04 144.57
							 4.7 145.26 C6.06 145.74 7.31 146.11 7.31 146.11 C8.32 147.01 9.06 147.12 9.77 147.04 A3.99513 4.01677
							 -180 0 0 11.56 146.36 A2.00318 2.01403 -180 0 0 12.67 144.81 A103.49 104.05 -180 0 0 12.47 140.7 A206.495
							 207.613 -180 0 0 12.35 138.99 A9.48235 9.5337 -180 0 0 12.06 136.97 A7.68302 7.72463 -180 0 0 8.17 132.56
							 L8.16 131.86 C9.04 131.15 9.63 129.94 9.69 128.38 C9.59 125.88 8.03 124.21 6.13 124.13 C4.24 124.21
							 2.61 125.88 2.58 128.38 C2.6 129.92 3.18 131.11 4.04 131.82 L1.25 133.39 C1.23 133.4 1.2 133.42 1.18
							 133.43M1.1 133.48 C1.1 133.48 1.1 133.49 1.09 133.49" class="st2"/>
			</g>
			<g id="shape37-125" v:mID="37" v:groupContext="shape" transform="translate(0.555746,-0.697956)">
				<title>Sheet.37</title>
				<path d="M0.16 137.63 C0.18 137.27 0.22 136.37 0.27 135.25 C0.4 133.42 1.59 132.45 4.94 133.74 C5.78 134.37 10.23
							 136.07 9.41 144.16 L9.77 147.04 C9.06 147.12 8.32 147.01 7.31 146.11 C7.31 146.11 6.07 145.74 4.7 145.26
							 C3.04 144.57 2.74 144.07 1.59 142.87 C0.61 142.76 -0.03 142.13 0 141.25 C0.02 140.81 0.06 139.84 0.08
							 139.35 L0.16 137.63 Z" class="st3"/>
			</g>
			<g id="shape38-128" v:mID="38" v:groupContext="shape" transform="translate(1.64746,-9.11874)">
				<title>Sheet.38</title>
				<path d="M7.69 147.06 L10.97 145.39 A7.68302 7.72463 -180 0 0 2.96 140.23 L0 141.9 A7.55046 7.59136 0 0 1 7.69 147.06
							 Z" class="st4"/>
			</g>
			<g id="shape39-131" v:mID="39" v:groupContext="shape" transform="translate(9.33433,-0.728643)">
				<title>Sheet.39</title>
				<path d="M0 138.67 A2.67391 2.68839 0 0 1 3.28 137 A9.48235 9.5337 0 0 1 3.57 139.02 A206.495 207.613 0 0 1 3.69
							 140.73 A103.49 104.05 0 0 1 3.89 144.84 A2.00318 2.01403 0 0 1 2.78 146.39 A3.65323 3.67302 0 0 1 0.49
							 147.05 L0 138.67 Z" class="st5"/>
			</g>
			<g id="shape40-134" v:mID="40" v:groupContext="shape" transform="translate(4.77364,-13.9864)">
				<title>Sheet.40</title>
				<path d="M0.1 145.21 L0.11 146.09 C0.11 146.09 0 146.57 1.78 146.87 C1.78 146.87 3.7 147.06 3.96 146.57 L3.94 144.9
							 C3.94 144.9 2.57 146.3 0.16 145.17 L0.1 145.21 Z" class="st6"/>
				<path d="M0.1 145.21 L0.11 146.09 C0.11 146.09 0 146.57 1.78 146.87 C1.78 146.87 3.7 147.06 3.96 146.57 L3.94 144.9
							 C3.94 144.9 2.57 146.3 0.16 145.17" class="st7"/>
			</g>
			<g id="shape41-138" v:mID="41" v:groupContext="shape" transform="translate(3.14026,-15.1692)">
				<title>Sheet.41</title>
				<path d="M7.1 142.85 C7 145.45 5.45 147.06 3.55 147.06 C1.65 147.06 0.03 145.45 0 142.85 C0.03 140.35 1.65 138.68
							 3.55 138.6 C5.45 138.68 7 140.35 7.1 142.85 L-1.78 136.49 L7.1 142.85 Z" class="st8"/>
				<path d="M7.1 142.85 C7 145.45 5.45 147.06 3.55 147.06 C1.65 147.06 0.03 145.45 0 142.85 C0.03 140.35 1.65 138.68
							 3.55 138.6 C5.45 138.68 7 140.35 7.1 142.85" class="st9"/>
			</g>
			<g id="shape42-142" v:mID="42" v:groupContext="shape" transform="translate(2.19511,-1.75807)">
				<title>Sheet.42</title>
				<path d="M0 143.82 L0 138.62 L0 143.82 ZM5.68 147.06 L5.68 141.86 L5.68 147.06 Z" class="st10"/>
				<path d="M0 143.82 L0 138.62M5.68 147.06 L5.68 141.86" class="st11"/>
			</g>
			<g id="shape43-145" v:mID="43" v:groupContext="shape" transform="translate(0.55512,-0.703671)">
				<title>Sheet.43</title>
				<path d="M10.95 146.69 C12.85 145.81 12.67 144.82 12.67 144.82 C12.64 142.84 12.34 138.8 12.3 138.32 C12.06 135.62
							 10.19 133.99 9.61 133.48 C9.14 133.07 8.69 132.75 8.19 132.57 L8.16 131.88 C9.12 131.01 9.69 129.78
							 9.69 128.38 C9.69 126.04 8.1 124.14 6.14 124.14 C4.18 124.14 2.59 126.04 2.59 128.38 C2.59 129.8 3.16
							 131.04 4.05 131.82 L1.09 133.49 C1.09 133.49 0.35 133.88 0.27 135.26 L0 141.25 C0 141.25 -0.04 141.84
							 0.26 142.19 C0.91 142.96 1.57 142.85 1.59 142.88 C3.34 145.11 5.36 145.53 7.31 146.12 C7.48 146.17 8.64
							 147.76 10.95 146.69 Z" class="st12"/>
			</g>
		</g>
		<g id="group44-147" transform="translate(167.25,-56.5676)" v:mID="44" v:groupContext="group">
			<v:userDefs>
				<v:ud v:nameU="SkinColor" v:prompt="" v:val="VT5(#da8c36)"/>
				<v:ud v:nameU="visVersion" v:prompt="" v:val="VT0(15):26"/>
				<v:ud v:nameU="SkinColor" v:prompt="" v:val="VT5(#da8c36)"/>
			</v:userDefs>
			<title>Person.44</title>
			<g id="shape45-148" v:mID="45" v:groupContext="shape" transform="translate(0.410457,-0.213023)">
				<title>Sheet.45</title>
				<path d="M1.18 133.43 L1.09 133.48 C0.57 133.85 0.32 134.47 0.26 135.25 C0.22 136.37 0.18 137.27 0.16 137.63 L0.08
							 139.35 C0.06 139.84 0.02 140.81 0 141.25 C-0.03 142.13 0.61 142.76 1.59 142.87 C2.74 144.07 3.04 144.57
							 4.7 145.26 C6.06 145.74 7.31 146.11 7.31 146.11 C8.32 147.01 9.06 147.12 9.77 147.04 A3.99513 4.01677
							 -180 0 0 11.56 146.36 A2.00318 2.01403 -180 0 0 12.67 144.81 A103.49 104.05 -180 0 0 12.47 140.7 A206.495
							 207.613 -180 0 0 12.35 138.99 A9.48235 9.5337 -180 0 0 12.06 136.97 A7.68302 7.72463 -180 0 0 8.17 132.56
							 L8.16 131.86 C9.04 131.15 9.63 129.94 9.69 128.38 C9.59 125.88 8.03 124.21 6.13 124.13 C4.24 124.21
							 2.61 125.88 2.58 128.38 C2.6 129.92 3.18 131.11 4.04 131.82 L1.25 133.39 C1.23 133.4 1.2 133.42 1.18
							 133.43 ZM1.1 133.48 C1.1 133.48 1.1 133.49 1.09 133.49 L1.1 133.48 Z" class="st1"/>
				<path d="M1.18 133.43 L1.09 133.48 C0.57 133.85 0.32 134.47 0.26 135.25 C0.22 136.37 0.18 137.27 0.16 137.63 L0.08
							 139.35 C0.06 139.84 0.02 140.81 0 141.25 C-0.03 142.13 0.61 142.76 1.59 142.87 C2.74 144.07 3.04 144.57
							 4.7 145.26 C6.06 145.74 7.31 146.11 7.31 146.11 C8.32 147.01 9.06 147.12 9.77 147.04 A3.99513 4.01677
							 -180 0 0 11.56 146.36 A2.00318 2.01403 -180 0 0 12.67 144.81 A103.49 104.05 -180 0 0 12.47 140.7 A206.495
							 207.613 -180 0 0 12.35 138.99 A9.48235 9.5337 -180 0 0 12.06 136.97 A7.68302 7.72463 -180 0 0 8.17 132.56
							 L8.16 131.86 C9.04 131.15 9.63 129.94 9.69 128.38 C9.59 125.88 8.03 124.21 6.13 124.13 C4.24 124.21
							 2.61 125.88 2.58 128.38 C2.6 129.92 3.18 131.11 4.04 131.82 L1.25 133.39 C1.23 133.4 1.2 133.42 1.18
							 133.43M1.1 133.48 C1.1 133.48 1.1 133.49 1.09 133.49" class="st2"/>
			</g>
			<g id="shape46-151" v:mID="46" v:groupContext="shape" transform="translate(0.555746,-0.697956)">
				<title>Sheet.46</title>
				<path d="M0.16 137.63 C0.18 137.27 0.22 136.37 0.27 135.25 C0.4 133.42 1.59 132.45 4.94 133.74 C5.78 134.37 10.23
							 136.07 9.41 144.16 L9.77 147.04 C9.06 147.12 8.32 147.01 7.31 146.11 C7.31 146.11 6.07 145.74 4.7 145.26
							 C3.04 144.57 2.74 144.07 1.59 142.87 C0.61 142.76 -0.03 142.13 0 141.25 C0.02 140.81 0.06 139.84 0.08
							 139.35 L0.16 137.63 Z" class="st3"/>
			</g>
			<g id="shape47-154" v:mID="47" v:groupContext="shape" transform="translate(1.64746,-9.11874)">
				<title>Sheet.47</title>
				<path d="M7.69 147.06 L10.97 145.39 A7.68302 7.72463 -180 0 0 2.96 140.23 L0 141.9 A7.55046 7.59136 0 0 1 7.69 147.06
							 Z" class="st4"/>
			</g>
			<g id="shape48-157" v:mID="48" v:groupContext="shape" transform="translate(9.33433,-0.728643)">
				<title>Sheet.48</title>
				<path d="M0 138.67 A2.67391 2.68839 0 0 1 3.28 137 A9.48235 9.5337 0 0 1 3.57 139.02 A206.495 207.613 0 0 1 3.69
							 140.73 A103.49 104.05 0 0 1 3.89 144.84 A2.00318 2.01403 0 0 1 2.78 146.39 A3.65323 3.67302 0 0 1 0.49
							 147.05 L0 138.67 Z" class="st5"/>
			</g>
			<g id="shape49-160" v:mID="49" v:groupContext="shape" transform="translate(4.77364,-13.9864)">
				<title>Sheet.49</title>
				<path d="M0.1 145.21 L0.11 146.09 C0.11 146.09 0 146.57 1.78 146.87 C1.78 146.87 3.7 147.06 3.96 146.57 L3.94 144.9
							 C3.94 144.9 2.57 146.3 0.16 145.17 L0.1 145.21 Z" class="st6"/>
				<path d="M0.1 145.21 L0.11 146.09 C0.11 146.09 0 146.57 1.78 146.87 C1.78 146.87 3.7 147.06 3.96 146.57 L3.94 144.9
							 C3.94 144.9 2.57 146.3 0.16 145.17" class="st7"/>
			</g>
			<g id="shape50-164" v:mID="50" v:groupContext="shape" transform="translate(3.14026,-15.1692)">
				<title>Sheet.50</title>
				<path d="M7.1 142.85 C7 145.45 5.45 147.06 3.55 147.06 C1.65 147.06 0.03 145.45 0 142.85 C0.03 140.35 1.65 138.68
							 3.55 138.6 C5.45 138.68 7 140.35 7.1 142.85 L-1.78 136.49 L7.1 142.85 Z" class="st8"/>
				<path d="M7.1 142.85 C7 145.45 5.45 147.06 3.55 147.06 C1.65 147.06 0.03 145.45 0 142.85 C0.03 140.35 1.65 138.68
							 3.55 138.6 C5.45 138.68 7 140.35 7.1 142.85" class="st9"/>
			</g>
			<g id="shape51-168" v:mID="51" v:groupContext="shape" transform="translate(2.19511,-1.75807)">
				<title>Sheet.51</title>
				<path d="M0 143.82 L0 138.62 L0 143.82 ZM5.68 147.06 L5.68 141.86 L5.68 147.06 Z" class="st10"/>
				<path d="M0 143.82 L0 138.62M5.68 147.06 L5.68 141.86" class="st11"/>
			</g>
			<g id="shape52-171" v:mID="52" v:groupContext="shape" transform="translate(0.55512,-0.703671)">
				<title>Sheet.52</title>
				<path d="M10.95 146.69 C12.85 145.81 12.67 144.82 12.67 144.82 C12.64 142.84 12.34 138.8 12.3 138.32 C12.06 135.62
							 10.19 133.99 9.61 133.48 C9.14 133.07 8.69 132.75 8.19 132.57 L8.16 131.88 C9.12 131.01 9.69 129.78
							 9.69 128.38 C9.69 126.04 8.1 124.14 6.14 124.14 C4.18 124.14 2.59 126.04 2.59 128.38 C2.59 129.8 3.16
							 131.04 4.05 131.82 L1.09 133.49 C1.09 133.49 0.35 133.88 0.27 135.26 L0 141.25 C0 141.25 -0.04 141.84
							 0.26 142.19 C0.91 142.96 1.57 142.85 1.59 142.88 C3.34 145.11 5.36 145.53 7.31 146.12 C7.48 146.17 8.64
							 147.76 10.95 146.69 Z" class="st12"/>
			</g>
		</g>
		<g id="group53-173" transform="translate(153.75,-47.5676)" v:mID="53" v:groupContext="group">
			<v:userDefs>
				<v:ud v:nameU="SkinColor" v:prompt="" v:val="VT5(#da8c36)"/>
				<v:ud v:nameU="visVersion" v:prompt="" v:val="VT0(15):26"/>
				<v:ud v:nameU="SkinColor" v:prompt="" v:val="VT5(#da8c36)"/>
			</v:userDefs>
			<title>Person.53</title>
			<g id="shape54-174" v:mID="54" v:groupContext="shape" transform="translate(0.410457,-0.213023)">
				<title>Sheet.54</title>
				<path d="M1.18 133.43 L1.09 133.48 C0.57 133.85 0.32 134.47 0.26 135.25 C0.22 136.37 0.18 137.27 0.16 137.63 L0.08
							 139.35 C0.06 139.84 0.02 140.81 0 141.25 C-0.03 142.13 0.61 142.76 1.59 142.87 C2.74 144.07 3.04 144.57
							 4.7 145.26 C6.06 145.74 7.31 146.11 7.31 146.11 C8.32 147.01 9.06 147.12 9.77 147.04 A3.99513 4.01677
							 -180 0 0 11.56 146.36 A2.00318 2.01403 -180 0 0 12.67 144.81 A103.49 104.05 -180 0 0 12.47 140.7 A206.495
							 207.613 -180 0 0 12.35 138.99 A9.48235 9.5337 -180 0 0 12.06 136.97 A7.68302 7.72463 -180 0 0 8.17 132.56
							 L8.16 131.86 C9.04 131.15 9.63 129.94 9.69 128.38 C9.59 125.88 8.03 124.21 6.13 124.13 C4.24 124.21
							 2.61 125.88 2.58 128.38 C2.6 129.92 3.18 131.11 4.04 131.82 L1.25 133.39 C1.23 133.4 1.2 133.42 1.18
							 133.43 ZM1.1 133.48 C1.1 133.48 1.1 133.49 1.09 133.49 L1.1 133.48 Z" class="st1"/>
				<path d="M1.18 133.43 L1.09 133.48 C0.57 133.85 0.32 134.47 0.26 135.25 C0.22 136.37 0.18 137.27 0.16 137.63 L0.08
							 139.35 C0.06 139.84 0.02 140.81 0 141.25 C-0.03 142.13 0.61 142.76 1.59 142.87 C2.74 144.07 3.04 144.57
							 4.7 145.26 C6.06 145.74 7.31 146.11 7.31 146.11 C8.32 147.01 9.06 147.12 9.77 147.04 A3.99513 4.01677
							 -180 0 0 11.56 146.36 A2.00318 2.01403 -180 0 0 12.67 144.81 A103.49 104.05 -180 0 0 12.47 140.7 A206.495
							 207.613 -180 0 0 12.35 138.99 A9.48235 9.5337 -180 0 0 12.06 136.97 A7.68302 7.72463 -180 0 0 8.17 132.56
							 L8.16 131.86 C9.04 131.15 9.63 129.94 9.69 128.38 C9.59 125.88 8.03 124.21 6.13 124.13 C4.24 124.21
							 2.61 125.88 2.58 128.38 C2.6 129.92 3.18 131.11 4.04 131.82 L1.25 133.39 C1.23 133.4 1.2 133.42 1.18
							 133.43M1.1 133.48 C1.1 133.48 1.1 133.49 1.09 133.49" class="st2"/>
			</g>
			<g id="shape55-177" v:mID="55" v:groupContext="shape" transform="translate(0.555746,-0.697956)">
				<title>Sheet.55</title>
				<path d="M0.16 137.63 C0.18 137.27 0.22 136.37 0.27 135.25 C0.4 133.42 1.59 132.45 4.94 133.74 C5.78 134.37 10.23
							 136.07 9.41 144.16 L9.77 147.04 C9.06 147.12 8.32 147.01 7.31 146.11 C7.31 146.11 6.07 145.74 4.7 145.26
							 C3.04 144.57 2.74 144.07 1.59 142.87 C0.61 142.76 -0.03 142.13 0 141.25 C0.02 140.81 0.06 139.84 0.08
							 139.35 L0.16 137.63 Z" class="st3"/>
			</g>
			<g id="shape56-180" v:mID="56" v:groupContext="shape" transform="translate(1.64746,-9.11874)">
				<title>Sheet.56</title>
				<path d="M7.69 147.06 L10.97 145.39 A7.68302 7.72463 -180 0 0 2.96 140.23 L0 141.9 A7.55046 7.59136 0 0 1 7.69 147.06
							 Z" class="st4"/>
			</g>
			<g id="shape57-183" v:mID="57" v:groupContext="shape" transform="translate(9.33433,-0.728643)">
				<title>Sheet.57</title>
				<path d="M0 138.67 A2.67391 2.68839 0 0 1 3.28 137 A9.48235 9.5337 0 0 1 3.57 139.02 A206.495 207.613 0 0 1 3.69
							 140.73 A103.49 104.05 0 0 1 3.89 144.84 A2.00318 2.01403 0 0 1 2.78 146.39 A3.65323 3.67302 0 0 1 0.49
							 147.05 L0 138.67 Z" class="st5"/>
			</g>
			<g id="shape58-186" v:mID="58" v:groupContext="shape" transform="translate(4.77364,-13.9864)">
				<title>Sheet.58</title>
				<path d="M0.1 145.21 L0.11 146.09 C0.11 146.09 0 146.57 1.78 146.87 C1.78 146.87 3.7 147.06 3.96 146.57 L3.94 144.9
							 C3.94 144.9 2.57 146.3 0.16 145.17 L0.1 145.21 Z" class="st6"/>
				<path d="M0.1 145.21 L0.11 146.09 C0.11 146.09 0 146.57 1.78 146.87 C1.78 146.87 3.7 147.06 3.96 146.57 L3.94 144.9
							 C3.94 144.9 2.57 146.3 0.16 145.17" class="st7"/>
			</g>
			<g id="shape59-190" v:mID="59" v:groupContext="shape" transform="translate(3.14026,-15.1692)">
				<title>Sheet.59</title>
				<path d="M7.1 142.85 C7 145.45 5.45 147.06 3.55 147.06 C1.65 147.06 0.03 145.45 0 142.85 C0.03 140.35 1.65 138.68
							 3.55 138.6 C5.45 138.68 7 140.35 7.1 142.85 L-1.78 136.49 L7.1 142.85 Z" class="st8"/>
				<path d="M7.1 142.85 C7 145.45 5.45 147.06 3.55 147.06 C1.65 147.06 0.03 145.45 0 142.85 C0.03 140.35 1.65 138.68
							 3.55 138.6 C5.45 138.68 7 140.35 7.1 142.85" class="st9"/>
			</g>
			<g id="shape60-194" v:mID="60" v:groupContext="shape" transform="translate(2.19511,-1.75807)">
				<title>Sheet.60</title>
				<path d="M0 143.82 L0 138.62 L0 143.82 ZM5.68 147.06 L5.68 141.86 L5.68 147.06 Z" class="st10"/>
				<path d="M0 143.82 L0 138.62M5.68 147.06 L5.68 141.86" class="st11"/>
			</g>
			<g id="shape61-197" v:mID="61" v:groupContext="shape" transform="translate(0.55512,-0.703671)">
				<title>Sheet.61</title>
				<path d="M10.95 146.69 C12.85 145.81 12.67 144.82 12.67 144.82 C12.64 142.84 12.34 138.8 12.3 138.32 C12.06 135.62
							 10.19 133.99 9.61 133.48 C9.14 133.07 8.69 132.75 8.19 132.57 L8.16 131.88 C9.12 131.01 9.69 129.78
							 9.69 128.38 C9.69 126.04 8.1 124.14 6.14 124.14 C4.18 124.14 2.59 126.04 2.59 128.38 C2.59 129.8 3.16
							 131.04 4.05 131.82 L1.09 133.49 C1.09 133.49 0.35 133.88 0.27 135.26 L0 141.25 C0 141.25 -0.04 141.84
							 0.26 142.19 C0.91 142.96 1.57 142.85 1.59 142.88 C3.34 145.11 5.36 145.53 7.31 146.12 C7.48 146.17 8.64
							 147.76 10.95 146.69 Z" class="st12"/>
			</g>
		</g>
		<g id="group62-199" transform="translate(140.25,-37.4426)" v:mID="62" v:groupContext="group">
			<v:userDefs>
				<v:ud v:nameU="SkinColor" v:prompt="" v:val="VT5(#da8c36)"/>
				<v:ud v:nameU="visVersion" v:prompt="" v:val="VT0(15):26"/>
				<v:ud v:nameU="SkinColor" v:prompt="" v:val="VT5(#da8c36)"/>
			</v:userDefs>
			<title>Person.62</title>
			<g id="shape63-200" v:mID="63" v:groupContext="shape" transform="translate(0.410457,-0.213023)">
				<title>Sheet.63</title>
				<path d="M1.18 133.43 L1.09 133.48 C0.57 133.85 0.32 134.47 0.26 135.25 C0.22 136.37 0.18 137.27 0.16 137.63 L0.08
							 139.35 C0.06 139.84 0.02 140.81 0 141.25 C-0.03 142.13 0.61 142.76 1.59 142.87 C2.74 144.07 3.04 144.57
							 4.7 145.26 C6.06 145.74 7.31 146.11 7.31 146.11 C8.32 147.01 9.06 147.12 9.77 147.04 A3.99513 4.01677
							 -180 0 0 11.56 146.36 A2.00318 2.01403 -180 0 0 12.67 144.81 A103.49 104.05 -180 0 0 12.47 140.7 A206.495
							 207.613 -180 0 0 12.35 138.99 A9.48235 9.5337 -180 0 0 12.06 136.97 A7.68302 7.72463 -180 0 0 8.17 132.56
							 L8.16 131.86 C9.04 131.15 9.63 129.94 9.69 128.38 C9.59 125.88 8.03 124.21 6.13 124.13 C4.24 124.21
							 2.61 125.88 2.58 128.38 C2.6 129.92 3.18 131.11 4.04 131.82 L1.25 133.39 C1.23 133.4 1.2 133.42 1.18
							 133.43 ZM1.1 133.48 C1.1 133.48 1.1 133.49 1.09 133.49 L1.1 133.48 Z" class="st1"/>
				<path d="M1.18 133.43 L1.09 133.48 C0.57 133.85 0.32 134.47 0.26 135.25 C0.22 136.37 0.18 137.27 0.16 137.63 L0.08
							 139.35 C0.06 139.84 0.02 140.81 0 141.25 C-0.03 142.13 0.61 142.76 1.59 142.87 C2.74 144.07 3.04 144.57
							 4.7 145.26 C6.06 145.74 7.31 146.11 7.31 146.11 C8.32 147.01 9.06 147.12 9.77 147.04 A3.99513 4.01677
							 -180 0 0 11.56 146.36 A2.00318 2.01403 -180 0 0 12.67 144.81 A103.49 104.05 -180 0 0 12.47 140.7 A206.495
							 207.613 -180 0 0 12.35 138.99 A9.48235 9.5337 -180 0 0 12.06 136.97 A7.68302 7.72463 -180 0 0 8.17 132.56
							 L8.16 131.86 C9.04 131.15 9.63 129.94 9.69 128.38 C9.59 125.88 8.03 124.21 6.13 124.13 C4.24 124.21
							 2.61 125.88 2.58 128.38 C2.6 129.92 3.18 131.11 4.04 131.82 L1.25 133.39 C1.23 133.4 1.2 133.42 1.18
							 133.43M1.1 133.48 C1.1 133.48 1.1 133.49 1.09 133.49" class="st2"/>
			</g>
			<g id="shape64-203" v:mID="64" v:groupContext="shape" transform="translate(0.555746,-0.697956)">
				<title>Sheet.64</title>
				<path d="M0.16 137.63 C0.18 137.27 0.22 136.37 0.27 135.25 C0.4 133.42 1.59 132.45 4.94 133.74 C5.78 134.37 10.23
							 136.07 9.41 144.16 L9.77 147.04 C9.06 147.12 8.32 147.01 7.31 146.11 C7.31 146.11 6.07 145.74 4.7 145.26
							 C3.04 144.57 2.74 144.07 1.59 142.87 C0.61 142.76 -0.03 142.13 0 141.25 C0.02 140.81 0.06 139.84 0.08
							 139.35 L0.16 137.63 Z" class="st3"/>
			</g>
			<g id="shape65-206" v:mID="65" v:groupContext="shape" transform="translate(1.64746,-9.11874)">
				<title>Sheet.65</title>
				<path d="M7.69 147.06 L10.97 145.39 A7.68302 7.72463 -180 0 0 2.96 140.23 L0 141.9 A7.55046 7.59136 0 0 1 7.69 147.06
							 Z" class="st4"/>
			</g>
			<g id="shape66-209" v:mID="66" v:groupContext="shape" transform="translate(9.33433,-0.728643)">
				<title>Sheet.66</title>
				<path d="M0 138.67 A2.67391 2.68839 0 0 1 3.28 137 A9.48235 9.5337 0 0 1 3.57 139.02 A206.495 207.613 0 0 1 3.69
							 140.73 A103.49 104.05 0 0 1 3.89 144.84 A2.00318 2.01403 0 0 1 2.78 146.39 A3.65323 3.67302 0 0 1 0.49
							 147.05 L0 138.67 Z" class="st5"/>
			</g>
			<g id="shape67-212" v:mID="67" v:groupContext="shape" transform="translate(4.77364,-13.9864)">
				<title>Sheet.67</title>
				<path d="M0.1 145.21 L0.11 146.09 C0.11 146.09 0 146.57 1.78 146.87 C1.78 146.87 3.7 147.06 3.96 146.57 L3.94 144.9
							 C3.94 144.9 2.57 146.3 0.16 145.17 L0.1 145.21 Z" class="st6"/>
				<path d="M0.1 145.21 L0.11 146.09 C0.11 146.09 0 146.57 1.78 146.87 C1.78 146.87 3.7 147.06 3.96 146.57 L3.94 144.9
							 C3.94 144.9 2.57 146.3 0.16 145.17" class="st7"/>
			</g>
			<g id="shape68-216" v:mID="68" v:groupContext="shape" transform="translate(3.14026,-15.1692)">
				<title>Sheet.68</title>
				<path d="M7.1 142.85 C7 145.45 5.45 147.06 3.55 147.06 C1.65 147.06 0.03 145.45 0 142.85 C0.03 140.35 1.65 138.68
							 3.55 138.6 C5.45 138.68 7 140.35 7.1 142.85 L-1.78 136.49 L7.1 142.85 Z" class="st8"/>
				<path d="M7.1 142.85 C7 145.45 5.45 147.06 3.55 147.06 C1.65 147.06 0.03 145.45 0 142.85 C0.03 140.35 1.65 138.68
							 3.55 138.6 C5.45 138.68 7 140.35 7.1 142.85" class="st9"/>
			</g>
			<g id="shape69-220" v:mID="69" v:groupContext="shape" transform="translate(2.19511,-1.75807)">
				<title>Sheet.69</title>
				<path d="M0 143.82 L0 138.62 L0 143.82 ZM5.68 147.06 L5.68 141.86 L5.68 147.06 Z" class="st10"/>
				<path d="M0 143.82 L0 138.62M5.68 147.06 L5.68 141.86" class="st11"/>
			</g>
			<g id="shape70-223" v:mID="70" v:groupContext="shape" transform="translate(0.55512,-0.703671)">
				<title>Sheet.70</title>
				<path d="M10.95 146.69 C12.85 145.81 12.67 144.82 12.67 144.82 C12.64 142.84 12.34 138.8 12.3 138.32 C12.06 135.62
							 10.19 133.99 9.61 133.48 C9.14 133.07 8.69 132.75 8.19 132.57 L8.16 131.88 C9.12 131.01 9.69 129.78
							 9.69 128.38 C9.69 126.04 8.1 124.14 6.14 124.14 C4.18 124.14 2.59 126.04 2.59 128.38 C2.59 129.8 3.16
							 131.04 4.05 131.82 L1.09 133.49 C1.09 133.49 0.35 133.88 0.27 135.26 L0 141.25 C0 141.25 -0.04 141.84
							 0.26 142.19 C0.91 142.96 1.57 142.85 1.59 142.88 C3.34 145.11 5.36 145.53 7.31 146.12 C7.48 146.17 8.64
							 147.76 10.95 146.69 Z" class="st12"/>
			</g>
		</g>
		<g id="shape72-225" v:mID="72" v:groupContext="shape" transform="translate(60.25,-92.5676)">
			<title>Sheet.72</title>
			<desc>Je veux sauvegarder ltat de la plante dans la BD</desc>
			<v:textBlock v:margins="rect(4,4,4,4)"/>
			<v:textRect cx="76" cy="137.058" width="152" height="20"/>
			<rect x="0" y="127.058" width="152" height="20" class="st33"/>
			<text x="14.48" y="140.06" class="st34" v:langID="1033"><v:paragraph v:horizAlign="1"/><v:tabList/>Je veux sauvegarder ltat de la plante dans la BD</text>		</g>
		<g id="shape75-228" v:mID="75" v:groupContext="shape" transform="translate(212.767,-122.033)">
			<title>Database</title>
			<desc>La ligne est bloque</desc>
			<v:userDefs>
				<v:ud v:nameU="msvShapeCategories" v:prompt="" v:val="VT4(Icon)"/>
				<v:ud v:nameU="visVersion" v:prompt="" v:val="VT0(15):26"/>
			</v:userDefs>
			<v:textBlock v:margins="rect(2,2,2,2)"/>
			<v:textRect cx="52.2001" cy="134.791" width="70.47" height="24.5346"/>
			<path d="M-0.01 127.2 A8.49512 4.57474 179.39 1 1 16.98 127.02 A8.49512 4.57474 179.39 1 1 -0.01 127.2" class="st35"/>
			<path d="M16.97 127.26 L16.97 141.92 A8.08131 4.76985 0 0 1 8.47 146.93 A8.0558 4.75479 0 0 1 -0 141.92 L0 127.26"
					class="st35"/>
			<text x="18.97" y="137.19" class="st36" v:langID="1033"><v:paragraph/><v:tabList/>La ligne est bloque</text>		</g>
		<g id="shape76-233" v:mID="76" v:groupContext="shape" transform="translate(72.75,-78.0676)">
			<title>Sheet.76</title>
			<desc>Je veux un petit fichier CSS</desc>
			<v:textBlock v:margins="rect(4,4,4,4)"/>
			<v:textRect cx="76" cy="137.058" width="152" height="20"/>
			<rect x="0" y="127.058" width="152" height="20" class="st33"/>
			<text x="43.49" y="140.06" class="st34" v:langID="1033"><v:paragraph v:horizAlign="1"/><v:tabList/>Je veux un petit fichier CSS</text>		</g>
		<g id="shape82-236" v:mID="82" v:groupContext="shape" transform="translate(55.75,-68.0676)">
			<title>Sheet.82</title>
			<desc>O est mon HTML ?</desc>
			<v:textBlock v:margins="rect(4,4,4,4)"/>
			<v:textRect cx="76" cy="137.058" width="152" height="20"/>
			<rect x="0" y="127.058" width="152" height="20" class="st33"/>
			<text x="51.95" y="140.06" class="st34" v:langID="1033"><v:paragraph v:horizAlign="1"/><v:tabList/>O est mon HTML ?</text>		</g>
		<g id="shape83-239" v:mID="83" v:groupContext="shape" transform="translate(0.375,-56.5676)">
			<title>Sheet.83</title>
			<desc>Je devrais passer en premier, limage que je veux est lourde</desc>
			<v:textBlock v:margins="rect(4,4,4,4)"/>
			<v:textRect cx="79.25" cy="137.058" width="158.51" height="20"/>
			<rect x="0" y="127.058" width="158.5" height="20" class="st33"/>
			<text x="6.72" y="138.86" class="st34" v:langID="1033"><v:paragraph v:horizAlign="1"/><v:tabList/>Je devrais passer en premier, limage que je veux est lourde</text>		</g>
		<g id="shape84-242" v:mID="84" v:groupContext="shape" transform="translate(14.25,-42.0676)">
			<title>Sheet.84</title>
			<desc>Je crois que vais attendre longtemps...</desc>
			<v:textBlock v:margins="rect(4,4,4,4)"/>
			<v:textRect cx="76" cy="137.058" width="152" height="20"/>
			<rect x="0" y="127.058" width="152" height="20" class="st33"/>
			<text x="29.3" y="140.06" class="st34" v:langID="1033"><v:paragraph v:horizAlign="1"/><v:tabList/>Je crois que vais attendre longtemps...  </text>		</g>
		<g id="group85-245" transform="translate(275.25,-105.747)" v:mID="85" v:groupContext="group">
			<v:userDefs>
				<v:ud v:nameU="visVersion" v:prompt="" v:val="VT0(15):26"/>
				<v:ud v:nameU="ShowActor" v:prompt="" v:val="VT0(0):5"/>
				<v:ud v:nameU="ShowDestruction" v:prompt="" v:val="VT0(0):5"/>
			</v:userDefs>
			<title>Object lifeline.21</title>
			<desc>Client</desc>
			<g id="shape86-246" v:mID="86" v:groupContext="shape" transform="translate(-12.1918,5.68953)">
				<title>Sheet.86</title>
				<rect x="0" y="121.858" width="54" height="25.2" class="st37"/>
			</g>
			<g id="shape87-248" v:mID="87" v:groupContext="shape" transform="translate(5.80816,-17.4209)">
				<title>Sheet.87</title>
				<path d="M9 147.06 a0 0 0 1 1 0 0 a0 0 0 1 1 0 0 Z" class="st37"/>
			</g>
			<g id="shape88-250" v:mID="88" v:groupContext="shape" transform="translate(9.8721,105.747)">
				<title>Sheet.88</title>
			</g>
			<g id="shape89-252" v:mID="89" v:groupContext="shape" transform="translate(161.866,147.058) rotate(90)">
				<title>Sheet.89</title>
				<path d="M0 147.06 L91.81 147.06" class="st38"/>
			</g>
			<g id="shape85-255" v:mID="85" v:groupContext="groupContent">
				<v:textBlock v:margins="rect(4,4,4,4)"/>
				<v:textRect cx="14.8082" cy="140.148" width="29.62" height="13.8209"/>
				<rect x="0" y="133.237" width="29.6163" height="13.8209" class="st37"/>
				<text x="7.59" y="141.95" class="st39" v:langID="1033"><v:paragraph v:horizAlign="1"/><v:tabList/>Client</text>			</g>
		</g>
		<g id="group90-258" transform="translate(337.325,-105.747)" v:mID="90" v:groupContext="group">
			<v:userDefs>
				<v:ud v:nameU="visVersion" v:prompt="" v:val="VT0(15):26"/>
				<v:ud v:nameU="ShowActor" v:prompt="" v:val="VT0(0):5"/>
				<v:ud v:nameU="ShowDestruction" v:prompt="" v:val="VT0(0):5"/>
			</v:userDefs>
			<title>Object lifeline.26</title>
			<desc>Serveur</desc>
			<g id="shape91-259" v:mID="91" v:groupContext="shape" transform="translate(-12.1918,5.68953)">
				<title>Sheet.91</title>
				<rect x="0" y="121.858" width="54" height="25.2" class="st37"/>
			</g>
			<g id="shape92-261" v:mID="92" v:groupContext="shape" transform="translate(5.80816,-17.4209)">
				<title>Sheet.92</title>
				<path d="M9 147.06 a0 0 0 1 1 0 0 a0 0 0 1 1 0 0 Z" class="st37"/>
			</g>
			<g id="shape93-263" v:mID="93" v:groupContext="shape" transform="translate(9.8721,105.747)">
				<title>Sheet.93</title>
			</g>
			<g id="shape94-265" v:mID="94" v:groupContext="shape" transform="translate(161.866,147.058) rotate(90)">
				<title>Sheet.94</title>
				<path d="M0 147.06 L91.81 147.06" class="st38"/>
			</g>
			<g id="shape90-268" v:mID="90" v:groupContext="groupContent">
				<v:textBlock v:margins="rect(4,4,4,4)"/>
				<v:textRect cx="14.8082" cy="140.148" width="29.62" height="13.8209"/>
				<rect x="0" y="133.237" width="29.6163" height="13.8209" class="st37"/>
				<text x="5.21" y="141.95" class="st39" v:langID="1033"><v:paragraph v:horizAlign="1"/><v:tabList/>Serveur</text>			</g>
		</g>
		<g id="shape95-271" v:mID="95" v:groupContext="shape" transform="translate(313.155,-95.9396) rotate(9.03642)">
			<title>Sheet.95</title>
			<path d="M0 147.06 L62.85 147.06" class="st40"/>
		</g>
		<g id="shape96-277" v:mID="96" v:groupContext="shape" transform="translate(382.08,252.776) rotate(168.25)">
			<title>Sheet.96</title>
			<path d="M0 147.06 L63.24 147.06" class="st42"/>
		</g>
		<g id="shape97-283" v:mID="97" v:groupContext="shape" transform="translate(313.155,-91.3121) rotate(9.03642)">
			<title>Sheet.97</title>
			<path d="M0 147.06 L62.85 147.06" class="st40"/>
		</g>
		<g id="shape98-288" v:mID="98" v:groupContext="shape" transform="translate(313.155,-86.376) rotate(9.03642)">
			<title>Sheet.98</title>
			<path d="M0 147.06 L62.85 147.06" class="st40"/>
		</g>
		<g id="shape99-293" v:mID="99" v:groupContext="shape" transform="translate(313.155,-81.44) rotate(9.03642)">
			<title>Sheet.99</title>
			<path d="M0 147.06 L62.85 147.06" class="st40"/>
		</g>
		<g id="shape100-298" v:mID="100" v:groupContext="shape" transform="translate(382.323,258.02) rotate(168.25)">
			<title>Sheet.100</title>
			<path d="M0 147.06 L63.24 147.06" class="st42"/>
		</g>
		<g id="shape101-303" v:mID="101" v:groupContext="shape" transform="translate(382.323,263.265) rotate(168.25)">
			<title>Sheet.101</title>
			<path d="M0 147.06 L63.24 147.06" class="st42"/>
		</g>
		<g id="shape102-308" v:mID="102" v:groupContext="shape" transform="translate(382.323,268.201) rotate(168.25)">
			<title>Sheet.102</title>
			<path d="M0 147.06 L63.24 147.06" class="st42"/>
		</g>
		<g id="shape103-313" v:mID="103" v:groupContext="shape" transform="translate(365.25,-55.2594)">
			<title>Sheet.103</title>
			<desc>Si la premire requte est longue, elle bloquera les autres m...</desc>
			<v:textBlock v:margins="rect(4,4,4,4)"/>
			<v:textRect cx="33.25" cy="137.058" width="66.5" height="20"/>
			<rect x="0" y="127.058" width="66.5" height="20" class="st33"/>
			<text x="6.11" y="124.46" class="st34" v:langID="1033"><v:paragraph v:horizAlign="1"/><v:tabList/>Si la premire requte <tspan
						x="14.78" dy="1.2em" class="st44">est longue</tspan>, elle <tspan x="9.83" dy="1.2em" class="st44">bloquera les autres </tspan><tspan
						x="16.38" dy="1.2em" class="st44">mme avec le </tspan><tspan x="21.29" dy="1.2em" class="st44">pipelining </tspan> </text>		</g>
		<g id="shape104-320" v:mID="104" v:groupContext="shape" transform="translate(356.25,-39.9469)">
			<title>Right Brace</title>
			<v:userDefs>
				<v:ud v:nameU="visVersion" v:prompt="" v:val="VT0(15):26"/>
			</v:userDefs>
			<path d="M0 147.06 A18.0738 8.47209 -180 0 0 6.75 142 L6.75 121.75 L13.5 121.75 L6.75 121.75 L6.75 101.5 A18.0738 8.47209
						 -180 0 0 0 96.43" class="st45"/>
		</g>
	</g>
</svg>
