<?xml version="1.0" encoding="UTF-8" standalone="no"?>
<!DOCTYPE svg PUBLIC "-//W3C//DTD SVG 1.1//EN" "http://www.w3.org/Graphics/SVG/1.1/DTD/svg11.dtd">
<!-- Generated by Microsoft Visio, SVG Export Drawing1.svg Page-1 -->
<svg xmlns="http://www.w3.org/2000/svg" xmlns:xlink="http://www.w3.org/1999/xlink" xmlns:ev="http://www.w3.org/2001/xml-events"
		xmlns:v="http://schemas.microsoft.com/visio/2003/SVGExtensions/" width="6.66146in" height="1.14063in"
		viewBox="0 0 479.625 82.125" xml:space="preserve" color-interpolation-filters="sRGB" class="st6">
	<v:documentProperties v:langID="1033" v:viewMarkup="false">
		<v:userDefs>
			<v:ud v:nameU="msvNoAutoConnect" v:val="VT0(1):26"/>
		</v:userDefs>
	</v:documentProperties>

	<style type="text/css">
	<![CDATA[
		.st1 {marker-end:url(#mrkr1-6);stroke:#000000;stroke-linecap:round;stroke-linejoin:round;stroke-width:0.75}
		.st2 {fill:#000000;fill-opacity:1;stroke:#000000;stroke-opacity:1;stroke-width:0.22935779816514}
		.st3 {fill:none;stroke:none;stroke-linecap:round;stroke-linejoin:round;stroke-width:0.75}
		.st4 {fill:#000000;font-family:Calibri;font-size:1.00001em}
		.st5 {stroke:#000000;stroke-linecap:round;stroke-linejoin:round;stroke-width:0.75}
		.st6 {fill:none;fill-rule:evenodd;font-size:12px;overflow:visible;stroke-linecap:square;stroke-miterlimit:3}
	]]>
	</style>

	<defs id="Markers">
		<g id="lend1">
			<path d="M 1 -1 L 0 0 L 1 1 " style="stroke-linecap:round;stroke-linejoin:round;fill:none"/>
		</g>
		<marker id="mrkr1-6" class="st2" v:arrowType="1" v:arrowSize="2" orient="auto" markerUnits="strokeWidth" overflow="visible">
			<use xlink:href="#lend1" transform="scale(-4.36,-4.36) "/>
		</marker>
	</defs>
	<g v:mID="0" v:index="1" v:groupContext="foregroundPage">
		<title>Page-1</title>
		<v:pageProperties v:drawingScale="1" v:pageScale="1" v:drawingUnits="19" v:shadowOffsetX="9" v:shadowOffsetY="-9"/>
		<g id="shape1-1" v:mID="1" v:groupContext="shape" transform="translate(72,-41.25)">
			<title>Sheet.1</title>
			<path d="M0 82.13 L365.62 82.13" class="st1"/>
		</g>
		<g id="shape2-7" v:mID="2" v:groupContext="shape" transform="translate(72.2813,-43.375)">
			<title>Sheet.2</title>
			<desc>1991</desc>
			<v:textBlock v:margins="rect(4,4,4,4)"/>
			<v:textRect cx="18.2813" cy="72.125" width="36.57" height="20"/>
			<rect x="0" y="62.125" width="36.5625" height="20" class="st3"/>
			<text x="6.12" y="75.73" class="st4" v:langID="1033"><v:paragraph v:horizAlign="1"/><v:tabList/>1991</text>		</g>
		<g id="shape4-10" v:mID="4" v:groupContext="shape" transform="translate(18.375,-18.75)">
			<title>Sheet.4</title>
			<desc>HTTP 0.9</desc>
			<v:textBlock v:margins="rect(4,4,4,4)"/>
			<v:textRect cx="76" cy="72.125" width="152" height="20"/>
			<rect x="0" y="62.125" width="152" height="20" class="st3"/>
			<text x="54.36" y="75.73" class="st4" v:langID="1033"><v:paragraph v:horizAlign="1"/><v:tabList/>HTTP 0.9</text>		</g>
		<g id="shape5-13" v:mID="5" v:groupContext="shape" transform="translate(76.375,-43.75)">
			<title>Sheet.5</title>
			<desc>1996</desc>
			<v:textBlock v:margins="rect(4,4,4,4)"/>
			<v:textRect cx="76" cy="72.125" width="152" height="20"/>
			<rect x="0" y="62.125" width="152" height="20" class="st3"/>
			<text x="63.84" y="75.73" class="st4" v:langID="1033"><v:paragraph v:horizAlign="1"/><v:tabList/>1996</text>		</g>
		<g id="shape6-16" v:mID="6" v:groupContext="shape" transform="translate(120.25,-18.75)">
			<title>Sheet.6</title>
			<desc>HTTP 1.0</desc>
			<v:textBlock v:margins="rect(4,4,4,4)"/>
			<v:textRect cx="28.4688" cy="72.125" width="56.94" height="20"/>
			<rect x="0" y="62.125" width="56.9375" height="20" class="st3"/>
			<text x="6.83" y="75.73" class="st4" v:langID="1033"><v:paragraph v:horizAlign="1"/><v:tabList/>HTTP 1.0</text>		</g>
		<g id="shape7-19" v:mID="7" v:groupContext="shape" transform="translate(159.75,-43.375)">
			<title>Sheet.7</title>
			<desc>1999</desc>
			<v:textBlock v:margins="rect(4,4,4,4)"/>
			<v:textRect cx="31.5" cy="72.125" width="63" height="20"/>
			<rect x="0" y="62.125" width="63" height="20" class="st3"/>
			<text x="19.34" y="75.73" class="st4" v:langID="1033"><v:paragraph v:horizAlign="1"/><v:tabList/>1999</text>		</g>
		<g id="shape8-22" v:mID="8" v:groupContext="shape" transform="translate(169.312,-18.6875)">
			<title>Sheet.8</title>
			<desc>HTTP 1.1</desc>
			<v:textBlock v:margins="rect(4,4,4,4)"/>
			<v:textRect cx="28.4687" cy="72.125" width="56.94" height="20"/>
			<rect x="0" y="62.125" width="56.9375" height="20" class="st3"/>
			<text x="6.83" y="75.73" class="st4" v:langID="1033"><v:paragraph v:horizAlign="1"/><v:tabList/>HTTP 1.1</text>		</g>
		<g id="shape9-25" v:mID="9" v:groupContext="shape" transform="translate(364.5,-18.375)">
			<title>Sheet.9</title>
			<desc>HTTP 2</desc>
			<v:textBlock v:margins="rect(4,4,4,4)"/>
			<v:textRect cx="48.375" cy="72.125" width="96.75" height="20"/>
			<rect x="0" y="62.125" width="96.75" height="20" class="st3"/>
			<text x="31.29" y="75.73" class="st4" v:langID="1033"><v:paragraph v:horizAlign="1"/><v:tabList/>HTTP 2</text>		</g>
		<g id="shape10-28" v:mID="10" v:groupContext="shape" transform="translate(171.563,38.375) rotate(90)">
			<title>Sheet.10</title>
			<path d="M0 82.13 L5 82.13" class="st5"/>
		</g>
		<g id="shape11-31" v:mID="11" v:groupContext="shape" transform="translate(364,-42.5625)">
			<title>Sheet.11</title>
			<desc>2015</desc>
			<v:textBlock v:margins="rect(4,4,4,4)"/>
			<v:textRect cx="48.375" cy="72.125" width="96.75" height="20"/>
			<rect x="0" y="62.125" width="96.75" height="20" class="st3"/>
			<text x="36.21" y="75.73" class="st4" v:langID="1033"><v:paragraph v:horizAlign="1"/><v:tabList/>2015</text>		</g>
		<g id="shape12-34" v:mID="12" v:groupContext="shape" transform="translate(184.5,38.5) rotate(90)">
			<title>Sheet.12</title>
			<path d="M0 82.13 L5 82.13" class="st5"/>
		</g>
		<g id="shape13-37" v:mID="13" v:groupContext="shape" transform="translate(196.875,38.5) rotate(90)">
			<title>Sheet.13</title>
			<path d="M0 82.13 L5 82.13" class="st5"/>
		</g>
		<g id="shape14-40" v:mID="14" v:groupContext="shape" transform="translate(221.625,38.5) rotate(90)">
			<title>Sheet.14</title>
			<path d="M0 82.13 L5 82.13" class="st5"/>
		</g>
		<g id="shape15-43" v:mID="15" v:groupContext="shape" transform="translate(234.563,38.375) rotate(90)">
			<title>Sheet.15</title>
			<path d="M0 82.13 L5 82.13" class="st5"/>
		</g>
		<g id="shape16-46" v:mID="16" v:groupContext="shape" transform="translate(209.25,38.375) rotate(90)">
			<title>Sheet.16</title>
			<path d="M0 82.13 L5 82.13" class="st5"/>
		</g>
		<g id="shape17-49" v:mID="17" v:groupContext="shape" transform="translate(247.5,38.5) rotate(90)">
			<title>Sheet.17</title>
			<path d="M0 82.13 L5 82.13" class="st5"/>
		</g>
		<g id="shape18-52" v:mID="18" v:groupContext="shape" transform="translate(260.438,38.5) rotate(90)">
			<title>Sheet.18</title>
			<path d="M0 82.13 L5 82.13" class="st5"/>
		</g>
		<g id="shape19-55" v:mID="19" v:groupContext="shape" transform="translate(273.375,38.5) rotate(90)">
			<title>Sheet.19</title>
			<path d="M0 82.13 L5 82.13" class="st5"/>
		</g>
		<g id="shape20-58" v:mID="20" v:groupContext="shape" transform="translate(286.313,38.4375) rotate(90)">
			<title>Sheet.20</title>
			<path d="M0 82.13 L5 82.13" class="st5"/>
		</g>
		<g id="shape21-61" v:mID="21" v:groupContext="shape" transform="translate(300.375,38.4375) rotate(90)">
			<title>Sheet.21</title>
			<path d="M0 82.13 L5 82.13" class="st5"/>
		</g>
		<g id="shape22-64" v:mID="22" v:groupContext="shape" transform="translate(314.265,38.5) rotate(90)">
			<title>Sheet.22</title>
			<path d="M0 82.13 L5 82.13" class="st5"/>
		</g>
		<g id="shape23-67" v:mID="23" v:groupContext="shape" transform="translate(328.155,38.4375) rotate(90)">
			<title>Sheet.23</title>
			<path d="M0 82.13 L5 82.13" class="st5"/>
		</g>
		<g id="shape24-70" v:mID="24" v:groupContext="shape" transform="translate(342.045,38.4375) rotate(90)">
			<title>Sheet.24</title>
			<path d="M0 82.13 L5 82.13" class="st5"/>
		</g>
		<g id="shape25-73" v:mID="25" v:groupContext="shape" transform="translate(355.935,38.5) rotate(90)">
			<title>Sheet.25</title>
			<path d="M0 82.13 L5 82.13" class="st5"/>
		</g>
		<g id="shape26-76" v:mID="26" v:groupContext="shape" transform="translate(369.825,38.4375) rotate(90)">
			<title>Sheet.26</title>
			<path d="M0 82.13 L5 82.13" class="st5"/>
		</g>
		<g id="shape27-79" v:mID="27" v:groupContext="shape" transform="translate(383.715,38.5) rotate(90)">
			<title>Sheet.27</title>
			<path d="M0 82.13 L5 82.13" class="st5"/>
		</g>
		<g id="shape28-82" v:mID="28" v:groupContext="shape" transform="translate(397.605,38.5) rotate(90)">
			<title>Sheet.28</title>
			<path d="M0 82.13 L5 82.13" class="st5"/>
		</g>
		<g id="shape29-85" v:mID="29" v:groupContext="shape" transform="translate(411.495,38.5) rotate(90)">
			<title>Sheet.29</title>
			<path d="M0 82.13 L5 82.13" class="st5"/>
		</g>
		<g id="shape30-88" v:mID="30" v:groupContext="shape" transform="translate(425.385,38.5) rotate(90)">
			<title>Sheet.30</title>
			<path d="M0 82.13 L5 82.13" class="st5"/>
		</g>
		<g id="shape31-91" v:mID="31" v:groupContext="shape" transform="translate(439.275,38.5) rotate(90)">
			<title>Sheet.31</title>
			<path d="M0 82.13 L5 82.13" class="st5"/>
		</g>
		<g id="shape32-94" v:mID="32" v:groupContext="shape" transform="translate(453.165,38.5) rotate(90)">
			<title>Sheet.32</title>
			<path d="M0 82.13 L5 82.13" class="st5"/>
		</g>
		<g id="shape33-97" v:mID="33" v:groupContext="shape" transform="translate(467.055,38.5) rotate(90)">
			<title>Sheet.33</title>
			<path d="M0 82.13 L5 82.13" class="st5"/>
		</g>
		<g id="shape34-100" v:mID="34" v:groupContext="shape" transform="translate(480.945,38.5) rotate(90)">
			<title>Sheet.34</title>
			<path d="M0 82.13 L5 82.13" class="st5"/>
		</g>
		<g id="shape35-103" v:mID="35" v:groupContext="shape" transform="translate(494.835,38.5) rotate(90)">
			<title>Sheet.35</title>
			<path d="M0 82.13 L5 82.13" class="st5"/>
		</g>
		<g id="shape36-106" v:mID="36" v:groupContext="shape" transform="translate(282.375,-44.4375)">
			<title>Sheet.36</title>
			<desc>2009</desc>
			<v:textBlock v:margins="rect(4,4,4,4)"/>
			<v:textRect cx="48.375" cy="72.125" width="96.75" height="20"/>
			<rect x="0" y="62.125" width="96.75" height="20" class="st3"/>
			<text x="36.21" y="75.73" class="st4" v:langID="1033"><v:paragraph v:horizAlign="1"/><v:tabList/>2009</text>		</g>
		<g id="shape37-109" v:mID="37" v:groupContext="shape" transform="translate(282.938,-18)">
			<title>Sheet.37</title>
			<desc>SPDY</desc>
			<v:textBlock v:margins="rect(4,4,4,4)"/>
			<v:textRect cx="48.375" cy="72.125" width="96.75" height="20"/>
			<rect x="0" y="62.125" width="96.75" height="20" class="st3"/>
			<text x="35.9" y="75.73" class="st4" v:langID="1033"><v:paragraph v:horizAlign="1"/><v:tabList/>SPDY</text>		</g>
	</g>
</svg>
