<?xml version="1.0" encoding="UTF-8" standalone="no"?>
<!DOCTYPE svg PUBLIC "-//W3C//DTD SVG 1.1//EN" "http://www.w3.org/Graphics/SVG/1.1/DTD/svg11.dtd">
<!-- Generated by Microsoft Visio, SVG Export http2-stream2.svg Page-1 -->
<svg xmlns="http://www.w3.org/2000/svg" xmlns:xlink="http://www.w3.org/1999/xlink" xmlns:ev="http://www.w3.org/2001/xml-events"
		xmlns:v="http://schemas.microsoft.com/visio/2003/SVGExtensions/" width="5.6441in" height="1.69271in"
		viewBox="0 0 406.375 121.875" xml:space="preserve" color-interpolation-filters="sRGB" class="st38">
	<v:documentProperties v:langID="1033" v:viewMarkup="false"/>

	<style type="text/css">
	<![CDATA[
		.st1 {fill:#ff00ff;fill-opacity:0;stroke:#000000;stroke-linecap:round;stroke-linejoin:round;stroke-opacity:0;stroke-width:0.72}
		.st2 {fill:url(#grad12-7);stroke:#ffffff;stroke-linecap:round;stroke-linejoin:round;stroke-width:0.72}
		.st3 {fill:url(#grad0-16);stroke:#ffffff;stroke-linecap:round;stroke-linejoin:round;stroke-width:0.72}
		.st4 {fill:url(#grad11-23);stroke:#000000;stroke-linecap:round;stroke-linejoin:round;stroke-width:0.72}
		.st5 {stroke:#ffffff;stroke-linecap:round;stroke-linejoin:round;stroke-width:0.72}
		.st6 {stroke:#000000;stroke-linecap:round;stroke-linejoin:round;stroke-width:0.72}
		.st7 {fill:url(#grad10-39);stroke:#000000;stroke-linecap:round;stroke-linejoin:round;stroke-width:0.72}
		.st8 {fill:#ffffff;stroke:none;stroke-linecap:round;stroke-linejoin:round;stroke-width:0.24}
		.st9 {fill:#969696;fill-opacity:0.3;stroke:none;stroke-linecap:round;stroke-linejoin:round;stroke-width:0.72}
		.st10 {fill:none;stroke:#000000;stroke-linecap:round;stroke-linejoin:round;stroke-width:1.5}
		.st11 {fill:#ffffff;stroke:#000000;stroke-linecap:round;stroke-linejoin:round;stroke-width:0.75}
		.st12 {fill:#000000}
		.st13 {stroke:#000000;stroke-linecap:round;stroke-linejoin:round;stroke-width:0.75}
		.st14 {marker-end:url(#mrkr3-64);stroke:#000000;stroke-linecap:round;stroke-linejoin:round;stroke-width:0.75}
		.st15 {fill:#000000;fill-opacity:1;stroke:#000000;stroke-opacity:1;stroke-width:0.22935779816514}
		.st16 {fill:url(#grad0-76)}
		.st17 {stroke:#ffffff;stroke-linecap:round;stroke-linejoin:round;stroke-width:0.36}
		.st18 {fill:url(#grad11-81)}
		.st19 {fill:url(#grad12-88);stroke:#ffffff;stroke-linecap:round;stroke-linejoin:round;stroke-width:0.36}
		.st20 {stroke:#000000;stroke-linecap:round;stroke-linejoin:round;stroke-width:1}
		.st21 {fill:url(#grad12-97);stroke:#000000;stroke-linecap:round;stroke-linejoin:round;stroke-width:0.36}
		.st22 {stroke:#000000;stroke-linecap:round;stroke-linejoin:round;stroke-width:0.6}
		.st23 {fill:#000000;stroke:#000000;stroke-linecap:round;stroke-linejoin:round;stroke-width:0.36}
		.st24 {fill:url(#grad8-113);stroke:#ffffff;stroke-linecap:round;stroke-linejoin:round;stroke-width:0.12}
		.st25 {fill:url(#grad10-118);stroke:none;stroke-linecap:round;stroke-linejoin:round;stroke-width:0.12}
		.st26 {fill:#000000;stroke:none;stroke-linecap:round;stroke-linejoin:round;stroke-width:0.24}
		.st27 {stroke:#000000;stroke-linecap:round;stroke-linejoin:round;stroke-width:0.36}
		.st28 {fill:url(#grad7-137)}
		.st29 {stroke:#000000;stroke-linecap:round;stroke-linejoin:round;stroke-width:0.72;visibility:hidden}
		.st30 {fill:#00ff00;fill-opacity:0.7}
		.st31 {fill:#000000;visibility:hidden}
		.st32 {fill:#92cddc;stroke:#000000;stroke-linecap:round;stroke-linejoin:round;stroke-width:0.75}
		.st33 {fill:#000000;font-family:Calibri;font-size:0.75em}
		.st34 {font-size:1em}
		.st35 {fill:#ffffff;stroke:#b7dde8;stroke-linecap:round;stroke-linejoin:round;stroke-width:0.75}
		.st36 {fill:#fff2cc;stroke:#000000;stroke-linecap:round;stroke-linejoin:round;stroke-width:0.75}
		.st37 {fill:#c4d6a0;stroke:#000000;stroke-linecap:round;stroke-linejoin:round;stroke-width:0.75}
		.st38 {fill:none;fill-rule:evenodd;font-size:12px;overflow:visible;stroke-linecap:square;stroke-miterlimit:3}
	]]>
	</style>

	<defs id="Patterns_And_Gradients">
		<pattern id="grad12-7" x="0" y="0" width="1" height="1" patternContentUnits="objectBoundingBox">
			<path d="M 0 0 L 0 1 L 1 1 z" style="fill:url(#grad0-8)"/>
			<path d="M 0 0 L 1 0 L 1 1 z" style="fill:url(#grad0-9)"/>
		</pattern>
		<linearGradient id="grad0-8" x1="0" y1="0" x2="1" y2="0" gradientTransform="rotate(90 0.5 0.5)">
			<stop offset="0" stop-color="#ffffff" stop-opacity="1"/>
			<stop offset="1" stop-color="#a7a7a7" stop-opacity="1"/>
		</linearGradient>
		<linearGradient id="grad0-9" x1="0" y1="0" x2="1" y2="0" gradientTransform="rotate(360 0.5 0.5)">
			<stop offset="0" stop-color="#ffffff" stop-opacity="1"/>
			<stop offset="1" stop-color="#a7a7a7" stop-opacity="1"/>
		</linearGradient>
		<linearGradient id="grad0-16" x1="0" y1="0" x2="1" y2="0" gradientTransform="rotate(270 0.5 0.5)">
			<stop offset="0" stop-color="#ffffff" stop-opacity="1"/>
			<stop offset="1" stop-color="#dfdfdf" stop-opacity="1"/>
		</linearGradient>
		<pattern id="grad11-23" x="0" y="0" width="1" height="1" patternContentUnits="objectBoundingBox">
			<path d="M 0 1 L 0 0 L 1 0 z" style="fill:url(#grad0-24)"/>
			<path d="M 0 1 L 1 1 L 1 0 z" style="fill:url(#grad0-25)"/>
		</pattern>
		<linearGradient id="grad0-24" x1="0" y1="0" x2="1" y2="0" gradientTransform="rotate(180 0.5 0.5)">
			<stop offset="0" stop-color="#ffffff" stop-opacity="1"/>
			<stop offset="1" stop-color="#c0c0c0" stop-opacity="1"/>
		</linearGradient>
		<linearGradient id="grad0-25" x1="0" y1="0" x2="1" y2="0" gradientTransform="rotate(90 0.5 0.5)">
			<stop offset="0" stop-color="#ffffff" stop-opacity="1"/>
			<stop offset="1" stop-color="#c0c0c0" stop-opacity="1"/>
		</linearGradient>
		<pattern id="grad10-39" x="0" y="0" width="1" height="1" patternContentUnits="objectBoundingBox">
			<path d="M 0.5 0.5 L 0 0 L 0 1 z" style="fill:url(#grad0-40)"/>
			<path d="M 0.5 0.5 L 1 0 L 1 1 z" style="fill:url(#grad0-41)"/>
			<path d="M 0.5 0.5 L 0 0 L 1 0 z" style="fill:url(#grad0-42)"/>
			<path d="M 0.5 0.5 L 0 1 L 1 1 z" style="fill:url(#grad0-43)"/>
		</pattern>
		<linearGradient id="grad0-40" x1="0" y1="0" x2="1" y2="0" gradientTransform="rotate(180 0.5 0.5)">
			<stop offset="0" stop-color="#ffffff" stop-opacity="1"/>
			<stop offset="1" stop-color="#c6d1e3" stop-opacity="1"/>
		</linearGradient>
		<linearGradient id="grad0-41" x1="0" y1="0" x2="1" y2="0" gradientTransform="rotate(360 0.5 0.5)">
			<stop offset="0" stop-color="#ffffff" stop-opacity="1"/>
			<stop offset="1" stop-color="#c6d1e3" stop-opacity="1"/>
		</linearGradient>
		<linearGradient id="grad0-42" x1="0" y1="0" x2="1" y2="0" gradientTransform="rotate(270 0.5 0.5)">
			<stop offset="0" stop-color="#ffffff" stop-opacity="1"/>
			<stop offset="1" stop-color="#c6d1e3" stop-opacity="1"/>
		</linearGradient>
		<linearGradient id="grad0-43" x1="0" y1="0" x2="1" y2="0" gradientTransform="rotate(90 0.5 0.5)">
			<stop offset="0" stop-color="#ffffff" stop-opacity="1"/>
			<stop offset="1" stop-color="#c6d1e3" stop-opacity="1"/>
		</linearGradient>
		<linearGradient id="grad0-76" x1="0" y1="0" x2="1" y2="0" gradientTransform="rotate(270 0.5 0.5)">
			<stop offset="0" stop-color="#ffffff" stop-opacity="1"/>
			<stop offset="1" stop-color="#e1d8c1" stop-opacity="1"/>
		</linearGradient>
		<pattern id="grad11-81" x="0" y="0" width="1" height="1" patternContentUnits="objectBoundingBox">
			<path d="M 0 1 L 0 0 L 1 0 z" style="fill:url(#grad0-82)"/>
			<path d="M 0 1 L 1 1 L 1 0 z" style="fill:url(#grad0-83)"/>
		</pattern>
		<linearGradient id="grad0-82" x1="0" y1="0" x2="1" y2="0" gradientTransform="rotate(180 0.5 0.5)">
			<stop offset="0" stop-color="#ffffff" stop-opacity="1"/>
			<stop offset="1" stop-color="#cabb97" stop-opacity="1"/>
		</linearGradient>
		<linearGradient id="grad0-83" x1="0" y1="0" x2="1" y2="0" gradientTransform="rotate(90 0.5 0.5)">
			<stop offset="0" stop-color="#ffffff" stop-opacity="1"/>
			<stop offset="1" stop-color="#cabb97" stop-opacity="1"/>
		</linearGradient>
		<pattern id="grad12-88" x="0" y="0" width="1" height="1" patternContentUnits="objectBoundingBox">
			<path d="M 0 0 L 0 1 L 1 1 z" style="fill:url(#grad0-89)"/>
			<path d="M 0 0 L 1 0 L 1 1 z" style="fill:url(#grad0-90)"/>
		</pattern>
		<linearGradient id="grad0-89" x1="0" y1="0" x2="1" y2="0" gradientTransform="rotate(90 0.5 0.5)">
			<stop offset="0" stop-color="#ffffff" stop-opacity="1"/>
			<stop offset="1" stop-color="#b6a06d" stop-opacity="1"/>
		</linearGradient>
		<linearGradient id="grad0-90" x1="0" y1="0" x2="1" y2="0" gradientTransform="rotate(360 0.5 0.5)">
			<stop offset="0" stop-color="#ffffff" stop-opacity="1"/>
			<stop offset="1" stop-color="#b6a06d" stop-opacity="1"/>
		</linearGradient>
		<pattern id="grad12-97" x="0" y="0" width="1" height="1" patternContentUnits="objectBoundingBox">
			<path d="M 0 0 L 0 1 L 1 1 z" style="fill:url(#grad0-98)"/>
			<path d="M 0 0 L 1 0 L 1 1 z" style="fill:url(#grad0-99)"/>
		</pattern>
		<linearGradient id="grad0-98" x1="0" y1="0" x2="1" y2="0" gradientTransform="rotate(90 0.5 0.5)">
			<stop offset="0" stop-color="#ffffff" stop-opacity="1"/>
			<stop offset="1" stop-color="#339966" stop-opacity="1"/>
		</linearGradient>
		<linearGradient id="grad0-99" x1="0" y1="0" x2="1" y2="0" gradientTransform="rotate(360 0.5 0.5)">
			<stop offset="0" stop-color="#ffffff" stop-opacity="1"/>
			<stop offset="1" stop-color="#339966" stop-opacity="1"/>
		</linearGradient>
		<linearGradient id="grad0-103" x1="0" y1="0" x2="1" y2="0" gradientTransform="rotate(270 0.5 0.5)">
			<stop offset="0" stop-color="#ffffff" stop-opacity="1"/>
			<stop offset="1" stop-color="#e7e4cd" stop-opacity="1"/>
		</linearGradient>
		<pattern id="grad8-113" x="0" y="0" width="1" height="1" patternContentUnits="objectBoundingBox">
			<path d="M 0 0 L 1 0 L 1 1 z" style="fill:url(#grad0-103)"/>
			<path d="M 0 0 L 0 1 L 1 1 z" style="fill:url(#grad0-114)"/>
		</pattern>
		<linearGradient id="grad0-114" x1="0" y1="0" x2="1" y2="0" gradientTransform="rotate(180 0.5 0.5)">
			<stop offset="0" stop-color="#ffffff" stop-opacity="1"/>
			<stop offset="1" stop-color="#e7e4cd" stop-opacity="1"/>
		</linearGradient>
		<pattern id="grad10-118" x="0" y="0" width="1" height="1" patternContentUnits="objectBoundingBox">
			<path d="M 0.5 0.5 L 0 0 L 0 1 z" style="fill:url(#grad0-119)"/>
			<path d="M 0.5 0.5 L 1 0 L 1 1 z" style="fill:url(#grad0-120)"/>
			<path d="M 0.5 0.5 L 0 0 L 1 0 z" style="fill:url(#grad0-121)"/>
			<path d="M 0.5 0.5 L 0 1 L 1 1 z" style="fill:url(#grad0-122)"/>
		</pattern>
		<linearGradient id="grad0-119" x1="0" y1="0" x2="1" y2="0" gradientTransform="rotate(180 0.5 0.5)">
			<stop offset="0" stop-color="#000000" stop-opacity="0.4"/>
			<stop offset="1" stop-color="#e7e4cd" stop-opacity="0.4"/>
		</linearGradient>
		<linearGradient id="grad0-120" x1="0" y1="0" x2="1" y2="0" gradientTransform="rotate(360 0.5 0.5)">
			<stop offset="0" stop-color="#000000" stop-opacity="0.4"/>
			<stop offset="1" stop-color="#e7e4cd" stop-opacity="0.4"/>
		</linearGradient>
		<linearGradient id="grad0-121" x1="0" y1="0" x2="1" y2="0" gradientTransform="rotate(270 0.5 0.5)">
			<stop offset="0" stop-color="#000000" stop-opacity="0.4"/>
			<stop offset="1" stop-color="#e7e4cd" stop-opacity="0.4"/>
		</linearGradient>
		<linearGradient id="grad0-122" x1="0" y1="0" x2="1" y2="0" gradientTransform="rotate(90 0.5 0.5)">
			<stop offset="0" stop-color="#000000" stop-opacity="0.4"/>
			<stop offset="1" stop-color="#e7e4cd" stop-opacity="0.4"/>
		</linearGradient>
		<radialGradient id="grad7-137" cx="0" cy="0" r="1.4">
			<stop offset="0" stop-color="#ffffff" stop-opacity="1"/>
			<stop offset="1" stop-color="#0000ff" stop-opacity="1"/>
		</radialGradient>
	</defs>
	<defs id="Markers">
		<g id="lend3">
			<path d="M 2 1 L 0 0 L 2 -1 " style="stroke-linecap:round;stroke-linejoin:round;fill:none"/>
		</g>
		<marker id="mrkr3-64" class="st15" v:arrowType="3" v:arrowSize="2" orient="auto" markerUnits="strokeWidth"
				overflow="visible">
			<use xlink:href="#lend3" transform="scale(-4.36,-4.36) "/>
		</marker>
	</defs>
	<g v:mID="0" v:index="1" v:groupContext="foregroundPage">
		<title>Page-1</title>
		<v:pageProperties v:drawingScale="1" v:pageScale="1" v:drawingUnits="19" v:shadowOffsetX="9" v:shadowOffsetY="-9"/>
		<g id="group1-1" transform="translate(0.75,-76.875)" v:mID="1" v:groupContext="group">
			<v:custProps>
				<v:cp v:nameU="ShapeClass" v:lbl="ShapeClass" v:type="0" v:invis="true" v:ask="false" v:langID="1033"
						v:val="VT4(Equipment)"/>
				<v:cp v:nameU="ShapeType" v:lbl="ShapeType" v:type="0" v:invis="true" v:ask="false" v:langID="1033"
						v:val="VT4(Computer)"/>
				<v:cp v:nameU="SubShapeType" v:lbl="SubShapeType" v:type="0" v:invis="true" v:ask="false" v:langID="1033"
						v:val="VT4(Laptop)"/>
				<v:cp v:nameU="Manufacturer" v:lbl="Manufacturer" v:type="0" v:sortKey="Equipment" v:invis="false" v:ask="false"
						v:langID="1033"/>
				<v:cp v:nameU="ProductNumber" v:lbl="Product Number" v:type="0" v:sortKey="Equipment" v:invis="false" v:ask="false"
						v:langID="1033"/>
				<v:cp v:nameU="PartNumber" v:lbl="Part Number" v:type="0" v:sortKey="Equipment" v:invis="false" v:ask="false"
						v:langID="1033"/>
				<v:cp v:nameU="ProductDescription" v:lbl="Product Description" v:type="0" v:sortKey="Equipment" v:invis="false"
						v:ask="false" v:langID="1033"/>
				<v:cp v:nameU="AssetNumber" v:lbl="Asset Number" v:type="0" v:sortKey="Asset" v:invis="false" v:ask="false"
						v:langID="1033"/>
				<v:cp v:nameU="SerialNumber" v:lbl="Serial Number" v:type="0" v:sortKey="Asset" v:invis="false" v:ask="false"
						v:langID="1033"/>
				<v:cp v:nameU="Location" v:lbl="Location" v:type="0" v:sortKey="Asset" v:invis="false" v:ask="false"
						v:langID="1033"/>
				<v:cp v:nameU="Building" v:lbl="Building" v:type="0" v:sortKey="Asset" v:invis="false" v:ask="false"
						v:langID="1033"/>
				<v:cp v:nameU="Room" v:lbl="Room" v:type="0" v:sortKey="Asset" v:invis="false" v:ask="false" v:langID="1033"/>
				<v:cp v:nameU="NetworkName" v:lbl="Network Name" v:type="0" v:sortKey="Network" v:invis="false" v:ask="false"
						v:langID="1033"/>
				<v:cp v:nameU="IPAddress" v:lbl="IP Address" v:type="0" v:sortKey="Network" v:invis="false" v:ask="false"
						v:langID="1033"/>
				<v:cp v:nameU="SubnetMask" v:lbl="Subnet Mask" v:type="0" v:sortKey="Network" v:invis="false" v:ask="false"
						v:langID="1033"/>
				<v:cp v:nameU="AdminInterface" v:lbl="Administrative Interface" v:type="0" v:sortKey="Network" v:invis="false"
						v:ask="false" v:langID="1033"/>
				<v:cp v:nameU="NumberofPorts" v:lbl="Number of Ports" v:type="0" v:sortKey="Network" v:invis="false" v:ask="false"
						v:langID="1033"/>
				<v:cp v:nameU="MACAddress" v:lbl="MAC Address" v:type="0" v:sortKey="Network" v:invis="false" v:ask="false"
						v:langID="1033"/>
				<v:cp v:nameU="CommunityString" v:lbl="Community String" v:type="0" v:sortKey="Network" v:invis="false"
						v:ask="false" v:langID="1033"/>
				<v:cp v:nameU="NetworkDescription" v:lbl="Network Description" v:type="0" v:sortKey="Network" v:invis="false"
						v:ask="false" v:langID="1033"/>
				<v:cp v:nameU="HardDriveSize" v:lbl="Hard Drive Capacity" v:type="0" v:sortKey="Workstation" v:invis="false"
						v:ask="false" v:langID="1033"/>
				<v:cp v:nameU="CPU" v:lbl="CPU" v:type="0" v:sortKey="Workstation" v:invis="false" v:ask="false" v:langID="1033"/>
				<v:cp v:nameU="Memory" v:lbl="Memory" v:type="0" v:sortKey="Workstation" v:invis="false" v:ask="false"
						v:langID="1033"/>
				<v:cp v:nameU="OperatingSystem" v:lbl="Operating System" v:type="0" v:sortKey="Workstation" v:invis="false"
						v:ask="false" v:langID="1033"/>
			</v:custProps>
			<v:userDefs>
				<v:ud v:nameU="HasText" v:val="VT0(0):5"/>
				<v:ud v:nameU="ShapeClass" v:val="VT0(5):26"/>
				<v:ud v:nameU="ShapeType" v:val="VT0(6):26"/>
				<v:ud v:nameU="SubShapeType" v:val="VT0(37):26"/>
				<v:ud v:nameU="SolSH" v:val="VT15({BF0433D9-CD73-4EB5-8390-8653BE590246}):41"/>
				<v:ud v:nameU="visLegendShape" v:val="VT0(2):26"/>
				<v:ud v:nameU="visVersion" v:prompt="" v:val="VT0(15):26"/>
			</v:userDefs>
			<title>Laptop computer</title>
			<g id="shape2-2" v:mID="2" v:groupContext="shape">
				<title>Sheet.2</title>
				<path d="M45 91.72 L21.93 78.42 L19.95 78.42 L19.93 78.49 L14.49 96.86 L0 105.22 L0 108.38 A54.2544 53.4291 -90.05
							 0 0 23.16 121.87 L38.7 112.87 L45 91.72 Z" class="st1"/>
			</g>
			<g id="shape3-4" v:mID="3" v:groupContext="shape" transform="translate(23.1617,1.42109E-014)">
				<title>Sheet.3</title>
				<path d="M0.01 118.5 L16.66 108.82 L15.54 112.88 L0 121.87 L0.01 118.5 Z" class="st2"/>
			</g>
			<g id="shape4-10" v:mID="4" v:groupContext="shape" transform="translate(37.556,-11.7151)">
				<title>Sheet.4</title>
				<path d="M0 121.87 L5.46 103.44 L7.44 103.44 L2.27 120.54 L0 121.87 Z" class="st2"/>
			</g>
			<g id="shape5-13" v:mID="5" v:groupContext="shape" transform="translate(19.89,-30.15)">
				<title>Sheet.5</title>
				<path d="M0 108.64 L2.04 108.57 L25.11 121.87 L23.13 121.87 A997.623 982.447 87.95 0 1 0 108.65 Z" class="st3"/>
			</g>
			<g id="shape6-17" v:mID="6" v:groupContext="shape" transform="translate(0,-3.375)">
				<title>Sheet.6</title>
				<path d="M0 108.6 L14.49 100.23 L37.56 113.53 L23.18 121.87 A60.3675 59.4492 89.17 0 1 0 108.6 Z" class="st3"/>
			</g>
			<g id="shape7-20" v:mID="7" v:groupContext="shape" transform="translate(14.49,-11.7151)">
				<title>Sheet.7</title>
				<path d="M23.07 121.87 A3151.07 3103.14 -91.15 0 0 -0 108.57 L5.46 90.14 L28.53 103.44 L23.07 121.87 Z" class="st4"/>
			</g>
			<g id="shape8-26" v:mID="8" v:groupContext="shape">
				<title>Sheet.8</title>
				<path d="M-0 108.37 A54.2544 53.4291 -90.05 0 0 23.16 121.87 L23.17 118.5 A60.3555 59.4374 88.88 0 1 0 105.22 L0
							 108.37 Z" class="st4"/>
			</g>
			<g id="shape9-29" v:mID="9" v:groupContext="shape" transform="translate(16.2,-13.6125)">
				<title>Sheet.9</title>
				<path d="M4.77 94.2 L0 110.13 L20.43 121.87" class="st5"/>
			</g>
			<g id="shape10-32" v:mID="10" v:groupContext="shape" transform="translate(34.425,-0.81) scale(-1,1)">
				<title>Sheet.10</title>
				<path d="M0 114.13 L9.94 119.89 L9.94 121.87" class="st6"/>
			</g>
			<g id="shape11-36" v:mID="11" v:groupContext="shape" transform="translate(16.83,-13.6125)">
				<title>Sheet.11</title>
				<path d="M0 109.95 L4.59 94.47 L4.14 94.2 A886.97 873.477 89.01 0 1 24.48 105.94 L19.8 121.87 L19.89 121.42 A782.199
							 770.3 88.95 0 1 -0 109.95 Z" class="st7"/>
			</g>
			<g id="group12-44" transform="translate(3.2586,-4.80501)" v:mID="12" v:groupContext="group">
				<title>Sheet.12</title>
				<g id="shape13-45" v:mID="13" v:groupContext="shape" transform="translate(0,-0.45)">
					<title>Sheet.13</title>
					<path d="M0 109.87 L2.08 111.07 L4.04 109.94 L1.96 108.74 L0 109.87 ZM2.93 108.18 L5.01 109.38 L6.97 108.25 L4.89
								 107.05 L2.93 108.18 ZM5.87 106.48 L7.95 107.68 L9.9 106.55 L7.82 105.35 L5.87 106.48 ZM8.8 104.79
								 L10.88 105.99 L12.84 104.86 L10.76 103.66 L8.8 104.79 ZM11.92 106.59 L14 107.79 L15.96 106.66 L13.88
								 105.46 L11.92 106.59 ZM15.04 108.39 L17.12 109.59 L19.08 108.46 L17 107.26 L15.04 108.39 ZM18.16
								 110.19 L20.24 111.39 L22.19 110.26 L20.12 109.06 L18.16 110.19 ZM24.4 113.79 L26.48 114.99 L28.43
								 113.86 L26.35 112.66 L24.4 113.79 ZM27.52 115.59 L29.6 116.79 L31.55 115.66 L29.47 114.46 L27.52
								 115.59 ZM24.58 117.29 L26.66 118.49 L28.62 117.36 L26.54 116.16 L24.58 117.29 ZM21.46 115.49 L23.54
								 116.69 L25.5 115.56 L23.42 114.36 L21.46 115.49 ZM21.28 111.99 L23.36 113.19 L25.31 112.06 L23.23
								 110.86 L21.28 111.99 ZM18.34 113.68 L20.42 114.89 L22.38 113.76 L20.3 112.56 L18.34 113.68 ZM15.23
								 111.88 L17.3 113.08 L19.26 111.96 L17.18 110.75 L15.23 111.88 ZM12.11 110.08 L14.19 111.28 L16.14
								 110.15 L14.06 108.95 L12.11 110.08 ZM8.99 108.28 L11.07 109.48 L13.02 108.35 L10.94 107.15 L8.99
								 108.28 ZM6.05 109.98 L8.13 111.18 L10.09 110.05 L8.01 108.85 L6.05 109.98 ZM9.17 111.78 L11.25 112.98
								 L13.21 111.85 L11.13 110.65 L9.17 111.78 ZM12.29 113.58 L14.37 114.78 L16.33 113.65 L14.25 112.45
								 L12.29 113.58 ZM15.41 115.38 L17.49 116.58 L19.45 115.45 L17.37 114.25 L15.41 115.38 ZM18.53 117.18
								 L20.61 118.38 L22.57 117.25 L20.49 116.05 L18.53 117.18 ZM21.65 118.98 L23.73 120.18 L25.68 119.05
								 L23.6 117.85 L21.65 118.98 ZM18.71 120.67 L20.79 121.87 L22.75 120.75 L20.67 119.55 L18.71 120.67
								 ZM15.6 118.87 L17.68 120.07 L19.63 118.94 L17.55 117.74 L15.6 118.87 ZM6.24 113.47 L14.56 118.27
								 L16.51 117.14 L8.19 112.34 L6.24 113.47 ZM3.12 111.67 L5.2 112.87 L7.15 111.74 L5.08 110.54 L3.12
								 111.67 Z" class="st8"/>
				</g>
				<g id="shape14-47" v:mID="14" v:groupContext="shape">
					<title>Sheet.14</title>
					<path d="M8.8 104.79 L10.88 105.99 L10.88 105.54 L8.8 104.34 L8.8 104.79 ZM11.92 106.59 L14 107.79 L14 107.34
								 L11.92 106.14 L11.92 106.59 ZM15.04 108.39 L17.12 109.59 L17.12 109.14 L15.04 107.94 L15.04 108.39
								 ZM18.16 110.19 L20.24 111.39 L20.24 110.94 L18.16 109.74 L18.16 110.19 ZM21.28 111.99 L23.36 113.19
								 L23.36 112.74 L21.28 111.54 L21.28 111.99 ZM24.4 113.79 L26.48 114.99 L26.48 114.54 L24.4 113.34
								 L24.4 113.79 ZM10.88 105.54 L10.88 105.99 L12.84 104.86 L12.84 104.41 L10.88 105.54 ZM14 107.34
								 L14 107.79 L15.96 106.66 L15.96 106.21 L14 107.34 ZM17.12 109.14 L17.12 109.59 L19.08 108.46 L19.08
								 108.01 L17.12 109.14 ZM20.24 110.94 L20.24 111.39 L22.19 110.26 L22.19 109.81 L20.24 110.94 ZM23.36
								 112.74 L23.36 113.19 L25.31 112.06 L25.31 111.61 L23.36 112.74 ZM26.48 114.54 L26.48 114.99 L28.43
								 113.86 L28.43 113.41 L26.48 114.54 ZM27.52 115.59 L29.6 116.79 L29.6 116.34 L27.52 115.14 L27.52
								 115.59 ZM29.6 116.34 L29.6 116.79 L31.55 115.66 L31.55 115.21 L29.6 116.34 ZM5.87 106.48 L7.95 107.68
								 L7.95 107.23 L5.87 106.03 L5.87 106.48 ZM8.99 108.28 L11.07 109.48 L11.07 109.03 L8.99 107.83 L8.99
								 108.28 ZM12.11 110.08 L14.19 111.28 L14.19 110.83 L12.11 109.63 L12.11 110.08 ZM15.23 111.88 L17.3
								 113.08 L17.3 112.63 L15.23 111.43 L15.23 111.88 ZM18.34 113.68 L20.42 114.89 L20.42 114.44 L18.34
								 113.23 L18.34 113.68 ZM21.46 115.49 L23.54 116.69 L23.54 116.24 L21.46 115.04 L21.46 115.49 ZM7.95
								 107.23 L7.95 107.68 L9.9 106.55 L9.9 106.1 L7.95 107.23 ZM11.07 109.03 L11.07 109.48 L13.02 108.35
								 L13.02 107.9 L11.07 109.03 ZM14.19 110.83 L14.19 111.28 L16.14 110.15 L16.14 109.7 L14.19 110.83
								 ZM17.3 112.63 L17.3 113.08 L19.26 111.96 L19.26 111.51 L17.3 112.63 ZM20.42 114.44 L20.42 114.89
								 L22.38 113.76 L22.38 113.31 L20.42 114.44 ZM23.54 116.24 L23.54 116.69 L25.5 115.56 L25.5 115.11
								 L23.54 116.24 ZM24.58 117.29 L26.66 118.49 L26.66 118.04 L24.58 116.84 L24.58 117.29 ZM26.66 118.04
								 L26.66 118.49 L28.62 117.36 L28.62 116.91 L26.66 118.04 ZM2.93 108.18 L5.01 109.38 L5.01 108.93
								 L2.93 107.73 L2.93 108.18 ZM6.05 109.98 L8.13 111.18 L8.13 110.73 L6.05 109.53 L6.05 109.98 ZM9.17
								 111.78 L11.25 112.98 L11.25 112.53 L9.17 111.33 L9.17 111.78 ZM12.29 113.58 L14.37 114.78 L14.37
								 114.33 L12.29 113.13 L12.29 113.58 ZM15.41 115.38 L17.49 116.58 L17.49 116.13 L15.41 114.93 L15.41
								 115.38 ZM18.53 117.18 L20.61 118.38 L20.61 117.93 L18.53 116.73 L18.53 117.18 ZM5.01 108.93 L5.01
								 109.38 L6.97 108.25 L6.97 107.8 L5.01 108.93 ZM8.13 110.73 L8.13 111.18 L10.09 110.05 L10.09 109.6
								 L8.13 110.73 ZM11.25 112.53 L11.25 112.98 L13.21 111.85 L13.21 111.4 L11.25 112.53 ZM14.37 114.33
								 L14.37 114.78 L16.33 113.65 L16.33 113.2 L14.37 114.33 ZM17.49 116.13 L17.49 116.58 L19.45 115.45
								 L19.45 115 L17.49 116.13 ZM20.61 117.93 L20.61 118.38 L22.57 117.25 L22.57 116.8 L20.61 117.93 ZM21.65
								 118.98 L23.73 120.18 L23.73 119.73 L21.65 118.53 L21.65 118.98 ZM23.73 119.73 L23.73 120.18 L25.68
								 119.05 L25.68 118.6 L23.73 119.73 ZM0 109.87 L2.08 111.07 L2.08 110.62 L0 109.42 L0 109.87 ZM3.12
								 111.67 L5.2 112.87 L5.2 112.42 L3.12 111.22 L3.12 111.67 ZM6.24 113.47 L14.56 118.27 L14.56 117.82
								 L6.24 113.02 L6.24 113.47 ZM15.6 118.87 L17.68 120.07 L17.68 119.62 L15.6 118.42 L15.6 118.87 ZM2.08
								 110.62 L2.08 111.07 L4.04 109.94 L4.04 109.49 L2.08 110.62 ZM5.2 112.42 L5.2 112.87 L7.15 111.74
								 L7.15 111.29 L5.2 112.42 ZM14.56 117.82 L14.56 118.27 L16.51 117.14 L16.51 116.69 L14.56 117.82
								 ZM17.68 119.62 L17.68 120.07 L19.63 118.94 L19.63 118.49 L17.68 119.62 ZM18.71 120.67 L20.79 121.87
								 L20.79 121.42 L18.71 120.22 L18.71 120.67 ZM20.79 121.42 L20.79 121.87 L22.75 120.75 L22.75 120.3
								 L20.79 121.42 Z" class="st9"/>
				</g>
			</g>
			<g id="shape15-49" v:mID="15" v:groupContext="shape">
				<title>Sheet.15</title>
				<path d="M23.16 121.87 L38.7 112.87 L45 91.72 L21.93 78.42 L19.95 78.42 L14.49 96.85 L0 105.22 L0 108.38 A55.1887
							 54.3491 -90.05 0 0 23.16 121.87 Z" class="st10"/>
			</g>
		</g>
		<g id="group30-51" transform="translate(133.875,42.75) rotate(90)" v:mID="30" v:groupContext="group">
			<v:custProps>
				<v:cp v:nameU="AssetNumber" v:lbl="Asset Number" v:prompt="" v:type="0" v:format="" v:sortKey="Asset"
						v:invis="false" v:ask="false" v:langID="1033" v:cal="0"/>
				<v:cp v:nameU="SerialNumber" v:lbl="Serial Number" v:prompt="" v:type="0" v:format="" v:sortKey="Asset"
						v:invis="false" v:ask="false" v:langID="1033" v:cal="0"/>
				<v:cp v:nameU="Location" v:lbl="Location" v:prompt="" v:type="0" v:format="" v:sortKey="Asset" v:invis="false"
						v:ask="false" v:langID="1033" v:cal="0"/>
				<v:cp v:nameU="Building" v:lbl="Building" v:prompt="" v:type="0" v:format="" v:sortKey="Asset" v:invis="false"
						v:ask="false" v:langID="1033" v:cal="0"/>
				<v:cp v:nameU="Room" v:lbl="Room" v:prompt="" v:type="0" v:format="" v:sortKey="Asset" v:invis="false"
						v:ask="false" v:langID="1033" v:cal="0"/>
				<v:cp v:nameU="Manufacturer" v:lbl="Manufacturer" v:prompt="" v:type="0" v:format="" v:sortKey="Equipment"
						v:invis="false" v:ask="false" v:langID="1033" v:cal="0"/>
				<v:cp v:nameU="ProductNumber" v:lbl="Product Number" v:prompt="" v:type="0" v:format="" v:sortKey="Equipment"
						v:invis="false" v:ask="false" v:langID="1033" v:cal="0"/>
				<v:cp v:nameU="PartNumber" v:lbl="Part Number" v:prompt="" v:type="0" v:format="" v:sortKey="Equipment"
						v:invis="false" v:ask="false" v:langID="1033" v:cal="0"/>
				<v:cp v:nameU="ProductDescription" v:lbl="Product Description" v:prompt="" v:type="0" v:format=""
						v:sortKey="Equipment" v:invis="false" v:ask="false" v:langID="1033" v:cal="0"/>
				<v:cp v:nameU="NetworkName" v:lbl="Network Name" v:prompt="" v:type="0" v:format="" v:sortKey="Network"
						v:invis="false" v:ask="false" v:langID="1033" v:cal="0"/>
				<v:cp v:nameU="IPAddress" v:lbl="IP Address" v:prompt="" v:type="0" v:format="" v:sortKey="Network" v:invis="false"
						v:ask="false" v:langID="1033" v:cal="0"/>
				<v:cp v:nameU="SubnetMask" v:lbl="Subnet Mask" v:prompt="" v:type="0" v:format="" v:sortKey="Network"
						v:invis="false" v:ask="false" v:langID="1033" v:cal="0"/>
				<v:cp v:nameU="AdminInterface" v:lbl="Administrative Interface" v:prompt="" v:type="0" v:format=""
						v:sortKey="Network" v:invis="false" v:ask="false" v:langID="1033" v:cal="0"/>
				<v:cp v:nameU="NumberofPorts" v:lbl="Number of Ports" v:prompt="" v:type="0" v:format="" v:sortKey="Network"
						v:invis="false" v:ask="false" v:langID="1033" v:cal="0"/>
				<v:cp v:nameU="CommunityString" v:lbl="Community String" v:prompt="" v:type="0" v:format="" v:sortKey="Network"
						v:invis="false" v:ask="false" v:langID="1033" v:cal="0"/>
				<v:cp v:nameU="NetworkDescription" v:lbl="Network Description" v:prompt="" v:type="0" v:format=""
						v:sortKey="Network" v:invis="false" v:ask="false" v:langID="1033" v:cal="0"/>
				<v:cp v:nameU="MACAddress" v:lbl="MAC Address" v:prompt="" v:type="0" v:format="" v:sortKey="Network"
						v:invis="false" v:ask="false" v:langID="1033" v:cal="0"/>
				<v:cp v:nameU="CPU" v:lbl="CPU" v:prompt="" v:type="0" v:format="" v:sortKey="Workstation" v:invis="false"
						v:ask="false" v:langID="1033" v:cal="0"/>
				<v:cp v:nameU="Memory" v:lbl="Memory" v:prompt="" v:type="0" v:format="" v:sortKey="Workstation" v:invis="false"
						v:ask="false" v:langID="1033" v:cal="0"/>
				<v:cp v:nameU="OperatingSystem" v:lbl="Operating System" v:prompt="" v:type="0" v:format="" v:sortKey="Workstation"
						v:invis="false" v:ask="false" v:langID="1033" v:cal="0"/>
				<v:cp v:nameU="HardDriveSize" v:lbl="Hard Drive Capacity" v:prompt="" v:type="0" v:format=""
						v:sortKey="Workstation" v:invis="false" v:ask="false" v:langID="1033" v:cal="0"/>
				<v:cp v:nameU="ShapeClass" v:lbl="ShapeClass" v:prompt="" v:type="0" v:format="" v:sortKey="" v:invis="true"
						v:ask="false" v:langID="1033" v:cal="0" v:val="VT4(Equipment)"/>
				<v:cp v:nameU="ShapeType" v:lbl="ShapeType" v:prompt="" v:type="0" v:format="" v:sortKey="" v:invis="true"
						v:ask="false" v:langID="1033" v:cal="0" v:val="VT4(MobilePhone)"/>
			</v:custProps>
			<v:userDefs>
				<v:ud v:nameU="visVersion" v:prompt="" v:val="VT0(15):26"/>
				<v:ud v:nameU="ShapeClass" v:prompt="" v:val="VT0(5):26"/>
				<v:ud v:nameU="SolSH" v:prompt="" v:val="VT15({BF0433D9-CD73-4EB5-8390-8653BE590246}):41"/>
				<v:ud v:nameU="visLegendShape" v:prompt="" v:val="VT0(2):26"/>
			</v:userDefs>
			<title>Smart phone</title>
			<g id="shape31-52" v:mID="31" v:groupContext="shape" transform="translate(5.3052,1.42109E-014)">
				<title>Sheet.31</title>
				<path d="M0 120.47 C0 120.97 0.4 121.42 0.89 121.49 C0.89 121.49 3.79 121.87 5.94 121.87 C8.1 121.87 11 121.49 11
							 121.49 C11.49 121.42 11.89 120.97 11.89 120.47 L11.89 100.78 C11.89 100.28 11.49 99.82 11 99.76 C11
							 99.76 8.15 99.37 5.94 99.37 C3.79 99.37 0.89 99.76 0.89 99.76 C0.4 99.82 0 100.28 0 100.78 L0 120.47
							 Z" class="st11"/>
			</g>
			<g id="shape32-54" v:mID="32" v:groupContext="shape" transform="translate(6.20238,-2.76281)">
				<title>Sheet.32</title>
				<v:userDefs>
					<v:ud v:nameU="SurroundingRegionColor" v:prompt="" v:val="VT5(1)"/>
				</v:userDefs>
				<rect x="0" y="105.336" width="10.0952" height="16.5387" class="st11"/>
			</g>
			<g id="shape33-56" v:mID="33" v:groupContext="shape" transform="translate(9.39574,-1.12219)">
				<title>Sheet.33</title>
				<v:userDefs>
					<v:ud v:nameU="SurroundingRegionColor" v:prompt="" v:val="VT5(1)"/>
				</v:userDefs>
				<path d="M0.8 121.47 a0.400078 0.400078 -180 1 0 -0.800156 0 a0.400078 0.400078 -180 1 0 0.800156 0 ZM2.26 121.47
							 a0.400078 0.400078 -180 1 0 -0.800156 0 a0.400078 0.400078 -180 1 0 0.800156 0 ZM3.71 121.47 a0.400312
							 0.400312 -180 1 0 -0.800625 0 a0.400312 0.400312 -180 1 0 0.800625 0 Z" class="st12"/>
				<path d="M0.37 102.34 L3.34 102.34" class="st13"/>
			</g>
		</g>
		<g id="shape35-59" v:mID="35" v:groupContext="shape" transform="translate(63.75,-108.375)">
			<title>Sheet.35</title>
			<path d="M0 121.87 L297 121.87" class="st14"/>
		</g>
		<g id="shape36-65" v:mID="36" v:groupContext="shape" transform="translate(356.25,184.875) rotate(180)">
			<title>Sheet.36</title>
			<path d="M0 121.87 L292.5 121.87" class="st14"/>
		</g>
		<g id="group37-70" transform="translate(369.75,-56.625)" v:mID="37" v:groupContext="group">
			<v:custProps>
				<v:cp v:nameU="Manufacturer" v:lbl="Manufacturer" v:type="0" v:sortKey="Equipment" v:invis="false" v:langID="1033"/>
				<v:cp v:nameU="ProductNumber" v:lbl="Product Number" v:type="0" v:sortKey="Equipment" v:invis="false"
						v:langID="1033"/>
				<v:cp v:nameU="PartNumber" v:lbl="Part Number" v:type="0" v:sortKey="Equipment" v:invis="false" v:langID="1033"/>
				<v:cp v:nameU="ProductDescription" v:lbl="Product Description" v:type="0" v:sortKey="Equipment" v:invis="false"
						v:langID="1033"/>
				<v:cp v:nameU="AssetNumber" v:lbl="Asset Number" v:type="0" v:sortKey="Asset" v:invis="false" v:langID="1033"/>
				<v:cp v:nameU="SerialNumber" v:lbl="Serial Number" v:type="0" v:sortKey="Asset" v:invis="false" v:langID="1033"/>
				<v:cp v:nameU="Location" v:lbl="Location" v:type="0" v:sortKey="Asset" v:invis="false" v:langID="1033"/>
				<v:cp v:nameU="Building" v:lbl="Building" v:type="0" v:sortKey="Asset" v:invis="false" v:langID="1033"/>
				<v:cp v:nameU="Room" v:lbl="Room" v:type="0" v:sortKey="Asset" v:invis="false" v:langID="1033"/>
				<v:cp v:nameU="Department" v:lbl="Department" v:langID="1033"/>
				<v:cp v:nameU="ShapeClass" v:lbl="ShapeClass" v:type="0" v:invis="true" v:ask="false" v:langID="1033"
						v:val="VT4(Equipment)"/>
				<v:cp v:nameU="ShapeType" v:lbl="ShapeType" v:type="0" v:invis="true" v:ask="false" v:langID="1033"
						v:val="VT4(Server)"/>
				<v:cp v:nameU="SubShapeType" v:lbl="SubShapeType" v:type="0" v:invis="true" v:ask="false" v:langID="1033"
						v:val="VT4(Web)"/>
				<v:cp v:nameU="NetworkName" v:lbl="Network Name" v:type="0" v:sortKey="Network" v:invis="false" v:ask="false"
						v:langID="1033"/>
				<v:cp v:nameU="IPAddress" v:lbl="IP Address" v:type="0" v:sortKey="Network" v:invis="false" v:ask="false"
						v:langID="1033"/>
				<v:cp v:nameU="SubnetMask" v:lbl="Subnet Mask" v:type="0" v:sortKey="Network" v:invis="false" v:ask="false"
						v:langID="1033"/>
				<v:cp v:nameU="AdminInterface" v:lbl="Administrative Interface" v:type="0" v:sortKey="Network" v:invis="false"
						v:ask="false" v:langID="1033"/>
				<v:cp v:nameU="NumberofPorts" v:lbl="Number of Ports" v:type="0" v:sortKey="Network" v:invis="false" v:ask="false"
						v:langID="1033"/>
				<v:cp v:nameU="MACAddress" v:lbl="MAC Address" v:type="0" v:sortKey="Network" v:invis="false" v:ask="false"
						v:langID="1033"/>
				<v:cp v:nameU="CommunityString" v:lbl="Community String" v:type="0" v:sortKey="Network" v:invis="false"
						v:ask="false" v:langID="1033"/>
				<v:cp v:nameU="NetworkDescription" v:lbl="Network Description" v:type="0" v:sortKey="Network" v:invis="false"
						v:ask="false" v:langID="1033"/>
				<v:cp v:nameU="HardDriveSize" v:lbl="Hard Drive Capacity" v:type="0" v:sortKey="Workstation" v:invis="false"
						v:ask="false" v:langID="1033"/>
				<v:cp v:nameU="CPU" v:lbl="CPU" v:type="0" v:sortKey="Workstation" v:invis="false" v:ask="false" v:langID="1033"/>
				<v:cp v:nameU="Memory" v:lbl="Memory" v:type="0" v:sortKey="Workstation" v:invis="false" v:ask="false"
						v:langID="1033"/>
				<v:cp v:nameU="OperatingSystem" v:lbl="Operating System" v:type="0" v:sortKey="Workstation" v:invis="false"
						v:ask="false" v:langID="1033"/>
			</v:custProps>
			<v:userDefs>
				<v:ud v:nameU="HasText" v:val="VT0(0):5"/>
				<v:ud v:nameU="SolSH" v:val="VT15({BF0433D9-CD73-4EB5-8390-8653BE590246}):41"/>
				<v:ud v:nameU="ShapeClass" v:val="VT0(5):26"/>
				<v:ud v:nameU="ShapeType" v:val="VT0(24):26"/>
				<v:ud v:nameU="SubShapeType" v:val="VT0(74):26"/>
				<v:ud v:nameU="visLegendShape" v:val="VT0(2):26"/>
				<v:ud v:nameU="visVersion" v:prompt="" v:val="VT0(15):26"/>
			</v:userDefs>
			<title>Web server</title>
			<g id="shape38-71" v:mID="38" v:groupContext="shape">
				<title>Sheet.38</title>
				<path d="M32.17 113.42 A4.55789 4.43302 -177.47 0 0 32.05 112.29 A7.0506 7.0506 -180 0 0 31.92 111.75 L36.12 109.42
							 L36.12 77.92 L22.23 70.27 L0 82.73 L0.01 114.72 A23.3903 22.4675 -180 0 0 13.72 121.87 L19.93 118.39
							 A7.0506 7.0506 -180 0 0 30.6 118.05 A7.0506 7.0506 -180 0 0 31.33 116.96 A6.93097 6.74108 -2.73 0 0
							 32.17 113.42 ZM6.17 87.71 A24.1393 23.187 -180 0 0 13.72 90.47 A23.8697 22.928 0 0 1 6.17 87.71 Z"
						class="st1"/>
			</g>
			<g id="shape39-73" v:mID="39" v:groupContext="shape" transform="translate(0,-31.4084)">
				<title>Sheet.39</title>
				<path d="M13.71 121.87 L36.12 109.33 L22.23 101.68 L0 114.13 A24.1393 23.187 -180 0 0 13.72 121.87 L13.71 121.87 Z"
						class="st16"/>
				<path d="M13.71 121.87 L36.12 109.33 L22.23 101.68 L0 114.13 A24.1393 23.187 -180 0 0 13.72 121.87" class="st17"/>
			</g>
			<g id="shape40-78" v:mID="40" v:groupContext="shape" transform="translate(0.00820843,-2.41585E-013)">
				<title>Sheet.40</title>
				<path d="M13.71 90.47 A23.8697 22.928 0 0 1 0 82.69 L0 114.72 A23.3903 22.4675 -180 0 0 13.71 121.87 L13.7 90.47
							 L13.71 90.47 Z" class="st18"/>
				<path d="M13.71 90.47 A23.8697 22.928 0 0 1 0 82.69 L0 114.72 A23.3903 22.4675 -180 0 0 13.71 121.87 L13.7 90.47"
						class="st17"/>
			</g>
			<g id="shape41-85" v:mID="41" v:groupContext="shape" transform="translate(13.709,-0.0354983)">
				<title>Sheet.41</title>
				<path d="M0 90.5 L0 121.87 L22.42 109.45 L22.42 77.96 L0 90.5 Z" class="st19"/>
			</g>
			<g id="shape42-91" v:mID="42" v:groupContext="shape" transform="translate(0,-0.0011376)">
				<title>Sheet.42</title>
				<path d="M36.12 77.92 L22.23 70.27 L0 82.73 L0.01 114.72 A23.3903 22.4675 -180 0 0 13.72 121.87 L36.12 109.42 L36.12
							 77.92" class="st20"/>
			</g>
			<g id="shape43-94" v:mID="43" v:groupContext="shape" transform="translate(-35.8636,-9.25399) rotate(-20)">
				<title>Sheet.43</title>
				<ellipse cx="1.05263" cy="120.41" rx="1.05263" ry="1.46462" class="st21"/>
			</g>
			<g id="shape44-100" v:mID="44" v:groupContext="shape" transform="translate(2.22308,-4.53881)">
				<title>Sheet.44</title>
				<path d="M-0 113.16 A27.5347 24.463 -94.91 0 0 9.26 118.05" class="st22"/>
				<path d="M0 115.07 A27.5347 24.463 -94.91 0 0 9.26 119.96" class="st22"/>
				<path d="M-0 116.98 A27.5347 24.463 -94.91 0 0 9.26 121.87" class="st22"/>
			</g>
			<g id="group45-107" transform="translate(1.85256,-22.2446)" v:mID="45" v:groupContext="group">
				<title>Sheet.45</title>
				<g id="shape46-108" v:mID="46" v:groupContext="shape" transform="translate(0,-5.14833)">
					<title>Sheet.46</title>
					<path d="M0.33 116.98 A23.3628 22.4412 -180 0 0 9.59 121.87 a0.47472 0.455991 -180 0 0 1.77636E-015 -0.889739
								 A22.7272 21.8306 0 0 1 0.52 116.23 a0.307548 0.295415 -180 0 0 -0.513447 0.251138 a0.670288 0.643844
								 -180 0 0 0.328191 0.496243 Z" class="st23"/>
				</g>
				<g id="shape47-110" v:mID="47" v:groupContext="shape" transform="translate(2.94588,-6.26984)">
					<title>Sheet.47</title>
					<path d="M2.85 121.84 A3.57057 2.11327 -90.85 0 0 0.07 120.42 A2.28402 1.17127 -180 0 0 2.85 121.84 Z"
							class="st24"/>
				</g>
				<g id="shape48-115" v:mID="48" v:groupContext="shape" transform="translate(0.370513,-0.044487)">
					<title>Sheet.48</title>
					<path d="M0 114.49 L0 116.98 A25.1314 24.1399 -180 0 0 9.26 121.87 L9.26 119.38 A25.9538 24.9299 0 0 1 -0 114.49
								 Z" class="st25"/>
				</g>
				<g id="shape49-123" v:mID="49" v:groupContext="shape" transform="translate(0.370513,-1.42358)">
					<title>Sheet.49</title>
					<path d="M0 116.98 A22.7467 21.8493 -180 0 0 9.26 121.87 L9.26 121.25 A25.1415 24.1496 0 0 1 0 116.36 L0 116.98
								 Z" class="st26"/>
				</g>
				<g id="shape50-125" v:mID="50" v:groupContext="shape" transform="translate(0.370513,-0.0889739)">
					<title>Sheet.50</title>
					<path d="M0 114.49 L0 116.98 A25.1314 24.1399 -180 0 0 9.26 121.87" class="st17"/>
				</g>
				<g id="shape51-128" v:mID="51" v:groupContext="shape" transform="translate(0.370513,5.68434E-014)">
					<title>Sheet.51</title>
					<path d="M9.26 121.87 L9.26 119.38 A25.9538 24.9299 0 0 1 -0 114.49" class="st27"/>
				</g>
			</g>
			<g id="group52-132" transform="translate(18.0735,-1.20245)" v:mID="52" v:groupContext="group">
				<v:userDefs>
					<v:ud v:nameU="IsVisable" v:val="VT0(1):5"/>
				</v:userDefs>
				<title>Sheet.52</title>
				<g id="group53-133" transform="translate(0,-0.0037409)" v:mID="53" v:groupContext="group">
					<title>Sheet.53</title>
					<g id="shape54-134" v:mID="54" v:groupContext="shape">
						<title>Sheet.54</title>
						<ellipse cx="7.0506" cy="114.824" rx="7.0506" ry="7.0506" class="st28"/>
						<ellipse cx="7.0506" cy="114.824" rx="7.0506" ry="7.0506" class="st29"/>
					</g>
					<g id="shape55-139" v:mID="55" v:groupContext="shape" transform="translate(0.586458,-0.158183)">
						<title>Sheet.55</title>
						<path d="M5.59 121.87 L6.4 119.72 A3.71809 3.61622 -7.95 0 0 7.74 117.51 A1.71053 1.66367 -180 0 0 6.43 116.18
									 A1.8449 1.79436 -180 0 0 5.11 116.96 L4.79 116.44 A1.39933 1.39933 -180 0 0 5.72 115.35 A2.62348
									 2.55161 0 0 1 4.67 114.55 L5.83 113.59 L6.13 112.32 L5.26 111.75 L5.81 111.06 L4.77 110.33 L5.05
									 109.52 L6.68 109.99 L6.62 111.32 L7.26 111.52 L8.13 111.11 L8.82 111.67 L9.66 113.62 L9.4 114.69
									 L8.81 115.08 L9.07 115.8 A1.18528 1.1528 -180 0 0 10.85 116.54 A1.35853 1.32131 0 0 1 11.62
									 117.77 L11.92 119.4 A6.93097 6.74108 -2.73 0 0 13.51 114.78 A4.55789 4.43302 -177.47 0 0 12.74
									 112.21 A4.96392 4.82793 -180 0 0 11.53 110.46 A1.35303 1.31596 -180 0 0 10.54 111.4 L10.84 112.35
									 a0.898686 0.874064 0 0 1 -1.08409 -0.0542427 L9.61 113.69 A10.9755 10.6748 -180 0 0 8.87 111.86
									 L9.78 111.49 L9.44 110.97 L8.82 110.83 L8.84 110.41 L9.14 108.77 L7.61 108.34 L6.85 108.75 L6.34
									 108.22 L5.45 108.13 L3.54 109.2 L4.42 109.74 L3.78 110.76 a0.941033 0.915251 0 0 1 0.822457
									 1.04634 a0.355042 0.345314 0 0 1 -0.496308 0.396175 a0.561157 0.545782 0 0 1 -0.767459 -0.584835
									 L3.6 110.5 L3.29 109.42 L1.92 109.64 L1.95 110.32 L1.64 110.61 L0.99 110.55 A5.53853 5.53853
									 -180 0 0 -0 112.2 L0.76 112.49 A2.64401 2.57157 0 0 1 1.34 114.32 A2.46549 2.39794 -180 0 0
									 3.7 115.59 A1.76034 1.71212 0 0 1 4.91 117.17 a0.95818 0.931928 -180 0 0 -0.181303 1.20437 L5.57
									 118.78 A1.12071 1.09001 0 0 1 5.12 119.78 A3.04102 2.9577 -180 0 0 5.59 121.87 Z" class="st30"/>
					</g>
				</g>
				<g id="shape56-142" v:mID="56" v:groupContext="shape" transform="translate(0.00190161,-5.68434E-014)">
					<title>Sheet.56</title>
					<ellipse cx="7.05083" cy="114.825" rx="7.05083" ry="7.04954" class="st31"/>
					<ellipse cx="7.05083" cy="114.825" rx="7.05083" ry="7.04954" class="st20"/>
				</g>
			</g>
		</g>
		<g id="shape57-145" v:mID="57" v:groupContext="shape" transform="translate(102,-100.342)">
			<title>Sheet.57</title>
			<desc>Stream 1 Trame 2</desc>
			<v:textBlock v:margins="rect(4,4,4,4)"/>
			<v:textRect cx="25.3871" cy="111.592" width="50.78" height="20.5667"/>
			<rect x="0" y="101.308" width="50.7741" height="20.5667" class="st32"/>
			<text x="8.96" y="108.89" class="st33" v:langID="1033"><v:paragraph v:horizAlign="1"/><v:tabList/>Stream 1<v:newlineChar/><tspan
						x="10.34" dy="1.2em" class="st34">Trame </tspan>2</text>		</g>
		<g id="shape58-149" v:mID="58" v:groupContext="shape" transform="translate(140.25,-0.375)">
			<title>Sheet.58</title>
			<desc>Stream 1 : /index.html Stream 2: /js/script.js Stream 3: /css...</desc>
			<v:textBlock v:margins="rect(4,4,4,4)"/>
			<v:textRect cx="65.8871" cy="99.375" width="131.78" height="45"/>
			<rect x="0" y="76.875" width="131.774" height="45" class="st35"/>
			<text x="4" y="91.28" class="st33" v:langID="1033"><v:paragraph/><v:tabList/>Stream 1 : /index.html<v:newlineChar/><tspan
						x="4" dy="1.2em" class="st34">Stream </tspan>2: /js/script.js<v:newlineChar/><tspan x="4" dy="1.2em"
						class="st34">Stream </tspan>3: /css/styles.css</text>		</g>
		<g id="shape59-154" v:mID="59" v:groupContext="shape" transform="translate(267.226,-49.875)">
			<title>Sheet.59</title>
			<desc>Stream 1 Trame 4</desc>
			<v:textBlock v:margins="rect(4,4,4,4)"/>
			<v:textRect cx="25.3871" cy="111.592" width="50.78" height="20.5667"/>
			<rect x="0" y="101.308" width="50.7741" height="20.5667" class="st32"/>
			<text x="8.96" y="108.89" class="st33" v:langID="1033"><v:paragraph v:horizAlign="1"/><v:tabList/>Stream 1<v:newlineChar/><tspan
						x="10.34" dy="1.2em" class="st34">Trame </tspan>4</text>		</g>
		<g id="shape60-158" v:mID="60" v:groupContext="shape" transform="translate(196.5,-49.875)">
			<title>Sheet.60</title>
			<desc>Stream 3 Trame Promesse</desc>
			<v:textBlock v:margins="rect(4,4,4,4)"/>
			<v:textRect cx="35.5121" cy="111.592" width="71.03" height="20.5667"/>
			<rect x="0" y="101.308" width="71.0241" height="20.5667" class="st36"/>
			<text x="19.08" y="108.89" class="st33" v:langID="1033"><v:paragraph v:horizAlign="1"/><v:tabList/>Stream 3<v:newlineChar/><tspan
						x="4.88" dy="1.2em" class="st34">Trame Promesse</tspan></text>		</g>
		<g id="shape106-162" v:mID="106" v:groupContext="shape" transform="translate(75,-49.875)">
			<title>Sheet.106</title>
			<desc>Stream 1 Trame 3</desc>
			<v:textBlock v:margins="rect(4,4,4,4)"/>
			<v:textRect cx="25.3871" cy="111.592" width="50.78" height="20.5667"/>
			<rect x="0" y="101.308" width="50.7741" height="20.5667" class="st32"/>
			<text x="8.96" y="108.89" class="st33" v:langID="1033"><v:paragraph v:horizAlign="1"/><v:tabList/>Stream 1<v:newlineChar/><tspan
						x="10.34" dy="1.2em" class="st34">Trame </tspan>3</text>		</g>
		<g id="shape107-166" v:mID="107" v:groupContext="shape" transform="translate(125.476,-49.875)">
			<title>Sheet.107</title>
			<desc>Stream 2 Trame Promesse</desc>
			<v:textBlock v:margins="rect(4,4,4,4)"/>
			<v:textRect cx="35.5121" cy="111.592" width="71.03" height="20.5667"/>
			<rect x="0" y="101.308" width="71.0241" height="20.5667" class="st37"/>
			<text x="19.08" y="108.89" class="st33" v:langID="1033"><v:paragraph v:horizAlign="1"/><v:tabList/>Stream 2<v:newlineChar/><tspan
						x="4.88" dy="1.2em" class="st34">Trame Promesse</tspan></text>		</g>
		<g id="shape108-170" v:mID="108" v:groupContext="shape" transform="translate(318,-49.875)">
			<title>Sheet.108</title>
			<desc>Stream 3 Trame 1</desc>
			<v:textBlock v:margins="rect(4,4,4,4)"/>
			<v:textRect cx="25.3871" cy="111.592" width="50.78" height="20.5667"/>
			<rect x="0" y="101.308" width="50.7741" height="20.5667" class="st36"/>
			<text x="8.96" y="108.89" class="st33" v:langID="1033"><v:paragraph v:horizAlign="1"/><v:tabList/>Stream 3<v:newlineChar/><tspan
						x="10.34" dy="1.2em" class="st34">Trame </tspan>1</text>		</g>
	</g>
</svg>
