<?xml version="1.0" encoding="UTF-8" standalone="no"?>
<!DOCTYPE svg PUBLIC "-//W3C//DTD SVG 1.1//EN" "http://www.w3.org/Graphics/SVG/1.1/DTD/svg11.dtd">
<!-- Generated by Microsoft Visio, SVG Export http2-stream1.svg Page-1 -->
<svg xmlns="http://www.w3.org/2000/svg" xmlns:xlink="http://www.w3.org/1999/xlink" xmlns:ev="http://www.w3.org/2001/xml-events"
		xmlns:v="http://schemas.microsoft.com/visio/2003/SVGExtensions/" width="5.6441in" height="1.22257in"
		viewBox="0 0 406.375 88.025" xml:space="preserve" color-interpolation-filters="sRGB" class="st35">
	<v:documentProperties v:langID="1033" v:viewMarkup="false"/>

	<style type="text/css">
	<![CDATA[
		.st1 {fill:#ff00ff;fill-opacity:0;stroke:#000000;stroke-linecap:round;stroke-linejoin:round;stroke-opacity:0;stroke-width:0.72}
		.st2 {fill:url(#grad12-7);stroke:#ffffff;stroke-linecap:round;stroke-linejoin:round;stroke-width:0.72}
		.st3 {fill:url(#grad0-16);stroke:#ffffff;stroke-linecap:round;stroke-linejoin:round;stroke-width:0.72}
		.st4 {fill:url(#grad11-23);stroke:#000000;stroke-linecap:round;stroke-linejoin:round;stroke-width:0.72}
		.st5 {stroke:#ffffff;stroke-linecap:round;stroke-linejoin:round;stroke-width:0.72}
		.st6 {stroke:#000000;stroke-linecap:round;stroke-linejoin:round;stroke-width:0.72}
		.st7 {fill:url(#grad10-39);stroke:#000000;stroke-linecap:round;stroke-linejoin:round;stroke-width:0.72}
		.st8 {fill:#ffffff;stroke:none;stroke-linecap:round;stroke-linejoin:round;stroke-width:0.24}
		.st9 {fill:#969696;fill-opacity:0.3;stroke:none;stroke-linecap:round;stroke-linejoin:round;stroke-width:0.72}
		.st10 {fill:none;stroke:#000000;stroke-linecap:round;stroke-linejoin:round;stroke-width:1.5}
		.st11 {fill:#ffffff;stroke:#000000;stroke-linecap:round;stroke-linejoin:round;stroke-width:0.75}
		.st12 {fill:#000000}
		.st13 {stroke:#000000;stroke-linecap:round;stroke-linejoin:round;stroke-width:0.75}
		.st14 {marker-end:url(#mrkr3-64);stroke:#000000;stroke-linecap:round;stroke-linejoin:round;stroke-width:0.75}
		.st15 {fill:#000000;fill-opacity:1;stroke:#000000;stroke-opacity:1;stroke-width:0.22935779816514}
		.st16 {fill:url(#grad0-76)}
		.st17 {stroke:#ffffff;stroke-linecap:round;stroke-linejoin:round;stroke-width:0.36}
		.st18 {fill:url(#grad11-81)}
		.st19 {fill:url(#grad12-88);stroke:#ffffff;stroke-linecap:round;stroke-linejoin:round;stroke-width:0.36}
		.st20 {stroke:#000000;stroke-linecap:round;stroke-linejoin:round;stroke-width:1}
		.st21 {fill:url(#grad12-97);stroke:#000000;stroke-linecap:round;stroke-linejoin:round;stroke-width:0.36}
		.st22 {stroke:#000000;stroke-linecap:round;stroke-linejoin:round;stroke-width:0.6}
		.st23 {fill:#000000;stroke:#000000;stroke-linecap:round;stroke-linejoin:round;stroke-width:0.36}
		.st24 {fill:url(#grad8-113);stroke:#ffffff;stroke-linecap:round;stroke-linejoin:round;stroke-width:0.12}
		.st25 {fill:url(#grad10-118);stroke:none;stroke-linecap:round;stroke-linejoin:round;stroke-width:0.12}
		.st26 {fill:#000000;stroke:none;stroke-linecap:round;stroke-linejoin:round;stroke-width:0.24}
		.st27 {stroke:#000000;stroke-linecap:round;stroke-linejoin:round;stroke-width:0.36}
		.st28 {fill:url(#grad7-137)}
		.st29 {stroke:#000000;stroke-linecap:round;stroke-linejoin:round;stroke-width:0.72;visibility:hidden}
		.st30 {fill:#00ff00;fill-opacity:0.7}
		.st31 {fill:#000000;visibility:hidden}
		.st32 {fill:#92cddc;stroke:#000000;stroke-linecap:round;stroke-linejoin:round;stroke-width:0.75}
		.st33 {fill:#000000;font-family:Calibri;font-size:0.75em}
		.st34 {font-size:1em}
		.st35 {fill:none;fill-rule:evenodd;font-size:12px;overflow:visible;stroke-linecap:square;stroke-miterlimit:3}
	]]>
	</style>

	<defs id="Patterns_And_Gradients">
		<pattern id="grad12-7" x="0" y="0" width="1" height="1" patternContentUnits="objectBoundingBox">
			<path d="M 0 0 L 0 1 L 1 1 z" style="fill:url(#grad0-8)"/>
			<path d="M 0 0 L 1 0 L 1 1 z" style="fill:url(#grad0-9)"/>
		</pattern>
		<linearGradient id="grad0-8" x1="0" y1="0" x2="1" y2="0" gradientTransform="rotate(90 0.5 0.5)">
			<stop offset="0" stop-color="#ffffff" stop-opacity="1"/>
			<stop offset="1" stop-color="#a7a7a7" stop-opacity="1"/>
		</linearGradient>
		<linearGradient id="grad0-9" x1="0" y1="0" x2="1" y2="0" gradientTransform="rotate(360 0.5 0.5)">
			<stop offset="0" stop-color="#ffffff" stop-opacity="1"/>
			<stop offset="1" stop-color="#a7a7a7" stop-opacity="1"/>
		</linearGradient>
		<linearGradient id="grad0-16" x1="0" y1="0" x2="1" y2="0" gradientTransform="rotate(270 0.5 0.5)">
			<stop offset="0" stop-color="#ffffff" stop-opacity="1"/>
			<stop offset="1" stop-color="#dfdfdf" stop-opacity="1"/>
		</linearGradient>
		<pattern id="grad11-23" x="0" y="0" width="1" height="1" patternContentUnits="objectBoundingBox">
			<path d="M 0 1 L 0 0 L 1 0 z" style="fill:url(#grad0-24)"/>
			<path d="M 0 1 L 1 1 L 1 0 z" style="fill:url(#grad0-25)"/>
		</pattern>
		<linearGradient id="grad0-24" x1="0" y1="0" x2="1" y2="0" gradientTransform="rotate(180 0.5 0.5)">
			<stop offset="0" stop-color="#ffffff" stop-opacity="1"/>
			<stop offset="1" stop-color="#c0c0c0" stop-opacity="1"/>
		</linearGradient>
		<linearGradient id="grad0-25" x1="0" y1="0" x2="1" y2="0" gradientTransform="rotate(90 0.5 0.5)">
			<stop offset="0" stop-color="#ffffff" stop-opacity="1"/>
			<stop offset="1" stop-color="#c0c0c0" stop-opacity="1"/>
		</linearGradient>
		<pattern id="grad10-39" x="0" y="0" width="1" height="1" patternContentUnits="objectBoundingBox">
			<path d="M 0.5 0.5 L 0 0 L 0 1 z" style="fill:url(#grad0-40)"/>
			<path d="M 0.5 0.5 L 1 0 L 1 1 z" style="fill:url(#grad0-41)"/>
			<path d="M 0.5 0.5 L 0 0 L 1 0 z" style="fill:url(#grad0-42)"/>
			<path d="M 0.5 0.5 L 0 1 L 1 1 z" style="fill:url(#grad0-43)"/>
		</pattern>
		<linearGradient id="grad0-40" x1="0" y1="0" x2="1" y2="0" gradientTransform="rotate(180 0.5 0.5)">
			<stop offset="0" stop-color="#ffffff" stop-opacity="1"/>
			<stop offset="1" stop-color="#c6d1e3" stop-opacity="1"/>
		</linearGradient>
		<linearGradient id="grad0-41" x1="0" y1="0" x2="1" y2="0" gradientTransform="rotate(360 0.5 0.5)">
			<stop offset="0" stop-color="#ffffff" stop-opacity="1"/>
			<stop offset="1" stop-color="#c6d1e3" stop-opacity="1"/>
		</linearGradient>
		<linearGradient id="grad0-42" x1="0" y1="0" x2="1" y2="0" gradientTransform="rotate(270 0.5 0.5)">
			<stop offset="0" stop-color="#ffffff" stop-opacity="1"/>
			<stop offset="1" stop-color="#c6d1e3" stop-opacity="1"/>
		</linearGradient>
		<linearGradient id="grad0-43" x1="0" y1="0" x2="1" y2="0" gradientTransform="rotate(90 0.5 0.5)">
			<stop offset="0" stop-color="#ffffff" stop-opacity="1"/>
			<stop offset="1" stop-color="#c6d1e3" stop-opacity="1"/>
		</linearGradient>
		<linearGradient id="grad0-76" x1="0" y1="0" x2="1" y2="0" gradientTransform="rotate(270 0.5 0.5)">
			<stop offset="0" stop-color="#ffffff" stop-opacity="1"/>
			<stop offset="1" stop-color="#e1d8c1" stop-opacity="1"/>
		</linearGradient>
		<pattern id="grad11-81" x="0" y="0" width="1" height="1" patternContentUnits="objectBoundingBox">
			<path d="M 0 1 L 0 0 L 1 0 z" style="fill:url(#grad0-82)"/>
			<path d="M 0 1 L 1 1 L 1 0 z" style="fill:url(#grad0-83)"/>
		</pattern>
		<linearGradient id="grad0-82" x1="0" y1="0" x2="1" y2="0" gradientTransform="rotate(180 0.5 0.5)">
			<stop offset="0" stop-color="#ffffff" stop-opacity="1"/>
			<stop offset="1" stop-color="#cabb97" stop-opacity="1"/>
		</linearGradient>
		<linearGradient id="grad0-83" x1="0" y1="0" x2="1" y2="0" gradientTransform="rotate(90 0.5 0.5)">
			<stop offset="0" stop-color="#ffffff" stop-opacity="1"/>
			<stop offset="1" stop-color="#cabb97" stop-opacity="1"/>
		</linearGradient>
		<pattern id="grad12-88" x="0" y="0" width="1" height="1" patternContentUnits="objectBoundingBox">
			<path d="M 0 0 L 0 1 L 1 1 z" style="fill:url(#grad0-89)"/>
			<path d="M 0 0 L 1 0 L 1 1 z" style="fill:url(#grad0-90)"/>
		</pattern>
		<linearGradient id="grad0-89" x1="0" y1="0" x2="1" y2="0" gradientTransform="rotate(90 0.5 0.5)">
			<stop offset="0" stop-color="#ffffff" stop-opacity="1"/>
			<stop offset="1" stop-color="#b6a06d" stop-opacity="1"/>
		</linearGradient>
		<linearGradient id="grad0-90" x1="0" y1="0" x2="1" y2="0" gradientTransform="rotate(360 0.5 0.5)">
			<stop offset="0" stop-color="#ffffff" stop-opacity="1"/>
			<stop offset="1" stop-color="#b6a06d" stop-opacity="1"/>
		</linearGradient>
		<pattern id="grad12-97" x="0" y="0" width="1" height="1" patternContentUnits="objectBoundingBox">
			<path d="M 0 0 L 0 1 L 1 1 z" style="fill:url(#grad0-98)"/>
			<path d="M 0 0 L 1 0 L 1 1 z" style="fill:url(#grad0-99)"/>
		</pattern>
		<linearGradient id="grad0-98" x1="0" y1="0" x2="1" y2="0" gradientTransform="rotate(90 0.5 0.5)">
			<stop offset="0" stop-color="#ffffff" stop-opacity="1"/>
			<stop offset="1" stop-color="#339966" stop-opacity="1"/>
		</linearGradient>
		<linearGradient id="grad0-99" x1="0" y1="0" x2="1" y2="0" gradientTransform="rotate(360 0.5 0.5)">
			<stop offset="0" stop-color="#ffffff" stop-opacity="1"/>
			<stop offset="1" stop-color="#339966" stop-opacity="1"/>
		</linearGradient>
		<linearGradient id="grad0-103" x1="0" y1="0" x2="1" y2="0" gradientTransform="rotate(270 0.5 0.5)">
			<stop offset="0" stop-color="#ffffff" stop-opacity="1"/>
			<stop offset="1" stop-color="#e7e4cd" stop-opacity="1"/>
		</linearGradient>
		<pattern id="grad8-113" x="0" y="0" width="1" height="1" patternContentUnits="objectBoundingBox">
			<path d="M 0 0 L 1 0 L 1 1 z" style="fill:url(#grad0-103)"/>
			<path d="M 0 0 L 0 1 L 1 1 z" style="fill:url(#grad0-114)"/>
		</pattern>
		<linearGradient id="grad0-114" x1="0" y1="0" x2="1" y2="0" gradientTransform="rotate(180 0.5 0.5)">
			<stop offset="0" stop-color="#ffffff" stop-opacity="1"/>
			<stop offset="1" stop-color="#e7e4cd" stop-opacity="1"/>
		</linearGradient>
		<pattern id="grad10-118" x="0" y="0" width="1" height="1" patternContentUnits="objectBoundingBox">
			<path d="M 0.5 0.5 L 0 0 L 0 1 z" style="fill:url(#grad0-119)"/>
			<path d="M 0.5 0.5 L 1 0 L 1 1 z" style="fill:url(#grad0-120)"/>
			<path d="M 0.5 0.5 L 0 0 L 1 0 z" style="fill:url(#grad0-121)"/>
			<path d="M 0.5 0.5 L 0 1 L 1 1 z" style="fill:url(#grad0-122)"/>
		</pattern>
		<linearGradient id="grad0-119" x1="0" y1="0" x2="1" y2="0" gradientTransform="rotate(180 0.5 0.5)">
			<stop offset="0" stop-color="#000000" stop-opacity="0.4"/>
			<stop offset="1" stop-color="#e7e4cd" stop-opacity="0.4"/>
		</linearGradient>
		<linearGradient id="grad0-120" x1="0" y1="0" x2="1" y2="0" gradientTransform="rotate(360 0.5 0.5)">
			<stop offset="0" stop-color="#000000" stop-opacity="0.4"/>
			<stop offset="1" stop-color="#e7e4cd" stop-opacity="0.4"/>
		</linearGradient>
		<linearGradient id="grad0-121" x1="0" y1="0" x2="1" y2="0" gradientTransform="rotate(270 0.5 0.5)">
			<stop offset="0" stop-color="#000000" stop-opacity="0.4"/>
			<stop offset="1" stop-color="#e7e4cd" stop-opacity="0.4"/>
		</linearGradient>
		<linearGradient id="grad0-122" x1="0" y1="0" x2="1" y2="0" gradientTransform="rotate(90 0.5 0.5)">
			<stop offset="0" stop-color="#000000" stop-opacity="0.4"/>
			<stop offset="1" stop-color="#e7e4cd" stop-opacity="0.4"/>
		</linearGradient>
		<radialGradient id="grad7-137" cx="0" cy="0" r="1.4">
			<stop offset="0" stop-color="#ffffff" stop-opacity="1"/>
			<stop offset="1" stop-color="#0000ff" stop-opacity="1"/>
		</radialGradient>
	</defs>
	<defs id="Markers">
		<g id="lend3">
			<path d="M 2 1 L 0 0 L 2 -1 " style="stroke-linecap:round;stroke-linejoin:round;fill:none"/>
		</g>
		<marker id="mrkr3-64" class="st15" v:arrowType="3" v:arrowSize="2" orient="auto" markerUnits="strokeWidth"
				overflow="visible">
			<use xlink:href="#lend3" transform="scale(-4.36,-4.36) "/>
		</marker>
	</defs>
	<g v:mID="0" v:index="1" v:groupContext="foregroundPage">
		<title>Page-1</title>
		<v:pageProperties v:drawingScale="1" v:pageScale="1" v:drawingUnits="19" v:shadowOffsetX="9" v:shadowOffsetY="-9"/>
		<g id="group1-1" transform="translate(0.75,-42.65)" v:mID="1" v:groupContext="group">
			<v:custProps>
				<v:cp v:nameU="ShapeClass" v:lbl="ShapeClass" v:type="0" v:invis="true" v:ask="false" v:langID="1033"
						v:val="VT4(Equipment)"/>
				<v:cp v:nameU="ShapeType" v:lbl="ShapeType" v:type="0" v:invis="true" v:ask="false" v:langID="1033"
						v:val="VT4(Computer)"/>
				<v:cp v:nameU="SubShapeType" v:lbl="SubShapeType" v:type="0" v:invis="true" v:ask="false" v:langID="1033"
						v:val="VT4(Laptop)"/>
				<v:cp v:nameU="Manufacturer" v:lbl="Manufacturer" v:type="0" v:sortKey="Equipment" v:invis="false" v:ask="false"
						v:langID="1033"/>
				<v:cp v:nameU="ProductNumber" v:lbl="Product Number" v:type="0" v:sortKey="Equipment" v:invis="false" v:ask="false"
						v:langID="1033"/>
				<v:cp v:nameU="PartNumber" v:lbl="Part Number" v:type="0" v:sortKey="Equipment" v:invis="false" v:ask="false"
						v:langID="1033"/>
				<v:cp v:nameU="ProductDescription" v:lbl="Product Description" v:type="0" v:sortKey="Equipment" v:invis="false"
						v:ask="false" v:langID="1033"/>
				<v:cp v:nameU="AssetNumber" v:lbl="Asset Number" v:type="0" v:sortKey="Asset" v:invis="false" v:ask="false"
						v:langID="1033"/>
				<v:cp v:nameU="SerialNumber" v:lbl="Serial Number" v:type="0" v:sortKey="Asset" v:invis="false" v:ask="false"
						v:langID="1033"/>
				<v:cp v:nameU="Location" v:lbl="Location" v:type="0" v:sortKey="Asset" v:invis="false" v:ask="false"
						v:langID="1033"/>
				<v:cp v:nameU="Building" v:lbl="Building" v:type="0" v:sortKey="Asset" v:invis="false" v:ask="false"
						v:langID="1033"/>
				<v:cp v:nameU="Room" v:lbl="Room" v:type="0" v:sortKey="Asset" v:invis="false" v:ask="false" v:langID="1033"/>
				<v:cp v:nameU="NetworkName" v:lbl="Network Name" v:type="0" v:sortKey="Network" v:invis="false" v:ask="false"
						v:langID="1033"/>
				<v:cp v:nameU="IPAddress" v:lbl="IP Address" v:type="0" v:sortKey="Network" v:invis="false" v:ask="false"
						v:langID="1033"/>
				<v:cp v:nameU="SubnetMask" v:lbl="Subnet Mask" v:type="0" v:sortKey="Network" v:invis="false" v:ask="false"
						v:langID="1033"/>
				<v:cp v:nameU="AdminInterface" v:lbl="Administrative Interface" v:type="0" v:sortKey="Network" v:invis="false"
						v:ask="false" v:langID="1033"/>
				<v:cp v:nameU="NumberofPorts" v:lbl="Number of Ports" v:type="0" v:sortKey="Network" v:invis="false" v:ask="false"
						v:langID="1033"/>
				<v:cp v:nameU="MACAddress" v:lbl="MAC Address" v:type="0" v:sortKey="Network" v:invis="false" v:ask="false"
						v:langID="1033"/>
				<v:cp v:nameU="CommunityString" v:lbl="Community String" v:type="0" v:sortKey="Network" v:invis="false"
						v:ask="false" v:langID="1033"/>
				<v:cp v:nameU="NetworkDescription" v:lbl="Network Description" v:type="0" v:sortKey="Network" v:invis="false"
						v:ask="false" v:langID="1033"/>
				<v:cp v:nameU="HardDriveSize" v:lbl="Hard Drive Capacity" v:type="0" v:sortKey="Workstation" v:invis="false"
						v:ask="false" v:langID="1033"/>
				<v:cp v:nameU="CPU" v:lbl="CPU" v:type="0" v:sortKey="Workstation" v:invis="false" v:ask="false" v:langID="1033"/>
				<v:cp v:nameU="Memory" v:lbl="Memory" v:type="0" v:sortKey="Workstation" v:invis="false" v:ask="false"
						v:langID="1033"/>
				<v:cp v:nameU="OperatingSystem" v:lbl="Operating System" v:type="0" v:sortKey="Workstation" v:invis="false"
						v:ask="false" v:langID="1033"/>
			</v:custProps>
			<v:userDefs>
				<v:ud v:nameU="HasText" v:val="VT0(0):5"/>
				<v:ud v:nameU="ShapeClass" v:val="VT0(5):26"/>
				<v:ud v:nameU="ShapeType" v:val="VT0(6):26"/>
				<v:ud v:nameU="SubShapeType" v:val="VT0(37):26"/>
				<v:ud v:nameU="SolSH" v:val="VT15({BF0433D9-CD73-4EB5-8390-8653BE590246}):41"/>
				<v:ud v:nameU="visLegendShape" v:val="VT0(2):26"/>
				<v:ud v:nameU="visVersion" v:prompt="" v:val="VT0(15):26"/>
			</v:userDefs>
			<title>Laptop computer</title>
			<g id="shape2-2" v:mID="2" v:groupContext="shape">
				<title>Sheet.2</title>
				<path d="M45 57.88 L21.93 44.57 L19.95 44.57 L19.93 44.64 L14.49 63.01 L0 71.37 L0 74.53 A54.2544 53.4291 -90.05
							 0 0 23.16 88.03 L38.7 79.02 L45 57.88 Z" class="st1"/>
			</g>
			<g id="shape3-4" v:mID="3" v:groupContext="shape" transform="translate(23.1617,0)">
				<title>Sheet.3</title>
				<path d="M0.01 84.65 L16.66 74.98 L15.54 79.03 L0 88.03 L0.01 84.65 Z" class="st2"/>
			</g>
			<g id="shape4-10" v:mID="4" v:groupContext="shape" transform="translate(37.556,-11.7151)">
				<title>Sheet.4</title>
				<path d="M0 88.03 L5.46 69.59 L7.44 69.59 L2.27 86.69 L0 88.03 Z" class="st2"/>
			</g>
			<g id="shape5-13" v:mID="5" v:groupContext="shape" transform="translate(19.89,-30.15)">
				<title>Sheet.5</title>
				<path d="M0 74.79 L2.04 74.72 L25.11 88.03 L23.13 88.03 A997.623 982.447 87.95 0 1 0 74.8 Z" class="st3"/>
			</g>
			<g id="shape6-17" v:mID="6" v:groupContext="shape" transform="translate(0,-3.375)">
				<title>Sheet.6</title>
				<path d="M0 74.75 L14.49 66.38 L37.56 79.68 L23.18 88.03 A60.3675 59.4492 89.17 0 1 0 74.75 Z" class="st3"/>
			</g>
			<g id="shape7-20" v:mID="7" v:groupContext="shape" transform="translate(14.49,-11.7151)">
				<title>Sheet.7</title>
				<path d="M23.07 88.02 A3151.07 3103.14 -91.15 0 0 -0 74.72 L5.46 56.29 L28.53 69.59 L23.07 88.03 Z" class="st4"/>
			</g>
			<g id="shape8-26" v:mID="8" v:groupContext="shape">
				<title>Sheet.8</title>
				<path d="M-0 74.53 A54.2544 53.4291 -90.05 0 0 23.16 88.03 L23.17 84.65 A60.3555 59.4374 88.88 0 1 0 71.38 L0 74.53
							 Z" class="st4"/>
			</g>
			<g id="shape9-29" v:mID="9" v:groupContext="shape" transform="translate(16.2,-13.6125)">
				<title>Sheet.9</title>
				<path d="M4.77 60.35 L0 76.28 L20.43 88.03" class="st5"/>
			</g>
			<g id="shape10-32" v:mID="10" v:groupContext="shape" transform="translate(34.425,-0.81) scale(-1,1)">
				<title>Sheet.10</title>
				<path d="M0 80.29 L9.94 86.05 L9.94 88.03" class="st6"/>
			</g>
			<g id="shape11-36" v:mID="11" v:groupContext="shape" transform="translate(16.83,-13.6125)">
				<title>Sheet.11</title>
				<path d="M0 76.1 L4.59 60.62 L4.14 60.35 A886.97 873.477 89.01 0 1 24.48 72.1 L19.8 88.03 L19.89 87.58 A782.199 770.3
							 88.95 0 1 -0 76.1 Z" class="st7"/>
			</g>
			<g id="group12-44" transform="translate(3.2586,-4.80501)" v:mID="12" v:groupContext="group">
				<title>Sheet.12</title>
				<g id="shape13-45" v:mID="13" v:groupContext="shape" transform="translate(0,-0.45)">
					<title>Sheet.13</title>
					<path d="M0 76.02 L2.08 77.22 L4.04 76.09 L1.96 74.89 L0 76.02 ZM2.93 74.33 L5.01 75.53 L6.97 74.4 L4.89 73.2
								 L2.93 74.33 ZM5.87 72.63 L7.95 73.83 L9.9 72.7 L7.82 71.5 L5.87 72.63 ZM8.8 70.94 L10.88 72.14 L12.84
								 71.01 L10.76 69.81 L8.8 70.94 ZM11.92 72.74 L14 73.94 L15.96 72.81 L13.88 71.61 L11.92 72.74 ZM15.04
								 74.54 L17.12 75.74 L19.08 74.61 L17 73.41 L15.04 74.54 ZM18.16 76.34 L20.24 77.54 L22.19 76.41 L20.12
								 75.21 L18.16 76.34 ZM24.4 79.94 L26.48 81.14 L28.43 80.01 L26.35 78.81 L24.4 79.94 ZM27.52 81.74
								 L29.6 82.94 L31.55 81.81 L29.47 80.61 L27.52 81.74 ZM24.58 83.44 L26.66 84.64 L28.62 83.51 L26.54
								 82.31 L24.58 83.44 ZM21.46 81.64 L23.54 82.84 L25.5 81.71 L23.42 80.51 L21.46 81.64 ZM21.28 78.14
								 L23.36 79.34 L25.31 78.21 L23.23 77.01 L21.28 78.14 ZM18.34 79.83 L20.42 81.04 L22.38 79.91 L20.3
								 78.71 L18.34 79.83 ZM15.23 78.03 L17.3 79.23 L19.26 78.11 L17.18 76.9 L15.23 78.03 ZM12.11 76.23
								 L14.19 77.43 L16.14 76.3 L14.06 75.1 L12.11 76.23 ZM8.99 74.43 L11.07 75.63 L13.02 74.5 L10.94 73.3
								 L8.99 74.43 ZM6.05 76.13 L8.13 77.33 L10.09 76.2 L8.01 75 L6.05 76.13 ZM9.17 77.93 L11.25 79.13
								 L13.21 78 L11.13 76.8 L9.17 77.93 ZM12.29 79.73 L14.37 80.93 L16.33 79.8 L14.25 78.6 L12.29 79.73
								 ZM15.41 81.53 L17.49 82.73 L19.45 81.6 L17.37 80.4 L15.41 81.53 ZM18.53 83.33 L20.61 84.53 L22.57
								 83.4 L20.49 82.2 L18.53 83.33 ZM21.65 85.13 L23.73 86.33 L25.68 85.2 L23.6 84 L21.65 85.13 ZM18.71
								 86.82 L20.79 88.03 L22.75 86.9 L20.67 85.7 L18.71 86.82 ZM15.6 85.02 L17.68 86.22 L19.63 85.09 L17.55
								 83.89 L15.6 85.02 ZM6.24 79.62 L14.56 84.42 L16.51 83.29 L8.19 78.49 L6.24 79.62 ZM3.12 77.82 L5.2
								 79.02 L7.15 77.89 L5.08 76.69 L3.12 77.82 Z" class="st8"/>
				</g>
				<g id="shape14-47" v:mID="14" v:groupContext="shape">
					<title>Sheet.14</title>
					<path d="M8.8 70.94 L10.88 72.14 L10.88 71.69 L8.8 70.49 L8.8 70.94 ZM11.92 72.74 L14 73.94 L14 73.49 L11.92
								 72.29 L11.92 72.74 ZM15.04 74.54 L17.12 75.74 L17.12 75.29 L15.04 74.09 L15.04 74.54 ZM18.16 76.34
								 L20.24 77.54 L20.24 77.09 L18.16 75.89 L18.16 76.34 ZM21.28 78.14 L23.36 79.34 L23.36 78.89 L21.28
								 77.69 L21.28 78.14 ZM24.4 79.94 L26.48 81.14 L26.48 80.69 L24.4 79.49 L24.4 79.94 ZM10.88 71.69
								 L10.88 72.14 L12.84 71.01 L12.84 70.56 L10.88 71.69 ZM14 73.49 L14 73.94 L15.96 72.81 L15.96 72.36
								 L14 73.49 ZM17.12 75.29 L17.12 75.74 L19.08 74.61 L19.08 74.16 L17.12 75.29 ZM20.24 77.09 L20.24
								 77.54 L22.19 76.41 L22.19 75.96 L20.24 77.09 ZM23.36 78.89 L23.36 79.34 L25.31 78.21 L25.31 77.76
								 L23.36 78.89 ZM26.48 80.69 L26.48 81.14 L28.43 80.01 L28.43 79.56 L26.48 80.69 ZM27.52 81.74 L29.6
								 82.94 L29.6 82.49 L27.52 81.29 L27.52 81.74 ZM29.6 82.49 L29.6 82.94 L31.55 81.81 L31.55 81.36 L29.6
								 82.49 ZM5.87 72.63 L7.95 73.83 L7.95 73.38 L5.87 72.18 L5.87 72.63 ZM8.99 74.43 L11.07 75.63 L11.07
								 75.18 L8.99 73.98 L8.99 74.43 ZM12.11 76.23 L14.19 77.43 L14.19 76.98 L12.11 75.78 L12.11 76.23
								 ZM15.23 78.03 L17.3 79.23 L17.3 78.78 L15.23 77.58 L15.23 78.03 ZM18.34 79.83 L20.42 81.04 L20.42
								 80.59 L18.34 79.38 L18.34 79.83 ZM21.46 81.64 L23.54 82.84 L23.54 82.39 L21.46 81.19 L21.46 81.64
								 ZM7.95 73.38 L7.95 73.83 L9.9 72.7 L9.9 72.25 L7.95 73.38 ZM11.07 75.18 L11.07 75.63 L13.02 74.5
								 L13.02 74.05 L11.07 75.18 ZM14.19 76.98 L14.19 77.43 L16.14 76.3 L16.14 75.85 L14.19 76.98 ZM17.3
								 78.78 L17.3 79.23 L19.26 78.11 L19.26 77.66 L17.3 78.78 ZM20.42 80.59 L20.42 81.04 L22.38 79.91
								 L22.38 79.46 L20.42 80.59 ZM23.54 82.39 L23.54 82.84 L25.5 81.71 L25.5 81.26 L23.54 82.39 ZM24.58
								 83.44 L26.66 84.64 L26.66 84.19 L24.58 82.99 L24.58 83.44 ZM26.66 84.19 L26.66 84.64 L28.62 83.51
								 L28.62 83.06 L26.66 84.19 ZM2.93 74.33 L5.01 75.53 L5.01 75.08 L2.93 73.88 L2.93 74.33 ZM6.05 76.13
								 L8.13 77.33 L8.13 76.88 L6.05 75.68 L6.05 76.13 ZM9.17 77.93 L11.25 79.13 L11.25 78.68 L9.17 77.48
								 L9.17 77.93 ZM12.29 79.73 L14.37 80.93 L14.37 80.48 L12.29 79.28 L12.29 79.73 ZM15.41 81.53 L17.49
								 82.73 L17.49 82.28 L15.41 81.08 L15.41 81.53 ZM18.53 83.33 L20.61 84.53 L20.61 84.08 L18.53 82.88
								 L18.53 83.33 ZM5.01 75.08 L5.01 75.53 L6.97 74.4 L6.97 73.95 L5.01 75.08 ZM8.13 76.88 L8.13 77.33
								 L10.09 76.2 L10.09 75.75 L8.13 76.88 ZM11.25 78.68 L11.25 79.13 L13.21 78 L13.21 77.55 L11.25 78.68
								 ZM14.37 80.48 L14.37 80.93 L16.33 79.8 L16.33 79.35 L14.37 80.48 ZM17.49 82.28 L17.49 82.73 L19.45
								 81.6 L19.45 81.15 L17.49 82.28 ZM20.61 84.08 L20.61 84.53 L22.57 83.4 L22.57 82.95 L20.61 84.08
								 ZM21.65 85.13 L23.73 86.33 L23.73 85.88 L21.65 84.68 L21.65 85.13 ZM23.73 85.88 L23.73 86.33 L25.68
								 85.2 L25.68 84.75 L23.73 85.88 ZM0 76.02 L2.08 77.22 L2.08 76.77 L0 75.57 L0 76.02 ZM3.12 77.82
								 L5.2 79.02 L5.2 78.57 L3.12 77.37 L3.12 77.82 ZM6.24 79.62 L14.56 84.42 L14.56 83.97 L6.24 79.17
								 L6.24 79.62 ZM15.6 85.02 L17.68 86.22 L17.68 85.77 L15.6 84.57 L15.6 85.02 ZM2.08 76.77 L2.08 77.22
								 L4.04 76.09 L4.04 75.64 L2.08 76.77 ZM5.2 78.57 L5.2 79.02 L7.15 77.89 L7.15 77.44 L5.2 78.57 ZM14.56
								 83.97 L14.56 84.42 L16.51 83.29 L16.51 82.84 L14.56 83.97 ZM17.68 85.77 L17.68 86.22 L19.63 85.09
								 L19.63 84.64 L17.68 85.77 ZM18.71 86.82 L20.79 88.03 L20.79 87.58 L18.71 86.37 L18.71 86.82 ZM20.79
								 87.58 L20.79 88.03 L22.75 86.9 L22.75 86.45 L20.79 87.58 Z" class="st9"/>
				</g>
			</g>
			<g id="shape15-49" v:mID="15" v:groupContext="shape">
				<title>Sheet.15</title>
				<path d="M23.16 88.03 L38.7 79.02 L45 57.88 L21.93 44.57 L19.95 44.57 L14.49 63 L0 71.37 L0 74.53 A55.1887 54.3491
							 -90.05 0 0 23.16 88.03 Z" class="st10"/>
			</g>
		</g>
		<g id="group30-51" transform="translate(100.025,43.125) rotate(90)" v:mID="30" v:groupContext="group">
			<v:custProps>
				<v:cp v:nameU="AssetNumber" v:lbl="Asset Number" v:prompt="" v:type="0" v:format="" v:sortKey="Asset"
						v:invis="false" v:ask="false" v:langID="1033" v:cal="0"/>
				<v:cp v:nameU="SerialNumber" v:lbl="Serial Number" v:prompt="" v:type="0" v:format="" v:sortKey="Asset"
						v:invis="false" v:ask="false" v:langID="1033" v:cal="0"/>
				<v:cp v:nameU="Location" v:lbl="Location" v:prompt="" v:type="0" v:format="" v:sortKey="Asset" v:invis="false"
						v:ask="false" v:langID="1033" v:cal="0"/>
				<v:cp v:nameU="Building" v:lbl="Building" v:prompt="" v:type="0" v:format="" v:sortKey="Asset" v:invis="false"
						v:ask="false" v:langID="1033" v:cal="0"/>
				<v:cp v:nameU="Room" v:lbl="Room" v:prompt="" v:type="0" v:format="" v:sortKey="Asset" v:invis="false"
						v:ask="false" v:langID="1033" v:cal="0"/>
				<v:cp v:nameU="Manufacturer" v:lbl="Manufacturer" v:prompt="" v:type="0" v:format="" v:sortKey="Equipment"
						v:invis="false" v:ask="false" v:langID="1033" v:cal="0"/>
				<v:cp v:nameU="ProductNumber" v:lbl="Product Number" v:prompt="" v:type="0" v:format="" v:sortKey="Equipment"
						v:invis="false" v:ask="false" v:langID="1033" v:cal="0"/>
				<v:cp v:nameU="PartNumber" v:lbl="Part Number" v:prompt="" v:type="0" v:format="" v:sortKey="Equipment"
						v:invis="false" v:ask="false" v:langID="1033" v:cal="0"/>
				<v:cp v:nameU="ProductDescription" v:lbl="Product Description" v:prompt="" v:type="0" v:format=""
						v:sortKey="Equipment" v:invis="false" v:ask="false" v:langID="1033" v:cal="0"/>
				<v:cp v:nameU="NetworkName" v:lbl="Network Name" v:prompt="" v:type="0" v:format="" v:sortKey="Network"
						v:invis="false" v:ask="false" v:langID="1033" v:cal="0"/>
				<v:cp v:nameU="IPAddress" v:lbl="IP Address" v:prompt="" v:type="0" v:format="" v:sortKey="Network" v:invis="false"
						v:ask="false" v:langID="1033" v:cal="0"/>
				<v:cp v:nameU="SubnetMask" v:lbl="Subnet Mask" v:prompt="" v:type="0" v:format="" v:sortKey="Network"
						v:invis="false" v:ask="false" v:langID="1033" v:cal="0"/>
				<v:cp v:nameU="AdminInterface" v:lbl="Administrative Interface" v:prompt="" v:type="0" v:format=""
						v:sortKey="Network" v:invis="false" v:ask="false" v:langID="1033" v:cal="0"/>
				<v:cp v:nameU="NumberofPorts" v:lbl="Number of Ports" v:prompt="" v:type="0" v:format="" v:sortKey="Network"
						v:invis="false" v:ask="false" v:langID="1033" v:cal="0"/>
				<v:cp v:nameU="CommunityString" v:lbl="Community String" v:prompt="" v:type="0" v:format="" v:sortKey="Network"
						v:invis="false" v:ask="false" v:langID="1033" v:cal="0"/>
				<v:cp v:nameU="NetworkDescription" v:lbl="Network Description" v:prompt="" v:type="0" v:format=""
						v:sortKey="Network" v:invis="false" v:ask="false" v:langID="1033" v:cal="0"/>
				<v:cp v:nameU="MACAddress" v:lbl="MAC Address" v:prompt="" v:type="0" v:format="" v:sortKey="Network"
						v:invis="false" v:ask="false" v:langID="1033" v:cal="0"/>
				<v:cp v:nameU="CPU" v:lbl="CPU" v:prompt="" v:type="0" v:format="" v:sortKey="Workstation" v:invis="false"
						v:ask="false" v:langID="1033" v:cal="0"/>
				<v:cp v:nameU="Memory" v:lbl="Memory" v:prompt="" v:type="0" v:format="" v:sortKey="Workstation" v:invis="false"
						v:ask="false" v:langID="1033" v:cal="0"/>
				<v:cp v:nameU="OperatingSystem" v:lbl="Operating System" v:prompt="" v:type="0" v:format="" v:sortKey="Workstation"
						v:invis="false" v:ask="false" v:langID="1033" v:cal="0"/>
				<v:cp v:nameU="HardDriveSize" v:lbl="Hard Drive Capacity" v:prompt="" v:type="0" v:format=""
						v:sortKey="Workstation" v:invis="false" v:ask="false" v:langID="1033" v:cal="0"/>
				<v:cp v:nameU="ShapeClass" v:lbl="ShapeClass" v:prompt="" v:type="0" v:format="" v:sortKey="" v:invis="true"
						v:ask="false" v:langID="1033" v:cal="0" v:val="VT4(Equipment)"/>
				<v:cp v:nameU="ShapeType" v:lbl="ShapeType" v:prompt="" v:type="0" v:format="" v:sortKey="" v:invis="true"
						v:ask="false" v:langID="1033" v:cal="0" v:val="VT4(MobilePhone)"/>
			</v:custProps>
			<v:userDefs>
				<v:ud v:nameU="visVersion" v:prompt="" v:val="VT0(15):26"/>
				<v:ud v:nameU="ShapeClass" v:prompt="" v:val="VT0(5):26"/>
				<v:ud v:nameU="SolSH" v:prompt="" v:val="VT15({BF0433D9-CD73-4EB5-8390-8653BE590246}):41"/>
				<v:ud v:nameU="visLegendShape" v:prompt="" v:val="VT0(2):26"/>
			</v:userDefs>
			<title>Smart phone</title>
			<g id="shape31-52" v:mID="31" v:groupContext="shape" transform="translate(5.3052,0)">
				<title>Sheet.31</title>
				<path d="M0 86.62 C0 87.12 0.4 87.57 0.89 87.64 C0.89 87.64 3.79 88.03 5.94 88.03 C8.1 88.03 11 87.64 11 87.64 C11.49
							 87.57 11.89 87.12 11.89 86.62 L11.89 66.93 C11.89 66.43 11.49 65.97 11 65.91 C11 65.91 8.15 65.53 5.94
							 65.53 C3.79 65.53 0.89 65.91 0.89 65.91 C0.4 65.98 0 66.43 0 66.93 L0 86.62 Z" class="st11"/>
			</g>
			<g id="shape32-54" v:mID="32" v:groupContext="shape" transform="translate(6.20238,-2.76281)">
				<title>Sheet.32</title>
				<v:userDefs>
					<v:ud v:nameU="SurroundingRegionColor" v:prompt="" v:val="VT5(1)"/>
				</v:userDefs>
				<rect x="0" y="71.4863" width="10.0952" height="16.5387" class="st11"/>
			</g>
			<g id="shape33-56" v:mID="33" v:groupContext="shape" transform="translate(9.39574,-1.12219)">
				<title>Sheet.33</title>
				<v:userDefs>
					<v:ud v:nameU="SurroundingRegionColor" v:prompt="" v:val="VT5(1)"/>
				</v:userDefs>
				<path d="M0.8 87.62 a0.400078 0.400078 -180 1 0 -0.800156 0 a0.400078 0.400078 -180 1 0 0.800156 0 ZM2.26 87.62 a0.400078
							 0.400078 -180 1 0 -0.800156 0 a0.400078 0.400078 -180 1 0 0.800156 0 ZM3.71 87.62 a0.400312 0.400312
							 -180 1 0 -0.800625 0 a0.400312 0.400312 -180 1 0 0.800625 0 Z" class="st12"/>
				<path d="M0.37 68.49 L3.34 68.49" class="st13"/>
			</g>
		</g>
		<g id="shape35-59" v:mID="35" v:groupContext="shape" transform="translate(63.75,-74.15)">
			<title>Sheet.35</title>
			<path d="M0 88.03 L297 88.03" class="st14"/>
		</g>
		<g id="shape36-65" v:mID="36" v:groupContext="shape" transform="translate(356.25,151.4) rotate(180)">
			<title>Sheet.36</title>
			<path d="M0 88.03 L292.5 88.03" class="st14"/>
		</g>
		<g id="group37-70" transform="translate(369.75,-22.4)" v:mID="37" v:groupContext="group">
			<v:custProps>
				<v:cp v:nameU="Manufacturer" v:lbl="Manufacturer" v:type="0" v:sortKey="Equipment" v:invis="false" v:langID="1033"/>
				<v:cp v:nameU="ProductNumber" v:lbl="Product Number" v:type="0" v:sortKey="Equipment" v:invis="false"
						v:langID="1033"/>
				<v:cp v:nameU="PartNumber" v:lbl="Part Number" v:type="0" v:sortKey="Equipment" v:invis="false" v:langID="1033"/>
				<v:cp v:nameU="ProductDescription" v:lbl="Product Description" v:type="0" v:sortKey="Equipment" v:invis="false"
						v:langID="1033"/>
				<v:cp v:nameU="AssetNumber" v:lbl="Asset Number" v:type="0" v:sortKey="Asset" v:invis="false" v:langID="1033"/>
				<v:cp v:nameU="SerialNumber" v:lbl="Serial Number" v:type="0" v:sortKey="Asset" v:invis="false" v:langID="1033"/>
				<v:cp v:nameU="Location" v:lbl="Location" v:type="0" v:sortKey="Asset" v:invis="false" v:langID="1033"/>
				<v:cp v:nameU="Building" v:lbl="Building" v:type="0" v:sortKey="Asset" v:invis="false" v:langID="1033"/>
				<v:cp v:nameU="Room" v:lbl="Room" v:type="0" v:sortKey="Asset" v:invis="false" v:langID="1033"/>
				<v:cp v:nameU="Department" v:lbl="Department" v:langID="1033"/>
				<v:cp v:nameU="ShapeClass" v:lbl="ShapeClass" v:type="0" v:invis="true" v:ask="false" v:langID="1033"
						v:val="VT4(Equipment)"/>
				<v:cp v:nameU="ShapeType" v:lbl="ShapeType" v:type="0" v:invis="true" v:ask="false" v:langID="1033"
						v:val="VT4(Server)"/>
				<v:cp v:nameU="SubShapeType" v:lbl="SubShapeType" v:type="0" v:invis="true" v:ask="false" v:langID="1033"
						v:val="VT4(Web)"/>
				<v:cp v:nameU="NetworkName" v:lbl="Network Name" v:type="0" v:sortKey="Network" v:invis="false" v:ask="false"
						v:langID="1033"/>
				<v:cp v:nameU="IPAddress" v:lbl="IP Address" v:type="0" v:sortKey="Network" v:invis="false" v:ask="false"
						v:langID="1033"/>
				<v:cp v:nameU="SubnetMask" v:lbl="Subnet Mask" v:type="0" v:sortKey="Network" v:invis="false" v:ask="false"
						v:langID="1033"/>
				<v:cp v:nameU="AdminInterface" v:lbl="Administrative Interface" v:type="0" v:sortKey="Network" v:invis="false"
						v:ask="false" v:langID="1033"/>
				<v:cp v:nameU="NumberofPorts" v:lbl="Number of Ports" v:type="0" v:sortKey="Network" v:invis="false" v:ask="false"
						v:langID="1033"/>
				<v:cp v:nameU="MACAddress" v:lbl="MAC Address" v:type="0" v:sortKey="Network" v:invis="false" v:ask="false"
						v:langID="1033"/>
				<v:cp v:nameU="CommunityString" v:lbl="Community String" v:type="0" v:sortKey="Network" v:invis="false"
						v:ask="false" v:langID="1033"/>
				<v:cp v:nameU="NetworkDescription" v:lbl="Network Description" v:type="0" v:sortKey="Network" v:invis="false"
						v:ask="false" v:langID="1033"/>
				<v:cp v:nameU="HardDriveSize" v:lbl="Hard Drive Capacity" v:type="0" v:sortKey="Workstation" v:invis="false"
						v:ask="false" v:langID="1033"/>
				<v:cp v:nameU="CPU" v:lbl="CPU" v:type="0" v:sortKey="Workstation" v:invis="false" v:ask="false" v:langID="1033"/>
				<v:cp v:nameU="Memory" v:lbl="Memory" v:type="0" v:sortKey="Workstation" v:invis="false" v:ask="false"
						v:langID="1033"/>
				<v:cp v:nameU="OperatingSystem" v:lbl="Operating System" v:type="0" v:sortKey="Workstation" v:invis="false"
						v:ask="false" v:langID="1033"/>
			</v:custProps>
			<v:userDefs>
				<v:ud v:nameU="HasText" v:val="VT0(0):5"/>
				<v:ud v:nameU="SolSH" v:val="VT15({BF0433D9-CD73-4EB5-8390-8653BE590246}):41"/>
				<v:ud v:nameU="ShapeClass" v:val="VT0(5):26"/>
				<v:ud v:nameU="ShapeType" v:val="VT0(24):26"/>
				<v:ud v:nameU="SubShapeType" v:val="VT0(74):26"/>
				<v:ud v:nameU="visLegendShape" v:val="VT0(2):26"/>
				<v:ud v:nameU="visVersion" v:prompt="" v:val="VT0(15):26"/>
			</v:userDefs>
			<title>Web server</title>
			<g id="shape38-71" v:mID="38" v:groupContext="shape">
				<title>Sheet.38</title>
				<path d="M32.17 79.57 A4.55789 4.43302 -177.47 0 0 32.05 78.44 A7.0506 7.0506 -180 0 0 31.92 77.9 L36.12 75.57 L36.12
							 44.07 L22.23 36.42 L0 48.88 L0.01 80.87 A23.3903 22.4675 -180 0 0 13.72 88.03 L19.93 84.54 A7.0506 7.0506
							 -180 0 0 30.6 84.2 A7.0506 7.0506 -180 0 0 31.33 83.11 A6.93097 6.74108 -2.73 0 0 32.17 79.57 ZM6.17
							 53.86 A24.1393 23.187 -180 0 0 13.72 56.62 A23.8697 22.928 0 0 1 6.17 53.86 Z" class="st1"/>
			</g>
			<g id="shape39-73" v:mID="39" v:groupContext="shape" transform="translate(0,-31.4084)">
				<title>Sheet.39</title>
				<path d="M13.71 88.02 L36.12 75.48 L22.23 67.83 L0 80.28 A24.1393 23.187 -180 0 0 13.72 88.03 L13.71 88.02 Z"
						class="st16"/>
				<path d="M13.71 88.02 L36.12 75.48 L22.23 67.83 L0 80.28 A24.1393 23.187 -180 0 0 13.72 88.03" class="st17"/>
			</g>
			<g id="shape40-78" v:mID="40" v:groupContext="shape" transform="translate(0.00820843,-2.55795E-013)">
				<title>Sheet.40</title>
				<path d="M13.71 56.62 A23.8697 22.928 0 0 1 0 48.84 L0 80.87 A23.3903 22.4675 -180 0 0 13.71 88.03 L13.7 56.62 L13.71
							 56.62 Z" class="st18"/>
				<path d="M13.71 56.62 A23.8697 22.928 0 0 1 0 48.84 L0 80.87 A23.3903 22.4675 -180 0 0 13.71 88.03 L13.7 56.62"
						class="st17"/>
			</g>
			<g id="shape41-85" v:mID="41" v:groupContext="shape" transform="translate(13.709,-0.0354983)">
				<title>Sheet.41</title>
				<path d="M0 56.65 L0 88.03 L22.42 75.6 L22.42 44.11 L0 56.65 Z" class="st19"/>
			</g>
			<g id="shape42-91" v:mID="42" v:groupContext="shape" transform="translate(0,-0.0011376)">
				<title>Sheet.42</title>
				<path d="M36.12 44.07 L22.23 36.42 L0 48.88 L0.01 80.87 A23.3903 22.4675 -180 0 0 13.72 88.03 L36.12 75.57 L36.12
							 44.07" class="st20"/>
			</g>
			<g id="shape43-94" v:mID="43" v:groupContext="shape" transform="translate(-24.2863,-11.2954) rotate(-20)">
				<title>Sheet.43</title>
				<ellipse cx="1.05263" cy="86.5604" rx="1.05263" ry="1.46462" class="st21"/>
			</g>
			<g id="shape44-100" v:mID="44" v:groupContext="shape" transform="translate(2.22308,-4.53881)">
				<title>Sheet.44</title>
				<path d="M-0 79.31 A27.5347 24.463 -94.91 0 0 9.26 84.2" class="st22"/>
				<path d="M0 81.22 A27.5347 24.463 -94.91 0 0 9.26 86.11" class="st22"/>
				<path d="M-0 83.13 A27.5347 24.463 -94.91 0 0 9.26 88.03" class="st22"/>
			</g>
			<g id="group45-107" transform="translate(1.85256,-22.2446)" v:mID="45" v:groupContext="group">
				<title>Sheet.45</title>
				<g id="shape46-108" v:mID="46" v:groupContext="shape" transform="translate(0,-5.14833)">
					<title>Sheet.46</title>
					<path d="M0.33 83.13 A23.3628 22.4412 -180 0 0 9.59 88.03 a0.47472 0.455991 -180 0 0 1.77636E-015 -0.889739 A22.7272
								 21.8306 0 0 1 0.52 82.38 a0.307548 0.295415 -180 0 0 -0.513447 0.251138 a0.670288 0.643844 -180
								 0 0 0.328191 0.496243 Z" class="st23"/>
				</g>
				<g id="shape47-110" v:mID="47" v:groupContext="shape" transform="translate(2.94588,-6.26984)">
					<title>Sheet.47</title>
					<path d="M2.85 87.99 A3.57057 2.11327 -90.85 0 0 0.07 86.57 A2.28402 1.17127 -180 0 0 2.85 87.99 Z"
							class="st24"/>
				</g>
				<g id="shape48-115" v:mID="48" v:groupContext="shape" transform="translate(0.370513,-0.044487)">
					<title>Sheet.48</title>
					<path d="M0 80.64 L0 83.13 A25.1314 24.1399 -180 0 0 9.26 88.03 L9.26 85.53 A25.9538 24.9299 0 0 1 -0 80.64 Z"
							class="st25"/>
				</g>
				<g id="shape49-123" v:mID="49" v:groupContext="shape" transform="translate(0.370513,-1.42358)">
					<title>Sheet.49</title>
					<path d="M0 83.13 A22.7467 21.8493 -180 0 0 9.26 88.03 L9.26 87.4 A25.1415 24.1496 0 0 1 0 82.51 L0 83.13 Z"
							class="st26"/>
				</g>
				<g id="shape50-125" v:mID="50" v:groupContext="shape" transform="translate(0.370513,-0.0889739)">
					<title>Sheet.50</title>
					<path d="M0 80.64 L0 83.13 A25.1314 24.1399 -180 0 0 9.26 88.03" class="st17"/>
				</g>
				<g id="shape51-128" v:mID="51" v:groupContext="shape" transform="translate(0.370513,5.68434E-014)">
					<title>Sheet.51</title>
					<path d="M9.26 88.03 L9.26 85.53 A25.9538 24.9299 0 0 1 -0 80.64" class="st27"/>
				</g>
			</g>
			<g id="group52-132" transform="translate(18.0735,-1.20245)" v:mID="52" v:groupContext="group">
				<v:userDefs>
					<v:ud v:nameU="IsVisable" v:val="VT0(1):5"/>
				</v:userDefs>
				<title>Sheet.52</title>
				<g id="group53-133" transform="translate(0,-0.0037409)" v:mID="53" v:groupContext="group">
					<title>Sheet.53</title>
					<g id="shape54-134" v:mID="54" v:groupContext="shape">
						<title>Sheet.54</title>
						<ellipse cx="7.0506" cy="80.9744" rx="7.0506" ry="7.0506" class="st28"/>
						<ellipse cx="7.0506" cy="80.9744" rx="7.0506" ry="7.0506" class="st29"/>
					</g>
					<g id="shape55-139" v:mID="55" v:groupContext="shape" transform="translate(0.586458,-0.158183)">
						<title>Sheet.55</title>
						<path d="M5.59 88.03 L6.4 85.87 A3.71809 3.61622 -7.95 0 0 7.74 83.66 A1.71053 1.66367 -180 0 0 6.43 82.33
									 A1.8449 1.79436 -180 0 0 5.11 83.11 L4.79 82.59 A1.39933 1.39933 -180 0 0 5.72 81.5 A2.62348
									 2.55161 0 0 1 4.67 80.7 L5.83 79.74 L6.13 78.47 L5.26 77.9 L5.81 77.21 L4.77 76.48 L5.05 75.67
									 L6.68 76.14 L6.62 77.47 L7.26 77.67 L8.13 77.26 L8.82 77.82 L9.66 79.77 L9.4 80.84 L8.81 81.23
									 L9.07 81.95 A1.18528 1.1528 -180 0 0 10.85 82.69 A1.35853 1.32131 0 0 1 11.62 83.92 L11.92 85.55
									 A6.93097 6.74108 -2.73 0 0 13.51 80.93 A4.55789 4.43302 -177.47 0 0 12.74 78.36 A4.96392 4.82793
									 -180 0 0 11.53 76.61 A1.35303 1.31596 -180 0 0 10.54 77.55 L10.84 78.5 a0.898686 0.874064 0
									 0 1 -1.08409 -0.0542427 L9.61 79.84 A10.9755 10.6748 -180 0 0 8.87 78.01 L9.78 77.64 L9.44 77.12
									 L8.82 76.98 L8.84 76.56 L9.14 74.92 L7.61 74.49 L6.85 74.9 L6.34 74.37 L5.45 74.28 L3.54 75.35
									 L4.42 75.89 L3.78 76.91 a0.941033 0.915251 0 0 1 0.822457 1.04634 a0.355042 0.345314 0 0 1 -0.496308
									 0.396175 a0.561157 0.545782 0 0 1 -0.767459 -0.584835 L3.6 76.65 L3.29 75.57 L1.92 75.79 L1.95
									 76.47 L1.64 76.76 L0.99 76.7 A5.53853 5.53853 -180 0 0 -0 78.35 L0.76 78.64 A2.64401 2.57157
									 0 0 1 1.34 80.47 A2.46549 2.39794 -180 0 0 3.7 81.74 A1.76034 1.71212 0 0 1 4.91 83.32 a0.95818
									 0.931928 -180 0 0 -0.181303 1.20437 L5.57 84.93 A1.12071 1.09001 0 0 1 5.12 85.93 A3.04102 2.9577
									 -180 0 0 5.59 88.03 Z" class="st30"/>
					</g>
				</g>
				<g id="shape56-142" v:mID="56" v:groupContext="shape" transform="translate(0.00190161,-5.68434E-014)">
					<title>Sheet.56</title>
					<ellipse cx="7.05083" cy="80.9755" rx="7.05083" ry="7.04954" class="st31"/>
					<ellipse cx="7.05083" cy="80.9755" rx="7.05083" ry="7.04954" class="st20"/>
				</g>
			</g>
		</g>
		<g id="shape57-145" v:mID="57" v:groupContext="shape" transform="translate(93.3164,-59.525)">
			<title>Sheet.57</title>
			<desc>Stream 1 Frame 1</desc>
			<v:textBlock v:margins="rect(4,4,4,4)"/>
			<v:textRect cx="34.7168" cy="73.9625" width="69.44" height="28.125"/>
			<rect x="0" y="59.9" width="69.4336" height="28.125" class="st32"/>
			<text x="18.29" y="71.26" class="st33" v:langID="1033"><v:paragraph v:horizAlign="1"/><v:tabList/>Stream 1<v:newlineChar/><tspan
						x="19.79" dy="1.2em" class="st34">Frame </tspan>1</text>		</g>
	</g>
</svg>
