<?xml version="1.0" encoding="UTF-8" standalone="no"?>
<!DOCTYPE svg PUBLIC "-//W3C//DTD SVG 1.1//EN" "http://www.w3.org/Graphics/SVG/1.1/DTD/svg11.dtd">
<!-- Generated by Microsoft Visio, SVG Export no-sharding.svg Page-1 -->
<svg xmlns="http://www.w3.org/2000/svg" xmlns:xlink="http://www.w3.org/1999/xlink" xmlns:ev="http://www.w3.org/2001/xml-events"
		xmlns:v="http://schemas.microsoft.com/visio/2003/SVGExtensions/" width="3.29686in" height="2.36544in"
		viewBox="0 0 237.374 170.312" xml:space="preserve" color-interpolation-filters="sRGB" class="st6">
	<v:documentProperties v:langID="1033" v:viewMarkup="false"/>

	<style type="text/css">
	<![CDATA[
		.st1 {fill:#cbffff;stroke:#000000;stroke-width:1}
		.st2 {fill:#000000;font-family:Calibri;font-size:0.499992em;font-weight:bold}
		.st3 {marker-end:url(#mrkr3-10);stroke:#000000;stroke-linecap:round;stroke-linejoin:round;stroke-width:0.75}
		.st4 {fill:#000000;fill-opacity:1;stroke:#000000;stroke-opacity:1;stroke-width:0.22935779816514}
		.st5 {fill:#f7efde;stroke:#000000;stroke-width:1}
		.st6 {fill:none;fill-rule:evenodd;font-size:12px;overflow:visible;stroke-linecap:square;stroke-miterlimit:3}
	]]>
	</style>

	<defs id="Markers">
		<g id="lend3">
			<path d="M 2 1 L 0 0 L 2 -1 " style="stroke-linecap:round;stroke-linejoin:round;fill:none"/>
		</g>
		<marker id="mrkr3-10" class="st4" v:arrowType="3" v:arrowSize="2" orient="auto" markerUnits="strokeWidth"
				overflow="visible">
			<use xlink:href="#lend3" transform="scale(-4.36,-4.36) "/>
		</marker>
	</defs>
	<g v:mID="0" v:index="1" v:groupContext="foregroundPage">
		<title>Page-1</title>
		<v:pageProperties v:drawingScale="1" v:pageScale="1" v:drawingUnits="19" v:shadowOffsetX="9" v:shadowOffsetY="-9"/>
		<g id="group1-1" transform="translate(9.56194,-142.75)" v:mID="1" v:groupContext="group">
			<title>Sheet.1</title>
			<g id="shape2-2" v:mID="2" v:groupContext="shape">
				<title>Rounded rectangle.45</title>
				<desc>Connexion 1 – Domaine 1</desc>
				<v:userDefs>
					<v:ud v:nameU="visVersion" v:val="VT0(12):26"/>
				</v:userDefs>
				<v:textBlock v:margins="rect(4,4,4,4)" v:tabSpace="42.5197" v:verticalAlign="0"/>
				<v:textRect cx="54" cy="163.562" width="108" height="13.5"/>
				<path d="M101.25 170.31 A6.75005 6.75005 -180 0 0 108 163.56 A6.75005 6.75005 -180 0 0 101.25 156.81 L6.75 156.81
							 A6.75005 6.75005 -180 0 0 0 163.56 A6.75005 6.75005 -180 0 0 6.75 170.31 L101.25 170.31 Z" class="st1"/>
				<text x="22.2" y="166.21" class="st2" v:langID="1033"><v:paragraph v:horizAlign="1"/><v:tabList/>Connexion 1 – Domaine 1</text>			</g>
		</g>
		<g id="shape3-5" v:mID="3" v:groupContext="shape" transform="translate(7.31194,-163)">
			<title>Sheet.3</title>
			<path d="M0 170.31 L222.75 170.31" class="st3"/>
		</g>
		<g id="group4-11" transform="translate(12.9369,-127)" v:mID="4" v:groupContext="group">
			<title>Sheet.4</title>
			<g id="shape5-12" v:mID="5" v:groupContext="shape">
				<title>Rounded rectangle.45</title>
				<desc>Connexion 2 – Domaine 1</desc>
				<v:userDefs>
					<v:ud v:nameU="visVersion" v:val="VT0(12):26"/>
				</v:userDefs>
				<v:textBlock v:margins="rect(4,4,4,4)" v:tabSpace="42.5197" v:verticalAlign="0"/>
				<v:textRect cx="45" cy="163.562" width="90" height="13.5"/>
				<path d="M83.25 170.31 A6.75005 6.75005 -180 0 0 90 163.56 A6.75005 6.75005 -180 0 0 83.25 156.81 L6.75 156.81 A6.75005
							 6.75005 -180 0 0 0 163.56 A6.75005 6.75005 -180 0 0 6.75 170.31 L83.25 170.31 Z" class="st1"/>
				<text x="13.2" y="166.21" class="st2" v:langID="1033"><v:paragraph v:horizAlign="1"/><v:tabList/>Connexion 2 – Domaine 1</text>			</g>
		</g>
		<g id="group6-15" transform="translate(14.0619,-111.25)" v:mID="6" v:groupContext="group">
			<title>Sheet.6</title>
			<g id="shape7-16" v:mID="7" v:groupContext="shape">
				<title>Rounded rectangle.45</title>
				<desc>Connexion 3 – Domaine 1</desc>
				<v:userDefs>
					<v:ud v:nameU="visVersion" v:val="VT0(12):26"/>
				</v:userDefs>
				<v:textBlock v:margins="rect(4,4,4,4)" v:tabSpace="42.5197" v:verticalAlign="0"/>
				<v:textRect cx="65.25" cy="163.562" width="130.5" height="13.5"/>
				<path d="M123.75 170.31 A6.75005 6.75005 -180 0 0 130.5 163.56 A6.75005 6.75005 -180 0 0 123.75 156.81 L6.75 156.81
							 A6.75005 6.75005 -180 0 0 0 163.56 A6.75005 6.75005 -180 0 0 6.75 170.31 L123.75 170.31 Z" class="st1"/>
				<text x="33.45" y="166.21" class="st2" v:langID="1033"><v:paragraph v:horizAlign="1"/><v:tabList/>Connexion 3 – Domaine 1</text>			</g>
		</g>
		<g id="group8-19" transform="translate(14.0619,-95.5)" v:mID="8" v:groupContext="group">
			<title>Sheet.8</title>
			<g id="shape9-20" v:mID="9" v:groupContext="shape">
				<title>Rounded rectangle.45</title>
				<desc>Connexion 4 – Domaine 1</desc>
				<v:userDefs>
					<v:ud v:nameU="visVersion" v:val="VT0(12):26"/>
				</v:userDefs>
				<v:textBlock v:margins="rect(4,4,4,4)" v:tabSpace="42.5197" v:verticalAlign="0"/>
				<v:textRect cx="60.75" cy="163.562" width="121.5" height="13.5"/>
				<path d="M114.75 170.31 A6.75005 6.75005 -180 0 0 121.5 163.56 A6.75005 6.75005 -180 0 0 114.75 156.81 L6.75 156.81
							 A6.75005 6.75005 -180 0 0 0 163.56 A6.75005 6.75005 -180 0 0 6.75 170.31 L114.75 170.31 Z" class="st1"/>
				<text x="28.95" y="166.21" class="st2" v:langID="1033"><v:paragraph v:horizAlign="1"/><v:tabList/>Connexion 4 – Domaine 1</text>			</g>
		</g>
		<g id="group10-23" transform="translate(15.1869,-79.75)" v:mID="10" v:groupContext="group">
			<title>Sheet.10</title>
			<g id="shape11-24" v:mID="11" v:groupContext="shape">
				<title>Rounded rectangle.45</title>
				<desc>Connexion 5 – Domaine 1</desc>
				<v:userDefs>
					<v:ud v:nameU="visVersion" v:val="VT0(12):26"/>
				</v:userDefs>
				<v:textBlock v:margins="rect(4,4,4,4)" v:tabSpace="42.5197" v:verticalAlign="0"/>
				<v:textRect cx="60.1875" cy="163.562" width="120.38" height="13.5"/>
				<path d="M113.62 170.31 A6.75005 6.75005 -180 0 0 120.37 163.56 A6.75005 6.75005 -180 0 0 113.62 156.81 L6.75 156.81
							 A6.75005 6.75005 -180 0 0 0 163.56 A6.75005 6.75005 -180 0 0 6.75 170.31 L113.62 170.31 Z" class="st1"/>
				<text x="28.39" y="166.21" class="st2" v:langID="1033"><v:paragraph v:horizAlign="1"/><v:tabList/>Connexion 5 – Domaine 1</text>			</g>
		</g>
		<g id="group12-27" transform="translate(15.1869,-64)" v:mID="12" v:groupContext="group">
			<title>Sheet.12</title>
			<g id="shape13-28" v:mID="13" v:groupContext="shape">
				<title>Rounded rectangle.45</title>
				<desc>Connexion 6 – Domaine 1</desc>
				<v:userDefs>
					<v:ud v:nameU="visVersion" v:val="VT0(12):26"/>
				</v:userDefs>
				<v:textBlock v:margins="rect(4,4,4,4)" v:tabSpace="42.5197" v:verticalAlign="0"/>
				<v:textRect cx="60.75" cy="163.562" width="121.5" height="13.5"/>
				<path d="M114.75 170.31 A6.75005 6.75005 -180 0 0 121.5 163.56 A6.75005 6.75005 -180 0 0 114.75 156.81 L6.75 156.81
							 A6.75005 6.75005 -180 0 0 0 163.56 A6.75005 6.75005 -180 0 0 6.75 170.31 L114.75 170.31 Z" class="st1"/>
				<text x="28.95" y="166.21" class="st2" v:langID="1033"><v:paragraph v:horizAlign="1"/><v:tabList/>Connexion 6 – Domaine 1</text>			</g>
		</g>
		<g id="group14-31" transform="translate(104.062,-48.25)" v:mID="14" v:groupContext="group">
			<title>Sheet.14</title>
			<g id="shape15-32" v:mID="15" v:groupContext="shape">
				<title>Rounded rectangle.45</title>
				<desc>Connexion 7 – Domaine 1</desc>
				<v:userDefs>
					<v:ud v:nameU="visVersion" v:val="VT0(12):26"/>
				</v:userDefs>
				<v:textBlock v:margins="rect(4,4,4,4)" v:tabSpace="42.5197" v:verticalAlign="0"/>
				<v:textRect cx="45" cy="163.562" width="90" height="13.5"/>
				<path d="M83.25 170.31 A6.75005 6.75005 -180 0 0 90 163.56 A6.75005 6.75005 -180 0 0 83.25 156.81 L6.75 156.81 A6.75005
							 6.75005 -180 0 0 0 163.56 A6.75005 6.75005 -180 0 0 6.75 170.31 L83.25 170.31 Z" class="st5"/>
				<text x="13.2" y="166.21" class="st2" v:langID="1033"><v:paragraph v:horizAlign="1"/><v:tabList/>Connexion 7 – Domaine 1</text>			</g>
		</g>
		<g id="group16-35" transform="translate(119.812,-32.5)" v:mID="16" v:groupContext="group">
			<title>Sheet.16</title>
			<g id="shape17-36" v:mID="17" v:groupContext="shape">
				<title>Rounded rectangle.45</title>
				<desc>Connexion 8 – Domaine 1</desc>
				<v:userDefs>
					<v:ud v:nameU="visVersion" v:val="VT0(12):26"/>
				</v:userDefs>
				<v:textBlock v:margins="rect(4,4,4,4)" v:tabSpace="42.5197" v:verticalAlign="0"/>
				<v:textRect cx="45" cy="163.562" width="90" height="13.5"/>
				<path d="M83.25 170.31 A6.75005 6.75005 -180 0 0 90 163.56 A6.75005 6.75005 -180 0 0 83.25 156.81 L6.75 156.81 A6.75005
							 6.75005 -180 0 0 0 163.56 A6.75005 6.75005 -180 0 0 6.75 170.31 L83.25 170.31 Z" class="st5"/>
				<text x="13.2" y="166.21" class="st2" v:langID="1033"><v:paragraph v:horizAlign="1"/><v:tabList/>Connexion 8 – Domaine 1</text>			</g>
		</g>
		<g id="group18-39" transform="translate(134.437,-16.75)" v:mID="18" v:groupContext="group">
			<title>Sheet.18</title>
			<g id="shape19-40" v:mID="19" v:groupContext="shape">
				<title>Rounded rectangle.45</title>
				<desc>Connexion 9 – Domaine 1</desc>
				<v:userDefs>
					<v:ud v:nameU="visVersion" v:val="VT0(12):26"/>
				</v:userDefs>
				<v:textBlock v:margins="rect(4,4,4,4)" v:tabSpace="42.5197" v:verticalAlign="0"/>
				<v:textRect cx="45" cy="163.562" width="90" height="13.5"/>
				<path d="M83.25 170.31 A6.75005 6.75005 -180 0 0 90 163.56 A6.75005 6.75005 -180 0 0 83.25 156.81 L6.75 156.81 A6.75005
							 6.75005 -180 0 0 0 163.56 A6.75005 6.75005 -180 0 0 6.75 170.31 L83.25 170.31 Z" class="st5"/>
				<text x="13.2" y="166.21" class="st2" v:langID="1033"><v:paragraph v:horizAlign="1"/><v:tabList/>Connexion 9 – Domaine 1</text>			</g>
		</g>
		<g id="group20-43" transform="translate(135.562,-1)" v:mID="20" v:groupContext="group">
			<title>Sheet.20</title>
			<g id="shape21-44" v:mID="21" v:groupContext="shape">
				<title>Rounded rectangle.45</title>
				<desc>Connexion 10 – Domaine 1</desc>
				<v:userDefs>
					<v:ud v:nameU="visVersion" v:val="VT0(12):26"/>
				</v:userDefs>
				<v:textBlock v:margins="rect(4,4,4,4)" v:tabSpace="42.5197" v:verticalAlign="0"/>
				<v:textRect cx="45" cy="163.562" width="90" height="13.5"/>
				<path d="M83.25 170.31 A6.75005 6.75005 -180 0 0 90 163.56 A6.75005 6.75005 -180 0 0 83.25 156.81 L6.75 156.81 A6.75005
							 6.75005 -180 0 0 0 163.56 A6.75005 6.75005 -180 0 0 6.75 170.31 L83.25 170.31 Z" class="st5"/>
				<text x="11.68" y="166.21" class="st2" v:langID="1033"><v:paragraph v:horizAlign="1"/><v:tabList/>Connexion 10 – Domaine 1</text>			</g>
		</g>
	</g>
</svg>
