<?xml version="1.0" encoding="UTF-8" standalone="no"?>
<!DOCTYPE svg PUBLIC "-//W3C//DTD SVG 1.1//EN" "http://www.w3.org/Graphics/SVG/1.1/DTD/svg11.dtd">
<!-- Generated by Microsoft Visio, SVG Export Drawing1.svg Page-1 -->
<svg xmlns="http://www.w3.org/2000/svg" xmlns:xlink="http://www.w3.org/1999/xlink" xmlns:ev="http://www.w3.org/2001/xml-events"
		xmlns:v="http://schemas.microsoft.com/visio/2003/SVGExtensions/" width="6.631in" height="2.98589in"
		viewBox="0 0 477.432 214.984" xml:space="preserve" color-interpolation-filters="sRGB" class="st11">
	<v:documentProperties v:langID="1033" v:viewMarkup="false"/>

	<style type="text/css">
	<![CDATA[
		.st1 {fill:#ffffff;stroke:#000000;stroke-linecap:round;stroke-linejoin:round;stroke-width:0.75}
		.st2 {stroke:#000000;stroke-dasharray:5.25,3.75;stroke-linecap:round;stroke-linejoin:round;stroke-width:0.75}
		.st3 {fill:#000000;font-family:Calibri;font-size:1.00001em;font-weight:bold}
		.st4 {marker-end:url(#mrkr3-32);stroke:#0070c0;stroke-linecap:round;stroke-linejoin:round;stroke-width:1.25}
		.st5 {fill:#0070c0;fill-opacity:1;stroke:#0070c0;stroke-opacity:1;stroke-width:0.3315649867374}
		.st6 {marker-end:url(#mrkr3-38);stroke:#00b050;stroke-linecap:round;stroke-linejoin:round;stroke-width:1.25}
		.st7 {fill:#00b050;fill-opacity:1;stroke:#00b050;stroke-opacity:1;stroke-width:0.3315649867374}
		.st8 {stroke:#ff0000;stroke-linecap:round;stroke-linejoin:round;stroke-width:0.75}
		.st9 {fill:none;stroke:none;stroke-linecap:round;stroke-linejoin:round;stroke-width:0.75}
		.st10 {fill:#000000;font-family:Calibri;font-size:0.75em}
		.st11 {fill:none;fill-rule:evenodd;font-size:12px;overflow:visible;stroke-linecap:square;stroke-miterlimit:3}
	]]>
	</style>

	<defs id="Markers">
		<g id="lend3">
			<path d="M 2 1 L 0 0 L 2 -1 " style="stroke-linecap:round;stroke-linejoin:round;fill:none"/>
		</g>
		<marker id="mrkr3-32" class="st5" v:arrowType="3" v:arrowSize="2" orient="auto" markerUnits="strokeWidth"
				overflow="visible">
			<use xlink:href="#lend3" transform="scale(-3.016,-3.016) "/>
		</marker>
		<marker id="mrkr3-38" class="st7" v:arrowType="3" v:arrowSize="2" orient="auto" markerUnits="strokeWidth"
				overflow="visible">
			<use xlink:href="#lend3" transform="scale(-3.016,-3.016) "/>
		</marker>
	</defs>
	<g v:mID="0" v:index="1" v:groupContext="foregroundPage">
		<title>Page-1</title>
		<v:pageProperties v:drawingScale="1" v:pageScale="1" v:drawingUnits="19" v:shadowOffsetX="9" v:shadowOffsetY="-9"/>
		<g id="group6-1" transform="translate(106.693,-185.809)" v:mID="6" v:groupContext="group">
			<v:userDefs>
				<v:ud v:nameU="visVersion" v:prompt="" v:val="VT0(15):26"/>
				<v:ud v:nameU="ShowActor" v:prompt="" v:val="VT0(0):5"/>
				<v:ud v:nameU="ShowDestruction" v:prompt="" v:val="VT0(0):5"/>
			</v:userDefs>
			<title>Object lifeline</title>
			<desc>Client</desc>
			<g id="shape7-2" v:mID="7" v:groupContext="shape">
				<title>Sheet.7</title>
				<rect x="0" y="189.784" width="54" height="25.2" class="st1"/>
			</g>
			<g id="shape8-4" v:mID="8" v:groupContext="shape" transform="translate(18,-28.8)">
				<title>Sheet.8</title>
				<path d="M9 214.98 a0 0 0 1 1 0 0 a0 0 0 1 1 0 0 Z" class="st1"/>
			</g>
			<g id="shape9-6" v:mID="9" v:groupContext="shape" transform="translate(18,185.4)">
				<title>Sheet.9</title>
			</g>
			<g id="shape10-8" v:mID="10" v:groupContext="shape" transform="translate(241.984,214.984) rotate(90)">
				<title>Sheet.10</title>
				<path d="M0 214.98 L167.4 214.98" class="st2"/>
			</g>
			<g id="shape6-11" v:mID="6" v:groupContext="groupContent">
				<v:textBlock v:margins="rect(4,4,4,4)"/>
				<v:textRect cx="27" cy="202.384" width="54" height="25.2"/>
				<rect x="0" y="189.784" width="54" height="25.2" class="st1"/>
				<text x="12.56" y="205.98" class="st3" v:langID="1033"><v:paragraph v:horizAlign="1"/><v:tabList/>Client</text>			</g>
		</g>
		<g id="group11-14" transform="translate(219.875,-185.809)" v:mID="11" v:groupContext="group">
			<v:userDefs>
				<v:ud v:nameU="visVersion" v:prompt="" v:val="VT0(15):26"/>
				<v:ud v:nameU="ShowActor" v:prompt="" v:val="VT0(0):5"/>
				<v:ud v:nameU="ShowDestruction" v:prompt="" v:val="VT0(0):5"/>
			</v:userDefs>
			<title>Object lifeline.11</title>
			<desc>Serveur</desc>
			<g id="shape12-15" v:mID="12" v:groupContext="shape">
				<title>Sheet.12</title>
				<rect x="0" y="189.784" width="54" height="25.2" class="st1"/>
			</g>
			<g id="shape13-17" v:mID="13" v:groupContext="shape" transform="translate(18,-28.8)">
				<title>Sheet.13</title>
				<path d="M9 214.98 a0 0 0 1 1 0 0 a0 0 0 1 1 0 0 Z" class="st1"/>
			</g>
			<g id="shape14-19" v:mID="14" v:groupContext="shape" transform="translate(18,185.4)">
				<title>Sheet.14</title>
			</g>
			<g id="shape15-21" v:mID="15" v:groupContext="shape" transform="translate(241.984,214.984) rotate(90)">
				<title>Sheet.15</title>
				<path d="M0 214.98 L167.4 214.98" class="st2"/>
			</g>
			<g id="shape11-24" v:mID="11" v:groupContext="groupContent">
				<v:textBlock v:margins="rect(4,4,4,4)"/>
				<v:textRect cx="27" cy="202.384" width="54" height="25.2"/>
				<rect x="0" y="189.784" width="54" height="25.2" class="st1"/>
				<text x="7.8" y="205.98" class="st3" v:langID="1033"><v:paragraph v:horizAlign="1"/><v:tabList/>Serveur</text>			</g>
		</g>
		<g id="shape16-27" v:mID="16" v:groupContext="shape" transform="translate(167.459,-165.141) rotate(9.03642)">
			<title>Sheet.16</title>
			<path d="M0 214.98 L114.6 214.98" class="st4"/>
		</g>
		<g id="shape17-33" v:mID="17" v:groupContext="shape" transform="translate(290.655,293.654) rotate(168.25)">
			<title>Sheet.17</title>
			<path d="M0 214.98 L115.31 214.98" class="st6"/>
		</g>
		<g id="shape19-39" v:mID="19" v:groupContext="shape" transform="translate(167.459,-93.1409) rotate(9.03642)">
			<title>Sheet.19</title>
			<path d="M0 214.98 L114.6 214.98" class="st4"/>
		</g>
		<g id="shape20-44" v:mID="20" v:groupContext="shape" transform="translate(298.623,363.838) rotate(166.072)">
			<title>Sheet.20</title>
			<path d="M0 214.98 L115.91 214.98" class="st6"/>
		</g>
		<g id="group21-49" transform="translate(309.875,-185.4)" v:mID="21" v:groupContext="group">
			<v:userDefs>
				<v:ud v:nameU="visVersion" v:prompt="" v:val="VT0(15):26"/>
				<v:ud v:nameU="ShowActor" v:prompt="" v:val="VT0(0):5"/>
				<v:ud v:nameU="ShowDestruction" v:prompt="" v:val="VT0(0):5"/>
			</v:userDefs>
			<title>Object lifeline.21</title>
			<desc>Client</desc>
			<g id="shape22-50" v:mID="22" v:groupContext="shape">
				<title>Sheet.22</title>
				<rect x="0" y="189.784" width="54" height="25.2" class="st1"/>
			</g>
			<g id="shape23-52" v:mID="23" v:groupContext="shape" transform="translate(18,-28.8)">
				<title>Sheet.23</title>
				<path d="M9 214.98 a0 0 0 1 1 0 0 a0 0 0 1 1 0 0 Z" class="st1"/>
			</g>
			<g id="shape24-54" v:mID="24" v:groupContext="shape" transform="translate(18,185.4)">
				<title>Sheet.24</title>
			</g>
			<g id="shape25-56" v:mID="25" v:groupContext="shape" transform="translate(241.984,214.984) rotate(90)">
				<title>Sheet.25</title>
				<path d="M0 214.98 L167.4 214.98" class="st2"/>
			</g>
			<g id="shape21-59" v:mID="21" v:groupContext="groupContent">
				<v:textBlock v:margins="rect(4,4,4,4)"/>
				<v:textRect cx="27" cy="202.384" width="54" height="25.2"/>
				<rect x="0" y="189.784" width="54" height="25.2" class="st1"/>
				<text x="12.56" y="205.98" class="st3" v:langID="1033"><v:paragraph v:horizAlign="1"/><v:tabList/>Client</text>			</g>
		</g>
		<g id="group26-62" transform="translate(423.057,-185.4)" v:mID="26" v:groupContext="group">
			<v:userDefs>
				<v:ud v:nameU="visVersion" v:prompt="" v:val="VT0(15):26"/>
				<v:ud v:nameU="ShowActor" v:prompt="" v:val="VT0(0):5"/>
				<v:ud v:nameU="ShowDestruction" v:prompt="" v:val="VT0(0):5"/>
			</v:userDefs>
			<title>Object lifeline.26</title>
			<desc>Serveur</desc>
			<g id="shape27-63" v:mID="27" v:groupContext="shape">
				<title>Sheet.27</title>
				<rect x="0" y="189.784" width="54" height="25.2" class="st1"/>
			</g>
			<g id="shape28-65" v:mID="28" v:groupContext="shape" transform="translate(18,-28.8)">
				<title>Sheet.28</title>
				<path d="M9 214.98 a0 0 0 1 1 0 0 a0 0 0 1 1 0 0 Z" class="st1"/>
			</g>
			<g id="shape29-67" v:mID="29" v:groupContext="shape" transform="translate(18,185.4)">
				<title>Sheet.29</title>
			</g>
			<g id="shape30-69" v:mID="30" v:groupContext="shape" transform="translate(241.984,214.984) rotate(90)">
				<title>Sheet.30</title>
				<path d="M0 214.98 L167.4 214.98" class="st2"/>
			</g>
			<g id="shape26-72" v:mID="26" v:groupContext="groupContent">
				<v:textBlock v:margins="rect(4,4,4,4)"/>
				<v:textRect cx="27" cy="202.384" width="54" height="25.2"/>
				<rect x="0" y="189.784" width="54" height="25.2" class="st1"/>
				<text x="7.8" y="205.98" class="st3" v:langID="1033"><v:paragraph v:horizAlign="1"/><v:tabList/>Serveur</text>			</g>
		</g>
		<g id="shape31-75" v:mID="31" v:groupContext="shape" transform="translate(370.641,-168.178) rotate(9.03642)">
			<title>Sheet.31</title>
			<path d="M0 214.98 L114.6 214.98" class="st4"/>
		</g>
		<g id="shape32-80" v:mID="32" v:groupContext="shape" transform="translate(493.836,317.054) rotate(168.25)">
			<title>Sheet.32</title>
			<path d="M0 214.98 L115.31 214.98" class="st6"/>
		</g>
		<g id="shape35-85" v:mID="35" v:groupContext="shape" transform="translate(370.641,-159.741) rotate(9.03642)">
			<title>Sheet.35</title>
			<path d="M0 214.98 L114.6 214.98" class="st4"/>
		</g>
		<g id="shape36-90" v:mID="36" v:groupContext="shape" transform="translate(370.641,-150.741) rotate(9.03642)">
			<title>Sheet.36</title>
			<path d="M0 214.98 L114.6 214.98" class="st4"/>
		</g>
		<g id="shape37-95" v:mID="37" v:groupContext="shape" transform="translate(370.641,-141.741) rotate(9.03642)">
			<title>Sheet.37</title>
			<path d="M0 214.98 L114.6 214.98" class="st4"/>
		</g>
		<g id="shape38-100" v:mID="38" v:groupContext="shape" transform="translate(494.28,326.617) rotate(168.25)">
			<title>Sheet.38</title>
			<path d="M0 214.98 L115.31 214.98" class="st6"/>
		</g>
		<g id="shape69-105" v:mID="69" v:groupContext="shape" transform="translate(494.28,336.179) rotate(168.25)">
			<title>Sheet.69</title>
			<path d="M0 214.98 L115.31 214.98" class="st6"/>
		</g>
		<g id="shape70-110" v:mID="70" v:groupContext="shape" transform="translate(494.28,345.179) rotate(168.25)">
			<title>Sheet.70</title>
			<path d="M0 214.98 L115.31 214.98" class="st6"/>
		</g>
		<g id="shape71-115" v:mID="71" v:groupContext="shape" transform="translate(125.375,-173.659)">
			<title>Sheet.71</title>
			<path d="M0 214.98 L15.75 214.98" class="st8"/>
		</g>
		<g id="shape72-118" v:mID="72" v:groupContext="shape" transform="translate(125.375,-20.6591)">
			<title>Sheet.72</title>
			<path d="M0 214.98 L15.75 214.98" class="st8"/>
		</g>
		<g id="shape73-121" v:mID="73" v:groupContext="shape" transform="translate(0.375,-164.659)">
			<title>Sheet.73</title>
			<desc>Début de la connexion</desc>
			<v:textBlock v:margins="rect(4,4,4,4)"/>
			<v:textRect cx="76" cy="204.984" width="152" height="20"/>
			<rect x="0" y="194.984" width="152" height="20" class="st9"/>
			<text x="34.95" y="207.68" class="st10" v:langID="1033"><v:paragraph v:horizAlign="1"/><v:tabList/>Début de la connexion</text>		</g>
		<g id="shape76-124" v:mID="76" v:groupContext="shape" transform="translate(8.375,-10.6591)">
			<title>Sheet.76</title>
			<desc>Fin de la connexion</desc>
			<v:textBlock v:margins="rect(4,4,4,4)"/>
			<v:textRect cx="76" cy="204.984" width="152" height="20"/>
			<rect x="0" y="194.984" width="152" height="20" class="st9"/>
			<text x="40.73" y="207.68" class="st10" v:langID="1033"><v:paragraph v:horizAlign="1"/><v:tabList/>Fin de la connexion</text>		</g>
	</g>
</svg>
